SplineFontDB: 3.2
FontName: Elestrals-Regular
FullName: Elestrals Regular
FamilyName: Alegreya
Weight: Bold
Version: 1.003
ItalicAngle: 0
UnderlinePosition: -115
UnderlineWidth: 56
Ascent: 800
Descent: 200
InvalidEm: 0
sfntRevision: 0x000100c5
LayerCount: 2
Layer: 0 1 "Back" 1
Layer: 1 1 "Fore" 0
XUID: [1021 361 1549953278 10948]
StyleMap: 0x0020
FSType: 0
OS2Version: 3
OS2_WeightWidthSlopeOnly: 0
OS2_UseTypoMetrics: 0
CreationTime: 1342060297
ModificationTime: 1667063971
PfmFamily: 17
TTFWeight: 700
TTFWidth: 5
LineGap: 0
VLineGap: 0
Panose: 2 0 5 3 5 0 0 2 0 4
OS2TypoAscent: 1016
OS2TypoAOffset: 0
OS2TypoDescent: -345
OS2TypoDOffset: 0
OS2TypoLinegap: 0
OS2WinAscent: 1016
OS2WinAOffset: 0
OS2WinDescent: 345
OS2WinDOffset: 0
HheadAscent: 1016
HheadAOffset: 0
HheadDescent: -345
HheadDOffset: 0
OS2SubXSize: 700
OS2SubYSize: 650
OS2SubXOff: 0
OS2SubYOff: 140
OS2SupXSize: 700
OS2SupYSize: 650
OS2SupXOff: 0
OS2SupYOff: 477
OS2StrikeYSize: 50
OS2StrikeYPos: 250
OS2CapHeight: 642
OS2XHeight: 462
OS2FamilyClass: 258
OS2Vendor: '    '
OS2CodePages: 20000093.00000000
OS2UnicodeRanges: 00000000.00000000.00000000.00000000
Lookup: 1 0 0 "'locl' Localized Forms in Latin lookup 0" { "'locl' Localized Forms in Latin lookup 0 subtable"  } ['locl' ('latn' <'ROM ' > ) ]
Lookup: 1 0 0 "'sinf' Scientific Inferiors in Latin lookup 1" { "'sinf' Scientific Inferiors in Latin lookup 1 subtable"  } ['sinf' ('DFLT' <'dflt' > 'latn' <'dflt' > ) ]
Lookup: 1 0 0 "'sups' Superscript in Latin lookup 2" { "'sups' Superscript in Latin lookup 2 subtable" ("superior") } ['sups' ('DFLT' <'dflt' > 'latn' <'dflt' > ) ]
Lookup: 1 0 0 "'numr' Numerators in Latin lookup 3" { "'numr' Numerators in Latin lookup 3 subtable"  } ['numr' ('DFLT' <'dflt' > 'latn' <'dflt' > ) ]
Lookup: 1 0 0 "'dnom' Denominators in Latin lookup 4" { "'dnom' Denominators in Latin lookup 4 subtable"  } ['dnom' ('DFLT' <'dflt' > 'latn' <'dflt' > ) ]

StartChar: .notdef
Encoding: 256 -1 0
Width: 364
GlyphClass: 1
Flags: W
LayerCount: 2
Fore
SplineSet
33 0 m 1,0,-1
 33 666 l 1,1,-1
 298 666 l 1,2,-1
 298 0 l 1,3,-1
 33 0 l 1,0,-1
66 33 m 1,4,-1
 265 33 l 1,5,-1
 265 633 l 1,6,-1
 66 633 l 1,7,-1
 66 33 l 1,4,-1
EndSplineSet
EndChar

StartChar: notequal
Encoding: 137 252 4
AltUni2: 002260.ffffffff.0 0000fb.ffffffff.0 0000f9.ffffffff.0 0000fa.ffffffff.0 0000f5.ffffffff.0 0000f6.ffffffff.0 0000f4.ffffffff.0 0000f2.ffffffff.0 0000f3.ffffffff.0 0000f1.ffffffff.0 0000ef.ffffffff.0 0000ee.ffffffff.0 0000ec.ffffffff.0 0000ed.ffffffff.0 0000eb.ffffffff.0 0000ea.ffffffff.0 0000e8.ffffffff.0 0000e9.ffffffff.0 0000e7.ffffffff.0 0000e5.ffffffff.0 0000e3.ffffffff.0 0000e4.ffffffff.0 0000e2.ffffffff.0 00007f.ffffffff.0 00001f.ffffffff.0 00001e.ffffffff.0 00001c.ffffffff.0 00001b.ffffffff.0 00001a.ffffffff.0 000017.ffffffff.0 000016.ffffffff.0 000015.ffffffff.0 000014.ffffffff.0 000013.ffffffff.0 000012.ffffffff.0 000011.ffffffff.0 000010.ffffffff.0 00000f.ffffffff.0 00000e.ffffffff.0 00000c.ffffffff.0 00000b.ffffffff.0 00000a.ffffffff.0 000007.ffffffff.0 000006.ffffffff.0 000005.ffffffff.0 000004.ffffffff.0 000003.ffffffff.0 000002.ffffffff.0 000001.ffffffff.0
Width: 683
GlyphClass: 1
Flags: W
LayerCount: 2
Fore
SplineSet
366 675 m 0,0,1
 380 675 380 675 489 560 c 128,-1,2
 598 445 598 445 598 433 c 0,3,4
 598 423 598 423 482 316 c 128,-1,5
 366 209 366 209 354 209 c 256,6,7
 342 209 342 209 302 272.5 c 128,-1,8
 262 336 262 336 268 344 c 256,9,10
 274 352 274 352 290 347.5 c 128,-1,11
 306 343 306 343 320 333.5 c 128,-1,12
 334 324 334 324 349 316.5 c 128,-1,13
 364 309 364 309 368 312 c 0,14,15
 486 420 486 420 486 432 c 0,16,17
 488 441 488 441 431 501 c 128,-1,18
 374 561 374 561 364 561 c 0,19,20
 352 561 352 561 227 437.5 c 128,-1,21
 102 314 102 314 102 301 c 128,-1,22
 102 288 102 288 221 172 c 128,-1,23
 340 56 340 56 350 57 c 0,24,25
 356 57 356 57 504 187.5 c 128,-1,26
 652 318 652 318 658 318 c 0,27,28
 670 319 670 319 694 306.5 c 128,-1,29
 718 294 718 294 718 285 c 256,30,31
 718 276 718 276 538 111 c 128,-1,32
 358 -54 358 -54 348 -53 c 0,33,34
 340 -53 340 -53 251 30.5 c 128,-1,35
 162 114 162 114 76 203 c 128,-1,36
 -10 292 -10 292 -10 305 c 256,37,38
 -10 318 -10 318 171 496 c 128,-1,39
 352 674 352 674 366 675 c 0,0,1
EndSplineSet
EndChar

StartChar: uni0018
Encoding: 24 8216 6
Width: 218
GlyphClass: 2
Flags: W
LayerCount: 2
Fore
SplineSet
165 422 m 1,0,1
 147 408 147 408 126 397.5 c 128,-1,2
 105 387 105 387 86 387 c 0,3,4
 56 387 56 387 36.5 410 c 128,-1,5
 17 433 17 433 17 472 c 0,6,7
 17 499 17 499 29 524.5 c 128,-1,8
 41 550 41 550 61 573 c 128,-1,9
 81 596 81 596 108 616.5 c 128,-1,10
 135 637 135 637 164 654 c 1,11,-1
 201 624 l 1,12,-1
 201 607 l 1,13,14
 171 587 171 587 152 558.5 c 128,-1,15
 133 530 133 530 133 504 c 0,16,17
 133 484 133 484 143 466 c 128,-1,18
 153 448 153 448 167 436 c 1,19,-1
 165 422 l 1,0,1
EndSplineSet
EndChar

StartChar: uni0019
Encoding: 25 8217 7
Width: 218
GlyphClass: 2
Flags: W
LayerCount: 2
Fore
SplineSet
42 619 m 1,0,1
 59 633 59 633 80.5 643.5 c 128,-1,2
 102 654 102 654 121 654 c 0,3,4
 151 654 151 654 170.5 631 c 128,-1,5
 190 608 190 608 190 568 c 0,6,7
 190 541 190 541 178 515.5 c 128,-1,8
 166 490 166 490 145.5 467 c 128,-1,9
 125 444 125 444 98.5 423.5 c 128,-1,10
 72 403 72 403 43 387 c 1,11,-1
 6 417 l 1,12,-1
 6 434 l 1,13,14
 35 454 35 454 54.5 482 c 128,-1,15
 74 510 74 510 74 536 c 0,16,17
 74 556 74 556 64 574.5 c 128,-1,18
 54 593 54 593 39 605 c 1,19,-1
 42 619 l 1,0,1
EndSplineSet
EndChar

StartChar: exclam
Encoding: 33 33 10
Width: 285
GlyphClass: 1
Flags: W
LayerCount: 2
Fore
SplineSet
124 -11 m 0,0,1
 87 -11 87 -11 68.5 10 c 128,-1,2
 50 31 50 31 50 65 c 0,3,4
 50 101 50 101 71.5 124 c 128,-1,5
 93 147 93 147 131 147 c 0,6,7
 167 147 167 147 186 126.5 c 128,-1,8
 205 106 205 106 205 72 c 0,9,10
 205 35 205 35 183.5 12 c 128,-1,11
 162 -11 162 -11 124 -11 c 0,0,1
72 666 m 1,12,-1
 84 683 l 1,13,-1
 218 705 l 1,14,-1
 234 687 l 1,15,-1
 172 234 l 1,16,-1
 108 223 l 1,17,-1
 93 236 l 1,18,-1
 72 666 l 1,12,-1
EndSplineSet
EndChar

StartChar: quotedbl
Encoding: 34 34 11
Width: 321
GlyphClass: 1
Flags: W
LayerCount: 2
Fore
SplineSet
151 644 m 1,0,1
 147 612 147 612 141 576 c 0,2,3
 136 545 136 545 128.5 506.5 c 128,-1,4
 121 468 121 468 113 428 c 1,5,-1
 65 408 l 1,6,-1
 50 412 l 1,7,8
 51 455 51 455 50.5 496 c 128,-1,9
 50 537 50 537 48 569 c 0,10,11
 46 607 46 607 43 640 c 1,12,-1
 143 654 l 1,13,-1
 151 644 l 1,0,1
296 644 m 1,14,15
 292 612 292 612 286 576 c 0,16,17
 281 545 281 545 273.5 506.5 c 128,-1,18
 266 468 266 468 258 428 c 1,19,-1
 210 408 l 1,20,-1
 195 412 l 1,21,22
 196 455 196 455 195.5 496 c 128,-1,23
 195 537 195 537 193 569 c 0,24,25
 191 607 191 607 188 640 c 1,26,-1
 288 654 l 1,27,-1
 296 644 l 1,14,15
EndSplineSet
EndChar

StartChar: numbersign
Encoding: 35 35 12
Width: 526
GlyphClass: 1
Flags: W
LayerCount: 2
Fore
SplineSet
43 362 m 1,0,-1
 58 432 l 1,1,-1
 157 431 l 1,2,-1
 184 570 l 1,3,-1
 257 577 l 1,4,-1
 268 571 l 1,5,-1
 237 431 l 1,6,-1
 284 431 l 1,7,-1
 331 430 l 1,8,-1
 358 570 l 1,9,-1
 431 577 l 1,10,-1
 442 571 l 1,11,-1
 411 431 l 1,12,-1
 508 433 l 1,13,-1
 513 421 l 1,14,-1
 499 351 l 1,15,-1
 395 351 l 1,16,-1
 390 323 l 1,17,-1
 377 258 l 1,18,-1
 474 259 l 1,19,-1
 479 247 l 1,20,-1
 465 178 l 1,21,-1
 363 178 l 1,22,-1
 337 44 l 1,23,-1
 266 33 l 1,24,-1
 256 41 l 1,25,-1
 284 178 l 1,26,-1
 228 179 l 1,27,-1
 190 178 l 1,28,-1
 164 44 l 1,29,-1
 93 33 l 1,30,-1
 83 41 l 1,31,-1
 111 178 l 1,32,-1
 15 177 l 1,33,-1
 9 189 l 1,34,-1
 24 258 l 1,35,-1
 125 257 l 1,36,-1
 135 309 l 1,37,-1
 144 351 l 1,38,-1
 49 351 l 1,39,-1
 43 362 l 1,0,-1
203 257 m 1,40,-1
 247 257 l 1,41,-1
 299 256 l 1,42,-1
 309 309 l 1,43,-1
 317 352 l 1,44,-1
 222 352 l 1,45,-1
 216 323 l 1,46,-1
 203 257 l 1,40,-1
EndSplineSet
EndChar

StartChar: dollar
Encoding: 36 36 13
Width: 466
GlyphClass: 1
Flags: W
LayerCount: 2
Fore
SplineSet
148 -152 m 1,0,-1
 164 -8 l 1,1,2
 136 -6 136 -6 113.5 -1.5 c 128,-1,3
 91 3 91 3 75 8 c 0,4,5
 57 14 57 14 42 21 c 1,6,-1
 34 33 l 1,7,8
 37 54 37 54 41 76 c 0,9,10
 43 95 43 95 45.5 118 c 128,-1,11
 48 141 48 141 49 164 c 1,12,-1
 126 170 l 1,13,14
 126 113 126 113 145.5 92 c 128,-1,15
 165 71 165 71 212 71 c 0,16,17
 248 71 248 71 269 85 c 128,-1,18
 290 99 290 99 290 122 c 0,19,20
 290 137 290 137 280 148.5 c 128,-1,21
 270 160 270 160 253 170 c 128,-1,22
 236 180 236 180 214.5 189.5 c 128,-1,23
 193 199 193 199 170 209 c 0,24,25
 146 220 146 220 122.5 233 c 128,-1,26
 99 246 99 246 80.5 262.5 c 128,-1,27
 62 279 62 279 51 300.5 c 128,-1,28
 40 322 40 322 40 351 c 0,29,30
 40 413 40 413 89 454.5 c 128,-1,31
 138 496 138 496 219 507 c 1,32,-1
 235 649 l 1,33,-1
 304 658 l 1,34,-1
 310 649 l 1,35,-1
 295 509 l 1,36,37
 347 506 347 506 381 498 c 0,38,39
 399 494 399 494 414 489 c 1,40,-1
 421 477 l 1,41,42
 417 458 417 458 413 436 c 0,43,44
 409 417 409 417 405.5 393 c 128,-1,45
 402 369 402 369 400 343 c 1,46,-1
 330 337 l 1,47,-1
 322 343 l 1,48,-1
 322 350 l 2,49,50
 322 353 322 353 322.5 356.5 c 128,-1,51
 323 360 323 360 323 365 c 0,52,53
 323 397 323 397 305 411.5 c 128,-1,54
 287 426 287 426 248 426 c 0,55,56
 216 426 216 426 195.5 412.5 c 128,-1,57
 175 399 175 399 175 377 c 0,58,59
 175 363 175 363 184 352 c 128,-1,60
 193 341 193 341 208 331 c 128,-1,61
 223 321 223 321 242.5 312.5 c 128,-1,62
 262 304 262 304 283 295 c 0,63,64
 308 284 308 284 334 271.5 c 128,-1,65
 360 259 360 259 381 241.5 c 128,-1,66
 402 224 402 224 415 201.5 c 128,-1,67
 428 179 428 179 428 149 c 0,68,69
 428 85 428 85 377 43.5 c 128,-1,70
 326 2 326 2 238 -6 c 1,71,-1
 222 -151 l 1,72,-1
 154 -159 l 1,73,-1
 148 -152 l 1,0,-1
EndSplineSet
EndChar

StartChar: percent
Encoding: 37 37 14
Width: 713
GlyphClass: 1
Flags: W
LayerCount: 2
Fore
SplineSet
172 408 m 0,0,1
 205 408 205 408 229.5 421.5 c 128,-1,2
 254 435 254 435 254 474 c 0,3,4
 254 509 254 509 230.5 530 c 128,-1,5
 207 551 207 551 161 551 c 0,6,7
 121 551 121 551 101 534 c 128,-1,8
 81 517 81 517 81 486 c 0,9,10
 81 444 81 444 107.5 426 c 128,-1,11
 134 408 134 408 172 408 c 0,0,1
160 309 m 0,12,13
 92 309 92 309 55 353.5 c 128,-1,14
 18 398 18 398 18 474 c 0,15,16
 18 514 18 514 29 547.5 c 128,-1,17
 40 581 40 581 61 604.5 c 128,-1,18
 82 628 82 628 111 641 c 128,-1,19
 140 654 140 654 176 654 c 256,20,21
 212 654 212 654 238.5 642 c 128,-1,22
 265 630 265 630 282.5 608 c 128,-1,23
 300 586 300 586 308.5 556.5 c 128,-1,24
 317 527 317 527 317 492 c 0,25,26
 317 452 317 452 306.5 418.5 c 128,-1,27
 296 385 296 385 276 360.5 c 128,-1,28
 256 336 256 336 226.5 322.5 c 128,-1,29
 197 309 197 309 160 309 c 0,12,13
562 88 m 0,30,31
 578 88 578 88 592.5 91 c 128,-1,32
 607 94 607 94 618.5 101.5 c 128,-1,33
 630 109 630 109 636.5 121.5 c 128,-1,34
 643 134 643 134 643 153 c 0,35,36
 643 188 643 188 619.5 209.5 c 128,-1,37
 596 231 596 231 550 231 c 0,38,39
 511 231 511 231 490.5 213.5 c 128,-1,40
 470 196 470 196 470 165 c 0,41,42
 470 123 470 123 497 105.5 c 128,-1,43
 524 88 524 88 562 88 c 0,30,31
550 -12 m 0,44,45
 481 -12 481 -12 444.5 33 c 128,-1,46
 408 78 408 78 408 154 c 0,47,48
 408 194 408 194 419 227 c 128,-1,49
 430 260 430 260 451 283.5 c 128,-1,50
 472 307 472 307 501 320 c 128,-1,51
 530 333 530 333 566 333 c 0,52,53
 601 333 601 333 627.5 321 c 128,-1,54
 654 309 654 309 671.5 287 c 128,-1,55
 689 265 689 265 698 235.5 c 128,-1,56
 707 206 707 206 707 171 c 0,57,58
 707 131 707 131 696.5 97.5 c 128,-1,59
 686 64 686 64 665.5 39.5 c 128,-1,60
 645 15 645 15 616 1.5 c 128,-1,61
 587 -12 587 -12 550 -12 c 0,44,45
614 634 m 1,62,63
 563 557 563 557 515 483 c 0,64,65
 494 451 494 451 472 417 c 128,-1,66
 450 383 450 383 428 349.5 c 128,-1,67
 406 316 406 316 385.5 284.5 c 128,-1,68
 365 253 365 253 348 227 c 0,69,70
 314 173 314 173 278 116.5 c 128,-1,71
 242 60 242 60 213 13 c 0,72,73
 179 -42 179 -42 146 -93 c 1,74,-1
 81 -66 l 1,75,-1
 76 -52 l 1,76,77
 111 0 111 0 147 55 c 0,78,79
 178 102 178 102 214.5 157.5 c 128,-1,80
 251 213 251 213 283 264 c 2,81,-1
 545 678 l 1,82,-1
 607 653 l 1,83,-1
 614 634 l 1,62,63
EndSplineSet
EndChar

StartChar: ampersand
Encoding: 38 38 15
Width: 720
GlyphClass: 1
Flags: W
LayerCount: 2
Fore
SplineSet
483 192 m 1,0,1
 496 229 496 229 496 267 c 0,2,3
 496 315 496 315 478.5 337.5 c 128,-1,4
 461 360 461 360 423 360 c 0,5,6
 412 360 412 360 403 359 c 128,-1,7
 394 358 394 358 386 356 c 0,8,9
 377 354 377 354 370 353 c 1,10,-1
 350 420 l 1,11,12
 357 424 357 424 368 428 c 0,13,14
 377 431 377 431 389.5 433.5 c 128,-1,15
 402 436 402 436 419 437 c 2,16,-1
 624 449 l 2,17,18
 669 453 669 453 687 455.5 c 128,-1,19
 705 458 705 458 706 460 c 1,20,-1
 720 437 l 1,21,-1
 702 387 l 2,22,23
 695 370 695 370 681 364.5 c 128,-1,24
 667 359 667 359 633 359 c 2,25,-1
 550 359 l 1,26,-1
 547 352 l 1,27,28
 577 319 577 319 577 270 c 0,29,30
 577 238 577 238 565 206.5 c 128,-1,31
 553 175 553 175 535 148 c 1,32,-1
 672 32 l 1,33,-1
 672 16 l 1,34,35
 654 2 654 2 636 -9 c 0,36,37
 621 -19 621 -19 605 -26.5 c 128,-1,38
 589 -34 589 -34 578 -34 c 0,39,40
 565 -34 565 -34 456 64 c 1,41,42
 411 28 411 28 361.5 8 c 128,-1,43
 312 -12 312 -12 266 -12 c 0,44,45
 160 -12 160 -12 100.5 34.5 c 128,-1,46
 41 81 41 81 41 163 c 0,47,48
 41 207 41 207 60.5 237 c 128,-1,49
 80 267 80 267 103 287 c 0,50,51
 130 310 130 310 165 325 c 1,52,-1
 165 334 l 1,53,54
 122 379 122 379 104 413.5 c 128,-1,55
 86 448 86 448 86 484 c 0,56,57
 86 522 86 522 102.5 553 c 128,-1,58
 119 584 119 584 148 606.5 c 128,-1,59
 177 629 177 629 218 641.5 c 128,-1,60
 259 654 259 654 309 654 c 0,61,62
 341 654 341 654 366 650.5 c 128,-1,63
 391 647 391 647 410 642 c 0,64,65
 431 637 431 637 449 631 c 1,66,-1
 451 614 l 1,67,-1
 403 523 l 1,68,-1
 385 522 l 1,69,70
 356 548 356 548 332.5 558 c 128,-1,71
 309 568 309 568 280 568 c 0,72,73
 245 568 245 568 224.5 550.5 c 128,-1,74
 204 533 204 533 204 502 c 0,75,76
 204 481 204 481 210.5 462 c 128,-1,77
 217 443 217 443 232 421.5 c 128,-1,78
 247 400 247 400 272.5 375 c 128,-1,79
 298 350 298 350 336 318 c 2,80,-1
 483 192 l 1,0,1
212 287 m 1,81,82
 186 270 186 270 171 243.5 c 128,-1,83
 156 217 156 217 156 188 c 0,84,85
 156 137 156 137 195 105.5 c 128,-1,86
 234 74 234 74 297 74 c 256,87,88
 360 74 360 74 409 106 c 1,89,-1
 212 287 l 1,81,82
EndSplineSet
Position2: "'cpsp' Capital Spacing in Latin lookup 0 subtable" dx=6 dy=0 dh=12 dv=0
EndChar

StartChar: quotesingle
Encoding: 39 39 16
Width: 176
GlyphClass: 1
Flags: W
LayerCount: 2
Fore
SplineSet
151 644 m 1,0,1
 147 612 147 612 141 576 c 0,2,3
 136 545 136 545 128.5 506.5 c 128,-1,4
 121 468 121 468 113 428 c 1,5,-1
 65 408 l 1,6,-1
 50 412 l 1,7,8
 51 455 51 455 50.5 496 c 128,-1,9
 50 537 50 537 48 569 c 0,10,11
 46 607 46 607 43 640 c 1,12,-1
 143 654 l 1,13,-1
 151 644 l 1,0,1
EndSplineSet
EndChar

StartChar: parenleft
Encoding: 40 40 17
Width: 309
GlyphClass: 1
Flags: W
LayerCount: 2
Fore
SplineSet
70 336 m 2,0,1
 70 427 70 427 97.5 487.5 c 128,-1,2
 125 548 125 548 159 584 c 0,3,4
 198 626 198 626 248 649 c 1,5,-1
 259 649 l 1,6,-1
 290 603 l 1,7,-1
 289 597 l 1,8,9
 258 579 258 579 234 546 c 0,10,11
 214 517 214 517 197 470 c 128,-1,12
 180 423 180 423 180 351 c 2,13,-1
 180 178 l 2,14,15
 180 99 180 99 197.5 47 c 128,-1,16
 215 -5 215 -5 237 -37 c 0,17,18
 262 -74 262 -74 294 -96 c 1,19,-1
 294 -104 l 1,20,-1
 253 -146 l 1,21,-1
 245 -146 l 1,22,23
 196 -123 196 -123 157 -82 c 0,24,25
 140 -64 140 -64 124.5 -40.5 c 128,-1,26
 109 -17 109 -17 97 13 c 128,-1,27
 85 43 85 43 77.5 80.5 c 128,-1,28
 70 118 70 118 70 163 c 2,29,-1
 70 336 l 2,0,1
EndSplineSet
EndChar

StartChar: parenright
Encoding: 41 41 18
Width: 309
GlyphClass: 1
Flags: W
LayerCount: 2
Fore
SplineSet
239 167 m 2,0,1
 239 121 239 121 231.5 83 c 128,-1,2
 224 45 224 45 211 14.5 c 128,-1,3
 198 -16 198 -16 182 -39.5 c 128,-1,4
 166 -63 166 -63 150 -81 c 0,5,6
 110 -123 110 -123 61 -146 c 1,7,-1
 50 -146 l 1,8,-1
 19 -100 l 1,9,-1
 20 -94 l 1,10,11
 50 -76 50 -76 74 -43 c 0,12,13
 94 -15 94 -15 111.5 32.5 c 128,-1,14
 129 80 129 80 129 152 c 2,15,-1
 129 325 l 2,16,17
 129 403 129 403 111 455.5 c 128,-1,18
 93 508 93 508 72 540 c 0,19,20
 46 577 46 577 15 599 c 1,21,-1
 15 607 l 1,22,-1
 56 649 l 1,23,-1
 64 649 l 1,24,25
 112 626 112 626 151 585 c 0,26,27
 167 567 167 567 183 543.5 c 128,-1,28
 199 520 199 520 211.5 490 c 128,-1,29
 224 460 224 460 231.5 422.5 c 128,-1,30
 239 385 239 385 239 340 c 2,31,-1
 239 167 l 2,0,1
EndSplineSet
EndChar

StartChar: asterisk
Encoding: 42 42 19
Width: 412
GlyphClass: 1
Flags: W
LayerCount: 2
Fore
SplineSet
62 673 m 1,0,1
 77 665 77 665 94 655 c 0,2,3
 108 646 108 646 126.5 634 c 128,-1,4
 145 622 145 622 165 607 c 1,5,-1
 157 566 l 1,6,-1
 150 560 l 1,7,8
 130 566 130 566 111 571.5 c 128,-1,9
 92 577 92 577 76 581 c 0,10,11
 58 585 58 585 41 590 c 1,12,13
 40 603 40 603 42 617 c 0,14,15
 44 642 44 642 53 670 c 1,16,-1
 62 673 l 1,0,1
62 469 m 1,17,18
 74 480 74 480 89 493 c 0,19,20
 102 504 102 504 119 518 c 128,-1,21
 136 532 136 532 157 546 c 1,22,-1
 193 526 l 1,23,-1
 196 518 l 1,24,25
 184 501 184 501 172.5 484.5 c 128,-1,26
 161 468 161 468 153 454 c 0,27,28
 143 438 143 438 135 423 c 1,29,30
 122 428 122 428 110 433 c 0,31,32
 99 438 99 438 86 444.5 c 128,-1,33
 73 451 73 451 62 459 c 1,34,-1
 62 469 l 1,17,18
256 406 m 1,35,36
 249 421 249 421 241 439 c 0,37,38
 234 454 234 454 226.5 475 c 128,-1,39
 219 496 219 496 212 520 c 1,40,-1
 242 549 l 1,41,-1
 252 549 l 1,42,43
 264 532 264 532 276 516 c 128,-1,44
 288 500 288 500 299 488 c 0,45,46
 310 473 310 473 322 461 c 1,47,48
 314 451 314 451 305 440 c 0,49,50
 297 431 297 431 287 421 c 128,-1,51
 277 411 277 411 266 403 c 1,52,-1
 256 406 l 1,35,36
376 571 m 1,53,54
 359 569 359 569 340 567 c 0,55,56
 323 565 323 565 301 564 c 128,-1,57
 279 563 279 563 254 564 c 1,58,-1
 236 601 l 1,59,-1
 239 611 l 1,60,61
 259 617 259 617 277.5 624 c 128,-1,62
 296 631 296 631 311 637 c 0,63,64
 329 644 329 644 344 651 c 1,65,66
 352 640 352 640 359 628 c 0,67,68
 365 617 365 617 371 604.5 c 128,-1,69
 377 592 377 592 382 579 c 1,70,-1
 376 571 l 1,53,54
257 736 m 1,71,72
 253 720 253 720 249 701 c 0,73,74
 245 684 245 684 239 662.5 c 128,-1,75
 233 641 233 641 225 618 c 1,76,-1
 183 613 l 1,77,-1
 176 617 l 1,78,79
 175 638 175 638 174.5 658 c 128,-1,80
 174 678 174 678 173 694 c 0,81,82
 172 712 172 712 170 730 c 1,83,84
 182 733 182 733 196 737 c 0,85,86
 207 739 207 739 221.5 741.5 c 128,-1,87
 236 744 236 744 250 744 c 1,88,-1
 257 736 l 1,71,72
EndSplineSet
EndChar

StartChar: plus
Encoding: 43 43 20
Width: 506
GlyphClass: 1
Flags: W
LayerCount: 2
Fore
SplineSet
305 490 m 1,0,1
 303 459 303 459 302 427 c 0,2,3
 301 400 301 400 300 367.5 c 128,-1,4
 299 335 299 335 299 306 c 1,5,6
 328 306 328 306 360.5 307 c 128,-1,7
 393 308 393 308 420 309 c 0,8,9
 452 310 452 310 482 312 c 1,10,-1
 489 300 l 1,11,-1
 479 208 l 1,12,-1
 299 207 l 1,13,-1
 299 93 l 2,14,15
 299 65 299 65 300 39 c 1,16,-1
 212 24 l 1,17,-1
 201 32 l 1,18,-1
 201 89 l 2,19,20
 201 114 201 114 201 145 c 128,-1,21
 201 176 201 176 202 207 c 1,22,23
 170 207 170 207 139 206.5 c 128,-1,24
 108 206 108 206 82 206 c 2,25,-1
 24 206 l 1,26,-1
 17 217 l 1,27,-1
 31 307 l 1,28,29
 57 306 57 306 86 306 c 2,30,-1
 202 306 l 1,31,-1
 203 486 l 1,32,-1
 292 497 l 1,33,-1
 305 490 l 1,0,1
EndSplineSet
EndChar

StartChar: comma
Encoding: 44 44 21
Width: 238
GlyphClass: 1
Flags: W
LayerCount: 2
Fore
SplineSet
48 108 m 1,0,1
 66 122 66 122 87 132 c 128,-1,2
 108 142 108 142 127 142 c 0,3,4
 156 142 156 142 175 118.5 c 128,-1,5
 194 95 194 95 194 53 c 0,6,7
 194 26 194 26 181.5 -1.5 c 128,-1,8
 169 -29 169 -29 148 -54 c 128,-1,9
 127 -79 127 -79 99 -101 c 128,-1,10
 71 -123 71 -123 41 -140 c 1,11,-1
 4 -110 l 1,12,-1
 4 -93 l 1,13,14
 36 -71 36 -71 56 -40 c 128,-1,15
 76 -9 76 -9 76 21 c 0,16,17
 76 41 76 41 67 60.5 c 128,-1,18
 58 80 58 80 45 94 c 1,19,-1
 48 108 l 1,0,1
EndSplineSet
EndChar

StartChar: hyphen
Encoding: 45 45 22
Width: 324
GlyphClass: 1
Flags: W
LayerCount: 2
Fore
SplineSet
289 300 m 1,0,-1
 281 220 l 1,1,-1
 44 194 l 1,2,-1
 35 206 l 1,3,-1
 42 284 l 1,4,-1
 206 303 l 2,5,6
 226 305 226 305 240.5 306.5 c 128,-1,7
 255 308 255 308 264 310 c 0,8,9
 275 312 275 312 280 313 c 1,10,-1
 289 300 l 1,0,-1
EndSplineSet
EndChar

StartChar: period
Encoding: 46 46 23
Width: 238
GlyphClass: 1
Flags: W
LayerCount: 2
Fore
SplineSet
116 -11 m 256,0,1
 78 -11 78 -11 59.5 10 c 128,-1,2
 41 31 41 31 41 65 c 0,3,4
 41 101 41 101 62.5 124 c 128,-1,5
 84 147 84 147 122 147 c 0,6,7
 158 147 158 147 177.5 126.5 c 128,-1,8
 197 106 197 106 197 72 c 0,9,10
 197 35 197 35 175.5 12 c 128,-1,11
 154 -11 154 -11 116 -11 c 256,0,1
EndSplineSet
EndChar

StartChar: slash
Encoding: 47 47 24
Width: 329
GlyphClass: 1
Flags: W
LayerCount: 2
Fore
SplineSet
319 660 m 1,0,1
 296 578 296 578 274 498 c 0,2,3
 265 464 265 464 254.5 427 c 128,-1,4
 244 390 244 390 234 353 c 128,-1,5
 224 316 224 316 214.5 280.5 c 128,-1,6
 205 245 205 245 197 215 c 0,7,8
 181 152 181 152 166 94.5 c 128,-1,9
 151 37 151 37 140 -9 c 0,10,11
 126 -63 126 -63 114 -110 c 1,12,-1
 29 -110 l 1,13,-1
 20 -99 l 1,14,15
 34 -49 34 -49 50 6 c 0,16,17
 64 53 64 53 79.5 111 c 128,-1,18
 95 169 95 169 110 226 c 2,19,-1
 225 675 l 1,20,-1
 306 675 l 1,21,-1
 319 660 l 1,0,1
EndSplineSet
Substitution2: "'frac' Diagonal Fractions in Latin lookup 5 subtable" fraction
EndChar

StartChar: zero
Encoding: 48 48 25
Width: 501
GlyphClass: 1
Flags: W
LayerCount: 2
Fore
SplineSet
239 -12 m 0,0,1
 139 -12 139 -12 82.5 54.5 c 128,-1,2
 26 121 26 121 26 237 c 0,3,4
 26 298 26 298 43 348.5 c 128,-1,5
 60 399 60 399 91.5 435 c 128,-1,6
 123 471 123 471 167 490.5 c 128,-1,7
 211 510 211 510 264 510 c 0,8,9
 313 510 313 510 352 493 c 128,-1,10
 391 476 391 476 418.5 444 c 128,-1,11
 446 412 446 412 460.5 366 c 128,-1,12
 475 320 475 320 475 263 c 0,13,14
 475 201 475 201 458 150.5 c 128,-1,15
 441 100 441 100 410 64 c 128,-1,16
 379 28 379 28 335.5 8 c 128,-1,17
 292 -12 292 -12 239 -12 c 0,0,1
255 119 m 0,18,19
 321 119 321 119 357.5 151 c 128,-1,20
 394 183 394 183 394 240 c 0,21,22
 394 302 394 302 354 338 c 128,-1,23
 314 374 314 374 244 374 c 0,24,25
 179 374 179 374 143 341.5 c 128,-1,26
 107 309 107 309 107 251 c 0,27,28
 107 191 107 191 146.5 155 c 128,-1,29
 186 119 186 119 255 119 c 0,18,19
EndSplineSet
Substitution2: "'tnum' Tabular Numbers in Latin lookup 10 subtable" zero.tosf
Substitution2: "'lnum' Lining Figures in Latin lookup 8 subtable" zero.lf
Substitution2: "'frac' Diagonal Fractions in Latin lookup 6 subtable" zero.numr
Substitution2: "'dnom' Denominators in Latin lookup 4 subtable" zero.dnom
Substitution2: "'numr' Numerators in Latin lookup 3 subtable" zero.numr
Substitution2: "'sups' Superscript in Latin lookup 2 subtable" uni2070
Substitution2: "'sinf' Scientific Inferiors in Latin lookup 1 subtable" uni2080
EndChar

StartChar: one
Encoding: 49 49 26
Width: 365
GlyphClass: 1
Flags: W
LayerCount: 2
Fore
SplineSet
256 402 m 0,0,1
 251 342 251 342 248.5 271.5 c 128,-1,2
 246 201 246 201 246 132 c 0,3,4
 246 95 246 95 255.5 80 c 128,-1,5
 265 65 265 65 290 65 c 0,6,7
 299 65 299 65 307.5 65 c 128,-1,8
 316 65 316 65 323 66 c 0,9,10
 331 67 331 67 339 68 c 1,11,-1
 341 63 l 1,12,-1
 330 -4 l 1,13,14
 303 -3 303 -3 277 -2 c 0,15,16
 254 -1 254 -1 230 -0.5 c 128,-1,17
 206 0 206 0 187 0 c 0,18,19
 163 0 163 0 136 -2 c 128,-1,20
 109 -4 109 -4 85.5 -6 c 128,-1,21
 62 -8 62 -8 46.5 -9.5 c 128,-1,22
 31 -11 31 -11 31 -11 c 1,23,-1
 39 52 l 1,24,25
 64 54 64 54 81.5 59.5 c 128,-1,26
 99 65 99 65 109 75.5 c 128,-1,27
 119 86 119 86 123.5 102.5 c 128,-1,28
 128 119 128 119 128 144 c 2,29,-1
 128 359 l 2,30,31
 128 395 128 395 116 405.5 c 128,-1,32
 104 416 104 416 77 416 c 0,33,34
 69 416 69 416 61 415 c 128,-1,35
 53 414 53 414 45 413 c 0,36,37
 36 412 36 412 27 411 c 1,38,-1
 21 418 l 1,39,-1
 27 475 l 1,40,41
 35 476 35 476 48.5 477.5 c 128,-1,42
 62 479 62 479 78 481 c 128,-1,43
 94 483 94 483 112 485 c 128,-1,44
 130 487 130 487 148 490 c 0,45,46
 221 500 221 500 251.5 505 c 128,-1,47
 282 510 282 510 284 510 c 2,48,-1
 294 480 l 1,49,50
 277 466 277 466 268.5 449.5 c 128,-1,51
 260 433 260 433 256 402 c 0,0,1
EndSplineSet
Substitution2: "'tnum' Tabular Numbers in Latin lookup 10 subtable" one.tosf
Substitution2: "'lnum' Lining Figures in Latin lookup 8 subtable" one.lf
Substitution2: "'frac' Diagonal Fractions in Latin lookup 6 subtable" one.numr
Substitution2: "'dnom' Denominators in Latin lookup 4 subtable" one.dnom
Substitution2: "'numr' Numerators in Latin lookup 3 subtable" one.numr
Substitution2: "'sups' Superscript in Latin lookup 2 subtable" pi
Substitution2: "'sinf' Scientific Inferiors in Latin lookup 1 subtable" uni2081
EndChar

StartChar: two
Encoding: 50 50 27
Width: 484
GlyphClass: 1
Flags: W
LayerCount: 2
Fore
SplineSet
46 36 m 1,0,-1
 121 119 l 2,1,2
 161 165 161 165 189.5 201.5 c 128,-1,3
 218 238 218 238 235.5 266 c 128,-1,4
 253 294 253 294 261 315.5 c 128,-1,5
 269 337 269 337 269 355 c 0,6,7
 269 416 269 416 207 416 c 0,8,9
 178 416 178 416 148 395.5 c 128,-1,10
 118 375 118 375 95 339 c 1,11,-1
 81 339 l 1,12,-1
 64 413 l 1,13,14
 102 464 102 464 153.5 493 c 128,-1,15
 205 522 205 522 259 522 c 0,16,17
 329 522 329 522 372 486.5 c 128,-1,18
 415 451 415 451 415 393 c 0,19,20
 415 369 415 369 406.5 344.5 c 128,-1,21
 398 320 398 320 376.5 288.5 c 128,-1,22
 355 257 355 257 319 214.5 c 128,-1,23
 283 172 283 172 228 113 c 1,24,-1
 232 105 l 1,25,-1
 328 105 l 2,26,27
 352 105 352 105 368 109 c 128,-1,28
 384 113 384 113 395 123.5 c 128,-1,29
 406 134 406 134 412.5 151.5 c 128,-1,30
 419 169 419 169 424 196 c 1,31,-1
 500 203 l 1,32,33
 494 172 494 172 489 139 c 0,34,35
 484 111 484 111 479 78 c 128,-1,36
 474 45 474 45 472 15 c 1,37,-1
 458 3 l 1,38,39
 387 5 387 5 323 7 c 0,40,41
 296 8 296 8 267 8.5 c 128,-1,42
 238 9 238 9 211 10 c 128,-1,43
 184 11 184 11 160 11.5 c 128,-1,44
 136 12 136 12 118 12 c 2,45,-1
 54 3 l 1,46,-1
 46 36 l 1,0,-1
EndSplineSet
Substitution2: "'tnum' Tabular Numbers in Latin lookup 10 subtable" two.tosf
Substitution2: "'lnum' Lining Figures in Latin lookup 8 subtable" two.lf
Substitution2: "'frac' Diagonal Fractions in Latin lookup 6 subtable" two.numr
Substitution2: "'dnom' Denominators in Latin lookup 4 subtable" two.dnom
Substitution2: "'numr' Numerators in Latin lookup 3 subtable" two.numr
Substitution2: "'sups' Superscript in Latin lookup 2 subtable" lessequal
Substitution2: "'sinf' Scientific Inferiors in Latin lookup 1 subtable" uni2082
EndChar

StartChar: three
Encoding: 51 51 28
Width: 431
GlyphClass: 1
Flags: W
LayerCount: 2
Fore
SplineSet
64 68 m 1,0,1
 102 55 102 55 148 55 c 0,2,3
 180 55 180 55 207 62 c 128,-1,4
 234 69 234 69 253 82 c 128,-1,5
 272 95 272 95 283 112 c 128,-1,6
 294 129 294 129 294 150 c 0,7,8
 294 192 294 192 259 211 c 128,-1,9
 224 230 224 230 146 230 c 1,10,-1
 138 240 l 1,11,-1
 130 302 l 1,12,-1
 196 316 l 1,13,14
 230 331 230 331 250 357 c 128,-1,15
 270 383 270 383 270 412 c 0,16,17
 270 436 270 436 253 451 c 128,-1,18
 236 466 236 466 210 466 c 256,19,20
 184 466 184 466 155 453 c 128,-1,21
 126 440 126 440 100 417 c 0,22,23
 96 417 96 417 93 416.5 c 128,-1,24
 90 416 90 416 88 416 c 2,25,-1
 66 487 l 1,26,27
 76 495 76 495 97 508 c 128,-1,28
 118 521 118 521 144 533 c 128,-1,29
 170 545 170 545 198 553.5 c 128,-1,30
 226 562 226 562 252 562 c 0,31,32
 320 562 320 562 360 530.5 c 128,-1,33
 400 499 400 499 400 445 c 0,34,35
 400 403 400 403 371 366.5 c 128,-1,36
 342 330 342 330 290 309 c 1,37,-1
 290 301 l 1,38,39
 430 264 430 264 430 169 c 0,40,41
 430 130 430 130 403 91 c 128,-1,42
 376 52 376 52 334 21 c 128,-1,43
 292 -10 292 -10 238 -29 c 128,-1,44
 184 -48 184 -48 130 -48 c 0,45,46
 88 -48 88 -48 71 -25 c 128,-1,47
 54 -2 54 -2 50 54 c 1,48,-1
 64 68 l 1,0,1
EndSplineSet
Substitution2: "'tnum' Tabular Numbers in Latin lookup 10 subtable" three.tosf
Substitution2: "'lnum' Lining Figures in Latin lookup 8 subtable" three.lf
Substitution2: "'frac' Diagonal Fractions in Latin lookup 6 subtable" three.numr
Substitution2: "'dnom' Denominators in Latin lookup 4 subtable" three.dnom
Substitution2: "'numr' Numerators in Latin lookup 3 subtable" three.numr
Substitution2: "'sups' Superscript in Latin lookup 2 subtable" greaterequal
Substitution2: "'sinf' Scientific Inferiors in Latin lookup 1 subtable" uni2083
EndChar

StartChar: four
Encoding: 52 52 29
Width: 468
GlyphClass: 1
Flags: W
LayerCount: 2
Fore
SplineSet
-2 188 m 1,0,-1
 263 556 l 2,1,2
 265 556 265 556 266.5 557 c 128,-1,3
 268 558 268 558 269 558 c 2,4,-1
 353 547 l 1,5,-1
 353 205 l 1,6,-1
 435 205 l 1,7,-1
 443 194 l 1,8,-1
 434 111 l 1,9,10
 424 111 424 111 412 112 c 0,11,12
 401 112 401 112 386.5 112.5 c 128,-1,13
 372 113 372 113 354 114 c 1,14,15
 354 86 354 86 355 60 c 128,-1,16
 356 34 356 34 357 14 c 0,17,18
 358 -10 358 -10 360 -31 c 1,19,-1
 352 -40 l 1,20,-1
 237 -52 l 1,21,-1
 229 -42 l 1,22,23
 230 -17 230 -17 231 10 c 0,24,25
 232 33 232 33 233 61.5 c 128,-1,26
 234 90 234 90 235 117 c 1,27,28
 175 119 175 119 112 120 c 128,-1,29
 49 121 49 121 -5 121 c 1,30,-1
 -2 188 l 1,0,-1
100 205 m 1,31,-1
 235 205 l 1,32,-1
 235 383 l 1,33,-1
 225 383 l 1,34,-1
 100 205 l 1,31,-1
EndSplineSet
Substitution2: "'tnum' Tabular Numbers in Latin lookup 10 subtable" four.tosf
Substitution2: "'lnum' Lining Figures in Latin lookup 8 subtable" four.lf
Substitution2: "'frac' Diagonal Fractions in Latin lookup 6 subtable" four.numr
Substitution2: "'dnom' Denominators in Latin lookup 4 subtable" four.dnom
Substitution2: "'numr' Numerators in Latin lookup 3 subtable" four.numr
Substitution2: "'sups' Superscript in Latin lookup 2 subtable" uni2074
Substitution2: "'sinf' Scientific Inferiors in Latin lookup 1 subtable" uni2084
EndChar

StartChar: five
Encoding: 53 53 30
Width: 427
GlyphClass: 1
Flags: W
LayerCount: 2
Fore
SplineSet
404 177 m 0,0,1
 404 132 404 132 377 90.5 c 128,-1,2
 350 49 350 49 306.5 17 c 128,-1,3
 263 -15 263 -15 209 -34 c 128,-1,4
 155 -53 155 -53 102 -53 c 0,5,6
 82 -53 82 -53 68 -48 c 128,-1,7
 54 -43 54 -43 44.5 -31 c 128,-1,8
 35 -19 35 -19 29.5 0.5 c 128,-1,9
 24 20 24 20 22 49 c 1,10,-1
 35 63 l 1,11,12
 55 56 55 56 77 53 c 128,-1,13
 99 50 99 50 121 50 c 0,14,15
 153 50 153 50 180.5 57 c 128,-1,16
 208 64 208 64 228.5 76.5 c 128,-1,17
 249 89 249 89 260.5 107 c 128,-1,18
 272 125 272 125 272 146 c 0,19,20
 272 165 272 165 262.5 180.5 c 128,-1,21
 253 196 253 196 230.5 207.5 c 128,-1,22
 208 219 208 219 172 228 c 128,-1,23
 136 237 136 237 83 245 c 1,24,-1
 74 256 l 1,25,26
 79 305 79 305 83 353.5 c 128,-1,27
 87 402 87 402 89 440 c 0,28,29
 92 485 92 485 94 526 c 1,30,-1
 102 534 l 1,31,-1
 295 541 l 2,32,33
 324 543 324 543 337 550.5 c 128,-1,34
 350 558 350 558 358 581 c 1,35,-1
 413 585 l 1,36,-1
 387 438 l 1,37,-1
 374 425 l 1,38,39
 347 427 347 427 315 429 c 0,40,41
 288 431 288 431 252 432 c 128,-1,42
 216 433 216 433 175 433 c 1,43,-1
 167 344 l 1,44,45
 224 333 224 333 268 318.5 c 128,-1,46
 312 304 312 304 342 284 c 128,-1,47
 372 264 372 264 388 238 c 128,-1,48
 404 212 404 212 404 177 c 0,0,1
EndSplineSet
Substitution2: "'tnum' Tabular Numbers in Latin lookup 10 subtable" five.tosf
Substitution2: "'lnum' Lining Figures in Latin lookup 8 subtable" five.lf
Substitution2: "'frac' Diagonal Fractions in Latin lookup 6 subtable" five.numr
Substitution2: "'dnom' Denominators in Latin lookup 4 subtable" five.dnom
Substitution2: "'numr' Numerators in Latin lookup 3 subtable" five.numr
Substitution2: "'sups' Superscript in Latin lookup 2 subtable" uni2075
Substitution2: "'sinf' Scientific Inferiors in Latin lookup 1 subtable" uni2085
EndChar

StartChar: six
Encoding: 54 54 31
Width: 464
GlyphClass: 1
Flags: W
LayerCount: 2
Fore
SplineSet
405 538 m 1,0,1
 358 519 358 519 315 490 c 0,2,3
 278 465 278 465 240.5 426 c 128,-1,4
 203 387 203 387 180 330 c 1,5,-1
 185 324 l 2,6,7
 188 325 188 325 198.5 330.5 c 128,-1,8
 209 336 209 336 222 342 c 128,-1,9
 235 348 235 348 248 353.5 c 128,-1,10
 261 359 261 359 270 361 c 0,11,12
 310 361 310 361 341.5 347 c 128,-1,13
 373 333 373 333 395 310 c 128,-1,14
 417 287 417 287 428 256 c 128,-1,15
 439 225 439 225 439 191 c 0,16,17
 439 147 439 147 423.5 109.5 c 128,-1,18
 408 72 408 72 380 45 c 128,-1,19
 352 18 352 18 311.5 3 c 128,-1,20
 271 -12 271 -12 222 -12 c 0,21,22
 177 -12 177 -12 141.5 4 c 128,-1,23
 106 20 106 20 80.5 48.5 c 128,-1,24
 55 77 55 77 41.5 116.5 c 128,-1,25
 28 156 28 156 28 204 c 0,26,27
 28 261 28 261 43 307.5 c 128,-1,28
 58 354 58 354 82 392.5 c 128,-1,29
 106 431 106 431 137 461 c 128,-1,30
 168 491 168 491 201 514 c 0,31,32
 278 568 278 568 375 598 c 1,33,-1
 385 593 l 1,34,-1
 405 538 l 1,0,1
232 273 m 0,35,36
 206 273 206 273 184.5 263 c 128,-1,37
 163 253 163 253 152 245 c 1,38,39
 151 234 151 234 150.5 224 c 128,-1,40
 150 214 150 214 150 203 c 0,41,42
 150 140 150 140 173.5 104.5 c 128,-1,43
 197 69 197 69 240 69 c 0,44,45
 278 69 278 69 299 93.5 c 128,-1,46
 320 118 320 118 320 166 c 0,47,48
 320 212 320 212 296.5 242.5 c 128,-1,49
 273 273 273 273 232 273 c 0,35,36
EndSplineSet
Substitution2: "'tnum' Tabular Numbers in Latin lookup 10 subtable" six.tosf
Substitution2: "'lnum' Lining Figures in Latin lookup 8 subtable" six.lf
Substitution2: "'frac' Diagonal Fractions in Latin lookup 6 subtable" six.numr
Substitution2: "'dnom' Denominators in Latin lookup 4 subtable" six.dnom
Substitution2: "'numr' Numerators in Latin lookup 3 subtable" six.numr
Substitution2: "'sups' Superscript in Latin lookup 2 subtable" uni2076
Substitution2: "'sinf' Scientific Inferiors in Latin lookup 1 subtable" uni2086
EndChar

StartChar: seven
Encoding: 55 55 32
Width: 427
GlyphClass: 1
Flags: W
LayerCount: 2
Fore
SplineSet
236 -33 m 1,0,-1
 145 -6 l 1,1,-1
 134 19 l 1,2,-1
 362 461 l 1,3,-1
 228 453 l 2,4,5
 203 452 203 452 186 446 c 0,6,7
 170 442 170 442 161 432.5 c 128,-1,8
 152 423 152 423 146.5 406.5 c 128,-1,9
 141 390 141 390 137 365 c 1,10,-1
 77 359 l 1,11,12
 81 392 81 392 85 427 c 0,13,14
 88 457 88 457 91 493 c 128,-1,15
 94 529 94 529 96 564 c 1,16,-1
 102 569 l 1,17,18
 120 568 120 568 140 567 c 0,19,20
 157 566 157 566 179 565.5 c 128,-1,21
 201 565 201 565 224 565 c 2,22,-1
 441 565 l 1,23,-1
 480 517 l 1,24,25
 443 441 443 441 415 380 c 128,-1,26
 387 319 387 319 364 267 c 128,-1,27
 341 215 341 215 321.5 170 c 128,-1,28
 302 125 302 125 284 80 c 1,29,-1
 253 -33 l 1,30,-1
 236 -33 l 1,0,-1
EndSplineSet
Substitution2: "'tnum' Tabular Numbers in Latin lookup 10 subtable" seven.tosf
Substitution2: "'lnum' Lining Figures in Latin lookup 8 subtable" seven.lf
Substitution2: "'frac' Diagonal Fractions in Latin lookup 6 subtable" seven.numr
Substitution2: "'dnom' Denominators in Latin lookup 4 subtable" seven.dnom
Substitution2: "'numr' Numerators in Latin lookup 3 subtable" seven.numr
Substitution2: "'sups' Superscript in Latin lookup 2 subtable" uni2077
Substitution2: "'sinf' Scientific Inferiors in Latin lookup 1 subtable" uni2087
EndChar

StartChar: eight
Encoding: 56 56 33
Width: 479
GlyphClass: 1
Flags: W
LayerCount: 2
Fore
SplineSet
42 108 m 0,0,1
 42 139 42 139 53 163.5 c 128,-1,2
 64 188 64 188 81 206 c 128,-1,3
 98 224 98 224 117.5 236 c 128,-1,4
 137 248 137 248 154 256 c 1,5,6
 134 268 134 268 116 283 c 128,-1,7
 98 298 98 298 84.5 316 c 128,-1,8
 71 334 71 334 63 356.5 c 128,-1,9
 55 379 55 379 55 407 c 0,10,11
 55 441 55 441 70 471.5 c 128,-1,12
 85 502 85 502 112 525.5 c 128,-1,13
 139 549 139 549 175.5 562.5 c 128,-1,14
 212 576 212 576 256 576 c 0,15,16
 290 576 290 576 321.5 566 c 128,-1,17
 353 556 353 556 377 538 c 128,-1,18
 401 520 401 520 415 494 c 128,-1,19
 429 468 429 468 429 436 c 0,20,21
 429 409 429 409 420.5 387.5 c 128,-1,22
 412 366 412 366 399 349.5 c 128,-1,23
 386 333 386 333 370 321 c 128,-1,24
 354 309 354 309 339 301 c 1,25,26
 360 289 360 289 378.5 275 c 128,-1,27
 397 261 397 261 411.5 243 c 128,-1,28
 426 225 426 225 434.5 202.5 c 128,-1,29
 443 180 443 180 443 152 c 0,30,31
 443 113 443 113 426.5 79 c 128,-1,32
 410 45 410 45 381.5 20 c 128,-1,33
 353 -5 353 -5 313.5 -19.5 c 128,-1,34
 274 -34 274 -34 228 -34 c 0,35,36
 189 -34 189 -34 155.5 -24 c 128,-1,37
 122 -14 122 -14 96.5 4.5 c 128,-1,38
 71 23 71 23 56.5 49 c 128,-1,39
 42 75 42 75 42 108 c 0,0,1
245 40 m 0,40,41
 280 40 280 40 304 61.5 c 128,-1,42
 328 83 328 83 328 118 c 0,43,44
 328 137 328 137 318 152 c 128,-1,45
 308 167 308 167 291.5 179 c 128,-1,46
 275 191 275 191 253 202 c 128,-1,47
 231 213 231 213 208 225 c 1,48,49
 199 220 199 220 189 212 c 128,-1,50
 179 204 179 204 170.5 193 c 128,-1,51
 162 182 162 182 156.5 167.5 c 128,-1,52
 151 153 151 153 151 134 c 256,53,54
 151 115 151 115 158 98 c 128,-1,55
 165 81 165 81 177.5 68 c 128,-1,56
 190 55 190 55 207 47.5 c 128,-1,57
 224 40 224 40 245 40 c 0,40,41
172 431 m 0,58,59
 172 413 172 413 180.5 399 c 128,-1,60
 189 385 189 385 204 373.5 c 128,-1,61
 219 362 219 362 238.5 351.5 c 128,-1,62
 258 341 258 341 279 331 c 1,63,64
 293 342 293 342 305.5 361.5 c 128,-1,65
 318 381 318 381 318 413 c 0,66,67
 318 454 318 454 296.5 475.5 c 128,-1,68
 275 497 275 497 242 497 c 0,69,70
 210 497 210 497 191 477.5 c 128,-1,71
 172 458 172 458 172 431 c 0,58,59
EndSplineSet
Substitution2: "'tnum' Tabular Numbers in Latin lookup 10 subtable" eight.tosf
Substitution2: "'lnum' Lining Figures in Latin lookup 8 subtable" eight.lf
Substitution2: "'frac' Diagonal Fractions in Latin lookup 6 subtable" eight.numr
Substitution2: "'dnom' Denominators in Latin lookup 4 subtable" eight.dnom
Substitution2: "'numr' Numerators in Latin lookup 3 subtable" eight.numr
Substitution2: "'sups' Superscript in Latin lookup 2 subtable" uni2078
Substitution2: "'sinf' Scientific Inferiors in Latin lookup 1 subtable" uni2088
EndChar

StartChar: nine
Encoding: 57 57 34
Width: 464
GlyphClass: 1
Flags: W
LayerCount: 2
Fore
SplineSet
83 18 m 1,0,1
 130 36 130 36 172 65 c 0,2,3
 208 90 208 90 246 129 c 128,-1,4
 284 168 284 168 307 225 c 1,5,-1
 303 232 l 2,6,7
 300 231 300 231 289.5 225.5 c 128,-1,8
 279 220 279 220 266 213.5 c 128,-1,9
 253 207 253 207 239.5 201.5 c 128,-1,10
 226 196 226 196 217 195 c 0,11,12
 176 195 176 195 145 208.5 c 128,-1,13
 114 222 114 222 92 245.5 c 128,-1,14
 70 269 70 269 59 299.5 c 128,-1,15
 48 330 48 330 48 365 c 0,16,17
 48 409 48 409 63.5 446.5 c 128,-1,18
 79 484 79 484 107.5 511 c 128,-1,19
 136 538 136 538 176 553 c 128,-1,20
 216 568 216 568 265 568 c 0,21,22
 310 568 310 568 346 552 c 128,-1,23
 382 536 382 536 407.5 507.5 c 128,-1,24
 433 479 433 479 446.5 439.5 c 128,-1,25
 460 400 460 400 460 352 c 0,26,27
 460 295 460 295 445 248 c 128,-1,28
 430 201 430 201 405.5 162.5 c 128,-1,29
 381 124 381 124 350 94 c 128,-1,30
 319 64 319 64 286 41 c 0,31,32
 209 -13 209 -13 113 -43 c 1,33,-1
 103 -37 l 1,34,-1
 83 18 l 1,0,1
255 283 m 0,35,36
 281 283 281 283 302.5 293 c 128,-1,37
 324 303 324 303 335 310 c 1,38,39
 338 331 338 331 338 353 c 0,40,41
 338 416 338 416 314 451.5 c 128,-1,42
 290 487 290 487 248 487 c 0,43,44
 210 487 210 487 189 462.5 c 128,-1,45
 168 438 168 438 168 390 c 256,46,47
 168 342 168 342 191 312.5 c 128,-1,48
 214 283 214 283 255 283 c 0,35,36
EndSplineSet
Substitution2: "'tnum' Tabular Numbers in Latin lookup 10 subtable" nine.tosf
Substitution2: "'lnum' Lining Figures in Latin lookup 8 subtable" nine.lf
Substitution2: "'frac' Diagonal Fractions in Latin lookup 6 subtable" nine.numr
Substitution2: "'dnom' Denominators in Latin lookup 4 subtable" nine.dnom
Substitution2: "'numr' Numerators in Latin lookup 3 subtable" nine.numr
Substitution2: "'sups' Superscript in Latin lookup 2 subtable" uni2079
Substitution2: "'sinf' Scientific Inferiors in Latin lookup 1 subtable" uni2089
EndChar

StartChar: colon
Encoding: 58 58 35
Width: 238
GlyphClass: 1
Flags: W
LayerCount: 2
Fore
SplineSet
114 -11 m 256,0,1
 76 -11 76 -11 57.5 10 c 128,-1,2
 39 31 39 31 39 65 c 0,3,4
 39 101 39 101 60.5 124 c 128,-1,5
 82 147 82 147 120 147 c 0,6,7
 156 147 156 147 175.5 126.5 c 128,-1,8
 195 106 195 106 195 72 c 0,9,10
 195 35 195 35 173.5 12 c 128,-1,11
 152 -11 152 -11 114 -11 c 256,0,1
114 262 m 256,12,13
 76 262 76 262 57.5 283 c 128,-1,14
 39 304 39 304 39 338 c 0,15,16
 39 374 39 374 60.5 397 c 128,-1,17
 82 420 82 420 120 420 c 0,18,19
 156 420 156 420 175.5 399.5 c 128,-1,20
 195 379 195 379 195 345 c 0,21,22
 195 308 195 308 173.5 285 c 128,-1,23
 152 262 152 262 114 262 c 256,12,13
EndSplineSet
EndChar

StartChar: semicolon
Encoding: 59 59 36
Width: 238
GlyphClass: 1
Flags: W
LayerCount: 2
Fore
SplineSet
48 108 m 1,0,1
 66 122 66 122 87 132 c 128,-1,2
 108 142 108 142 127 142 c 0,3,4
 156 142 156 142 175 118.5 c 128,-1,5
 194 95 194 95 194 53 c 0,6,7
 194 26 194 26 181.5 -1.5 c 128,-1,8
 169 -29 169 -29 148 -54 c 128,-1,9
 127 -79 127 -79 99 -101 c 128,-1,10
 71 -123 71 -123 41 -140 c 1,11,-1
 4 -110 l 1,12,-1
 4 -93 l 1,13,14
 36 -71 36 -71 56 -40 c 128,-1,15
 76 -9 76 -9 76 21 c 0,16,17
 76 41 76 41 67 60.5 c 128,-1,18
 58 80 58 80 45 94 c 1,19,-1
 48 108 l 1,0,1
114 262 m 256,20,21
 76 262 76 262 57.5 283 c 128,-1,22
 39 304 39 304 39 338 c 0,23,24
 39 374 39 374 60.5 397 c 128,-1,25
 82 420 82 420 120 420 c 0,26,27
 156 420 156 420 175.5 399.5 c 128,-1,28
 195 379 195 379 195 345 c 0,29,30
 195 308 195 308 173.5 285 c 128,-1,31
 152 262 152 262 114 262 c 256,20,21
EndSplineSet
EndChar

StartChar: less
Encoding: 60 60 37
Width: 470
GlyphClass: 1
Flags: W
LayerCount: 2
Fore
SplineSet
28 226 m 1,0,-1
 29 323 l 1,1,-1
 220 405 l 2,2,3
 252 419 252 419 283 432 c 128,-1,4
 314 445 314 445 340 456 c 0,5,6
 370 468 370 468 397 481 c 1,7,-1
 410 473 l 1,8,-1
 430 397 l 1,9,10
 400 386 400 386 369 374 c 0,11,12
 343 363 343 363 311 350.5 c 128,-1,13
 279 338 279 338 250 326 c 2,14,-1
 127 276 l 1,15,-1
 127 269 l 1,16,-1
 263 209 l 2,17,18
 292 196 292 196 321.5 183.5 c 128,-1,19
 351 171 351 171 374 160 c 0,20,21
 401 148 401 148 427 137 c 1,22,-1
 431 122 l 1,23,-1
 389 57 l 1,24,25
 363 69 363 69 336 81 c 0,26,27
 313 92 313 92 283.5 104.5 c 128,-1,28
 254 117 254 117 225 131 c 0,29,30
 199 142 199 142 166 156.5 c 128,-1,31
 133 171 133 171 104 184 c 0,32,33
 70 199 70 199 36 213 c 1,34,-1
 28 226 l 1,0,-1
EndSplineSet
EndChar

StartChar: equal
Encoding: 61 61 38
Width: 506
GlyphClass: 1
Flags: W
LayerCount: 2
Fore
SplineSet
489 212 m 1,0,-1
 479 120 l 1,1,-1
 252 119 l 2,2,3
 218 119 218 119 178.5 118.5 c 128,-1,4
 139 118 139 118 104 118 c 2,5,-1
 24 118 l 1,6,-1
 17 129 l 1,7,-1
 31 219 l 1,8,9
 74 218 74 218 115 218 c 2,10,-1
 265 218 l 2,11,12
 295 218 295 218 332.5 218.5 c 128,-1,13
 370 219 370 219 403 221 c 0,14,15
 442 222 442 222 482 224 c 1,16,-1
 489 212 l 1,0,-1
489 390 m 1,17,-1
 479 298 l 1,18,-1
 252 297 l 2,19,20
 218 297 218 297 178.5 296.5 c 128,-1,21
 139 296 139 296 104 296 c 2,22,-1
 24 296 l 1,23,-1
 17 307 l 1,24,-1
 31 397 l 1,25,26
 74 396 74 396 115 396 c 2,27,-1
 265 396 l 2,28,29
 295 396 295 396 332.5 396.5 c 128,-1,30
 370 397 370 397 403 399 c 0,31,32
 442 400 442 400 482 402 c 1,33,-1
 489 390 l 1,17,-1
EndSplineSet
EndChar

StartChar: greater
Encoding: 62 62 39
Width: 470
GlyphClass: 1
Flags: W
LayerCount: 2
Fore
SplineSet
442 312 m 1,0,-1
 441 214 l 1,1,-1
 250 132 l 2,2,3
 218 118 218 118 187 105 c 128,-1,4
 156 92 156 92 130 81 c 0,5,6
 100 69 100 69 73 57 c 1,7,-1
 60 64 l 1,8,-1
 40 141 l 1,9,10
 70 153 70 153 101 164 c 0,11,12
 127 174 127 174 159 186 c 128,-1,13
 191 198 191 198 220 211 c 2,14,-1
 343 261 l 1,15,-1
 343 268 l 1,16,-1
 207 328 l 2,17,18
 178 341 178 341 148.5 353.5 c 128,-1,19
 119 366 119 366 96 377 c 0,20,21
 69 389 69 389 43 400 c 1,22,-1
 39 416 l 1,23,-1
 81 481 l 1,24,25
 107 469 107 469 134 457 c 0,26,27
 157 446 157 446 186.5 432.5 c 128,-1,28
 216 419 216 419 245 406 c 2,29,-1
 434 325 l 1,30,-1
 442 312 l 1,0,-1
EndSplineSet
EndChar

StartChar: question
Encoding: 63 63 40
Width: 370
GlyphClass: 1
Flags: W
LayerCount: 2
Fore
SplineSet
77 347 m 1,0,-1
 80 361 l 1,1,-1
 188 424 l 2,2,3
 211 438 211 438 225.5 455.5 c 128,-1,4
 240 473 240 473 240 496 c 0,5,6
 240 544 240 544 191 569.5 c 128,-1,7
 142 595 142 595 57 600 c 1,8,-1
 49 614 l 1,9,-1
 86 698 l 1,10,-1
 101 705 l 1,11,12
 156 703 156 703 203 689.5 c 128,-1,13
 250 676 250 676 285 652.5 c 128,-1,14
 320 629 320 629 340 598 c 128,-1,15
 360 567 360 567 360 531 c 0,16,17
 360 497 360 497 348.5 471.5 c 128,-1,18
 337 446 337 446 316 424.5 c 128,-1,19
 295 403 295 403 264.5 381.5 c 128,-1,20
 234 360 234 360 195 334 c 1,21,-1
 192 327 l 1,22,-1
 207 244 l 1,23,-1
 201 233 l 1,24,-1
 113 215 l 1,25,-1
 101 221 l 1,26,-1
 77 347 l 1,0,-1
152 -11 m 0,27,28
 115 -11 115 -11 96 10 c 128,-1,29
 77 31 77 31 77 65 c 0,30,31
 77 101 77 101 99 124 c 128,-1,32
 121 147 121 147 159 147 c 0,33,34
 194 147 194 147 213.5 126.5 c 128,-1,35
 233 106 233 106 233 72 c 0,36,37
 233 35 233 35 211.5 12 c 128,-1,38
 190 -11 190 -11 152 -11 c 0,27,28
EndSplineSet
EndChar

StartChar: at
Encoding: 64 64 41
Width: 863
GlyphClass: 1
Flags: W
LayerCount: 2
Fore
SplineSet
493 -12 m 0,0,1
 472 -12 472 -12 460.5 -1 c 128,-1,2
 449 10 449 10 449 29 c 0,3,4
 449 35 449 35 453 55.5 c 128,-1,5
 457 76 457 76 462 101 c 128,-1,6
 467 126 467 126 473 151.5 c 128,-1,7
 479 177 479 177 483 193 c 1,8,-1
 475 194 l 1,9,10
 429 111 429 111 390.5 63 c 128,-1,11
 352 15 352 15 314 -12 c 1,12,13
 258 -12 258 -12 228.5 27.5 c 128,-1,14
 199 67 199 67 199 134 c 0,15,16
 199 195 199 195 220.5 255 c 128,-1,17
 242 315 242 315 276.5 361.5 c 128,-1,18
 311 408 311 408 354 437 c 128,-1,19
 397 466 397 466 440 466 c 1,20,-1
 527 448 l 1,21,-1
 534 470 l 1,22,-1
 546 477 l 1,23,-1
 626 463 l 1,24,-1
 634 446 l 1,25,26
 618 386 618 386 604 324 c 0,27,28
 592 270 592 270 579 207 c 128,-1,29
 566 144 566 144 557 84 c 1,30,-1
 563 78 l 1,31,32
 608 78 608 78 643 94 c 128,-1,33
 678 110 678 110 702.5 138.5 c 128,-1,34
 727 167 727 167 739.5 207 c 128,-1,35
 752 247 752 247 752 294 c 0,36,37
 752 357 752 357 731 407 c 128,-1,38
 710 457 710 457 671 491.5 c 128,-1,39
 632 526 632 526 577 544 c 128,-1,40
 522 562 522 562 453 562 c 0,41,42
 377 562 377 562 314.5 534 c 128,-1,43
 252 506 252 506 207 457.5 c 128,-1,44
 162 409 162 409 137.5 344 c 128,-1,45
 113 279 113 279 113 205 c 0,46,47
 113 126 113 126 136.5 60.5 c 128,-1,48
 160 -5 160 -5 207 -52.5 c 128,-1,49
 254 -100 254 -100 325.5 -127.5 c 128,-1,50
 397 -155 397 -155 493 -158 c 0,51,52
 493 -162 493 -162 492.5 -166 c 128,-1,53
 492 -170 492 -170 492 -174 c 2,54,-1
 461 -224 l 1,55,56
 356 -222 356 -222 275 -191 c 128,-1,57
 194 -160 194 -160 138 -107 c 128,-1,58
 82 -54 82 -54 53 19 c 128,-1,59
 24 92 24 92 24 179 c 0,60,61
 24 270 24 270 59 353.5 c 128,-1,62
 94 437 94 437 155 501 c 128,-1,63
 216 565 216 565 299.5 603.5 c 128,-1,64
 383 642 383 642 481 642 c 0,65,66
 562 642 562 642 628.5 619 c 128,-1,67
 695 596 695 596 741.5 554 c 128,-1,68
 788 512 788 512 813.5 454 c 128,-1,69
 839 396 839 396 839 326 c 0,70,71
 839 255 839 255 816 193 c 128,-1,72
 793 131 793 131 748.5 85.5 c 128,-1,73
 704 40 704 40 639.5 14 c 128,-1,74
 575 -12 575 -12 493 -12 c 0,0,1
346 105 m 256,75,76
 356 105 356 105 374 125 c 128,-1,77
 392 145 392 145 413 179.5 c 128,-1,78
 434 214 434 214 456 260 c 128,-1,79
 478 306 478 306 498 358 c 1,80,81
 495 359 495 359 486.5 364 c 128,-1,82
 478 369 478 369 466 374 c 128,-1,83
 454 379 454 379 439.5 383 c 128,-1,84
 425 387 425 387 410 387 c 0,85,86
 394 387 394 387 378.5 370 c 128,-1,87
 363 353 363 353 351 325.5 c 128,-1,88
 339 298 339 298 331.5 262 c 128,-1,89
 324 226 324 226 324 189 c 0,90,91
 324 154 324 154 330 129.5 c 128,-1,92
 336 105 336 105 346 105 c 256,75,76
EndSplineSet
EndChar

StartChar: A
Encoding: 65 65 42
Width: 625
GlyphClass: 1
Flags: W
LayerCount: 2
Fore
SplineSet
552 132 m 0,0,1
 563 97 563 97 579.5 81.5 c 128,-1,2
 596 66 596 66 630 63 c 1,3,-1
 634 56 l 1,4,-1
 627 -3 l 1,5,6
 604 -3 604 -3 582 -2 c 0,7,8
 563 -1 563 -1 542 -0.5 c 128,-1,9
 521 0 521 0 504 0 c 0,10,11
 472 0 472 0 441 -1 c 128,-1,12
 410 -2 410 -2 387 -4 c 0,13,14
 359 -6 359 -6 335 -8 c 1,15,-1
 329 0 l 1,16,-1
 334 60 l 1,17,18
 358 62 358 62 373.5 64.5 c 128,-1,19
 389 67 389 67 397 71 c 128,-1,20
 405 75 405 75 408 81.5 c 128,-1,21
 411 88 411 88 411 97 c 0,22,23
 411 107 411 107 406 130 c 2,24,-1
 386 206 l 1,25,26
 366 207 366 207 339 207 c 128,-1,27
 312 207 312 207 295 207 c 0,28,29
 271 207 271 207 244.5 204.5 c 128,-1,30
 218 202 218 202 200 200 c 1,31,-1
 175 125 l 2,32,33
 169 104 169 104 169 94 c 0,34,35
 169 77 169 77 179 70.5 c 128,-1,36
 189 64 189 64 215 64 c 2,37,-1
 258 64 l 1,38,-1
 262 57 l 1,39,-1
 255 -6 l 1,40,41
 231 -5 231 -5 206 -3 c 0,42,43
 184 -2 184 -2 158.5 -1 c 128,-1,44
 133 0 133 0 109 0 c 0,45,46
 89 0 89 0 67 -0.5 c 128,-1,47
 45 -1 45 -1 28 -2 c 0,48,49
 7 -3 7 -3 -12 -3 c 1,50,-1
 -4 64 l 1,51,52
 19 68 19 68 34 82.5 c 128,-1,53
 49 97 49 97 61 130 c 2,54,-1
 239 637 l 1,55,-1
 398 653 l 1,56,-1
 409 648 l 1,57,58
 435 548 435 548 461 453 c 0,59,60
 472 412 472 412 483.5 369 c 128,-1,61
 495 326 495 326 507 283.5 c 128,-1,62
 519 241 519 241 530.5 202 c 128,-1,63
 542 163 542 163 552 132 c 0,0,1
224 286 m 1,64,-1
 294 286 l 2,65,66
 311 286 311 286 331.5 287 c 128,-1,67
 352 288 352 288 368 290 c 1,68,-1
 310 510 l 1,69,-1
 296 510 l 1,70,-1
 224 286 l 1,64,-1
EndSplineSet
Position2: "'cpsp' Capital Spacing in Latin lookup 0 subtable" dx=6 dy=0 dh=12 dv=0
EndChar

StartChar: B
Encoding: 66 66 43
Width: 629
GlyphClass: 1
Flags: W
LayerCount: 2
Fore
SplineSet
183 0 m 0,0,1
 161 0 161 0 136 -1.5 c 128,-1,2
 111 -3 111 -3 88 -5 c 0,3,4
 62 -8 62 -8 36 -10 c 1,5,-1
 44 58 l 1,6,7
 87 65 87 65 102 81.5 c 128,-1,8
 117 98 117 98 117 137 c 2,9,-1
 118 527 l 2,10,11
 118 555 118 555 111 566 c 128,-1,12
 104 577 104 577 85 577 c 0,13,14
 80 577 80 577 74 576.5 c 128,-1,15
 68 576 68 576 63 576 c 0,16,17
 57 575 57 575 51 575 c 1,18,-1
 45 583 l 1,19,-1
 54 644 l 1,20,21
 84 643 84 643 110 643 c 0,22,23
 133 642 133 642 156 642 c 128,-1,24
 179 642 179 642 193 642 c 0,25,26
 206 642 206 642 231.5 642.5 c 128,-1,27
 257 643 257 643 283 644 c 0,28,29
 313 645 313 645 346 647 c 0,30,31
 450 647 450 647 504 607.5 c 128,-1,32
 558 568 558 568 558 492 c 0,33,34
 558 439 558 439 528.5 401.5 c 128,-1,35
 499 364 499 364 451 339 c 1,36,37
 511 323 511 323 551.5 287 c 128,-1,38
 592 251 592 251 592 190 c 0,39,40
 592 145 592 145 573.5 108 c 128,-1,41
 555 71 555 71 521 44.5 c 128,-1,42
 487 18 487 18 438.5 4 c 128,-1,43
 390 -10 390 -10 331 -10 c 0,44,45
 317 -10 317 -10 297.5 -8 c 128,-1,46
 278 -6 278 -6 257.5 -4.5 c 128,-1,47
 237 -3 237 -3 217.5 -1.5 c 128,-1,48
 198 0 198 0 183 0 c 0,0,1
251 280 m 1,49,-1
 247 135 l 2,50,51
 247 103 247 103 268.5 89.5 c 128,-1,52
 290 76 290 76 341 76 c 0,53,54
 390 76 390 76 417 102 c 128,-1,55
 444 128 444 128 444 176 c 0,56,57
 444 258 444 258 343 281 c 1,58,-1
 251 280 l 1,49,-1
253 369 m 1,59,60
 275 366 275 366 293 364 c 0,61,62
 309 362 309 362 324.5 361 c 128,-1,63
 340 360 340 360 348 360 c 0,64,65
 367 368 367 368 382 382 c 0,66,67
 395 394 395 394 406 414.5 c 128,-1,68
 417 435 417 435 417 466 c 0,69,70
 417 517 417 517 383.5 540.5 c 128,-1,71
 350 564 350 564 279 564 c 0,72,73
 269 564 269 564 265.5 560.5 c 128,-1,74
 262 557 262 557 261 546 c 0,75,76
 259 525 259 525 258 501 c 128,-1,77
 257 477 257 477 256 453 c 128,-1,78
 255 429 255 429 254 407 c 128,-1,79
 253 385 253 385 253 369 c 1,59,60
EndSplineSet
Position2: "'cpsp' Capital Spacing in Latin lookup 0 subtable" dx=6 dy=0 dh=12 dv=0
EndChar

StartChar: C
Encoding: 67 67 44
Width: 617
GlyphClass: 1
Flags: W
LayerCount: 2
Fore
SplineSet
325 -12 m 0,0,1
 256 -12 256 -12 201 10 c 128,-1,2
 146 32 146 32 107.5 72.5 c 128,-1,3
 69 113 69 113 48.5 171.5 c 128,-1,4
 28 230 28 230 28 304 c 0,5,6
 28 384 28 384 52.5 448.5 c 128,-1,7
 77 513 77 513 122.5 559 c 128,-1,8
 168 605 168 605 233 629.5 c 128,-1,9
 298 654 298 654 378 654 c 0,10,11
 410 654 410 654 443.5 650 c 128,-1,12
 477 646 477 646 505 641 c 0,13,14
 538 636 538 636 569 629 c 1,15,-1
 575 616 l 1,16,17
 569 591 569 591 564 561 c 0,18,19
 559 535 559 535 555 501 c 128,-1,20
 551 467 551 467 549 427 c 1,21,-1
 450 420 l 1,22,23
 450 428 450 428 451 437 c 0,24,25
 451 445 451 445 451.5 454 c 128,-1,26
 452 463 452 463 452 473 c 0,27,28
 452 517 452 517 426 537 c 128,-1,29
 400 557 400 557 343 557 c 0,30,31
 265 557 265 557 224.5 502.5 c 128,-1,32
 184 448 184 448 184 338 c 0,33,34
 184 215 184 215 228 148.5 c 128,-1,35
 272 82 272 82 350 82 c 0,36,37
 404 82 404 82 434 114.5 c 128,-1,38
 464 147 464 147 476 220 c 1,39,-1
 575 227 l 1,40,41
 570 197 570 197 566 165 c 0,42,43
 562 138 562 138 559 104.5 c 128,-1,44
 556 71 556 71 555 40 c 1,45,-1
 545 28 l 1,46,47
 515 17 515 17 481 8 c 0,48,49
 451 0 451 0 411.5 -6 c 128,-1,50
 372 -12 372 -12 325 -12 c 0,0,1
EndSplineSet
Position2: "'cpsp' Capital Spacing in Latin lookup 0 subtable" dx=6 dy=0 dh=12 dv=0
EndChar

StartChar: D
Encoding: 68 68 45
Width: 693
GlyphClass: 1
Flags: W
LayerCount: 2
Fore
SplineSet
318 -12 m 0,0,1
 291 -9 291 -9 264 -6 c 0,2,3
 241 -4 241 -4 214.5 -2 c 128,-1,4
 188 0 188 0 167 0 c 0,5,6
 147 0 147 0 125 -1.5 c 128,-1,7
 103 -3 103 -3 83 -5 c 0,8,9
 60 -8 60 -8 38 -10 c 1,10,-1
 45 58 l 1,11,12
 88 66 88 66 102.5 83.5 c 128,-1,13
 117 101 117 101 117 143 c 2,14,-1
 118 522 l 2,15,16
 118 554 118 554 111.5 565 c 128,-1,17
 105 576 105 576 86 576 c 0,18,19
 81 576 81 576 75.5 575.5 c 128,-1,20
 70 575 70 575 65 575 c 0,21,22
 59 574 59 574 53 574 c 1,23,-1
 47 583 l 1,24,-1
 55 645 l 1,25,26
 80 644 80 644 104 643 c 0,27,28
 124 642 124 642 146 642 c 128,-1,29
 168 642 168 642 183 642 c 0,30,31
 200 642 200 642 227 642.5 c 128,-1,32
 254 643 254 643 280 644 c 0,33,34
 310 645 310 645 342 647 c 0,35,36
 418 647 418 647 478 626.5 c 128,-1,37
 538 606 538 606 579.5 567.5 c 128,-1,38
 621 529 621 529 643 473 c 128,-1,39
 665 417 665 417 665 347 c 0,40,41
 665 268 665 268 639.5 202 c 128,-1,42
 614 136 614 136 568 88.5 c 128,-1,43
 522 41 522 41 458 14.5 c 128,-1,44
 394 -12 394 -12 318 -12 c 0,0,1
289 560 m 0,45,46
 272 560 272 560 266.5 555 c 128,-1,47
 261 550 261 550 260 536 c 0,48,49
 254 409 254 409 250.5 311 c 128,-1,50
 247 213 247 213 247 146 c 0,51,52
 247 125 247 125 250.5 111 c 128,-1,53
 254 97 254 97 263.5 89 c 128,-1,54
 273 81 273 81 289 78 c 128,-1,55
 305 75 305 75 330 75 c 0,56,57
 418 75 418 75 463 135 c 128,-1,58
 508 195 508 195 508 316 c 0,59,60
 508 444 508 444 454.5 502 c 128,-1,61
 401 560 401 560 289 560 c 0,45,46
EndSplineSet
Position2: "'cpsp' Capital Spacing in Latin lookup 0 subtable" dx=6 dy=0 dh=12 dv=0
EndChar

StartChar: E
Encoding: 69 69 46
Width: 597
GlyphClass: 1
Flags: W
LayerCount: 2
Fore
SplineSet
247 139 m 256,0,1
 247 119 247 119 249 107 c 128,-1,2
 251 95 251 95 257.5 89 c 128,-1,3
 264 83 264 83 277 81 c 128,-1,4
 290 79 290 79 311 79 c 0,5,6
 357 79 357 79 385.5 82.5 c 128,-1,7
 414 86 414 86 430.5 98 c 128,-1,8
 447 110 447 110 454.5 132.5 c 128,-1,9
 462 155 462 155 467 193 c 1,10,-1
 552 200 l 1,11,-1
 559 190 l 1,12,13
 554 163 554 163 549 133 c 0,14,15
 544 107 544 107 539.5 73.5 c 128,-1,16
 535 40 535 40 531 4 c 1,17,-1
 522 -7 l 1,18,19
 467 -6 467 -6 412 -4 c 0,20,21
 364 -2 364 -2 310.5 -1 c 128,-1,22
 257 0 257 0 210 0 c 0,23,24
 176 0 176 0 145 -1.5 c 128,-1,25
 114 -3 114 -3 90 -5 c 0,26,27
 62 -8 62 -8 36 -10 c 1,28,-1
 44 58 l 1,29,30
 86 64 86 64 101 82 c 128,-1,31
 116 100 116 100 116 144 c 2,32,-1
 117 523 l 2,33,34
 117 555 117 555 110.5 566 c 128,-1,35
 104 577 104 577 84 577 c 0,36,37
 79 577 79 577 74.5 576.5 c 128,-1,38
 70 576 70 576 65 576 c 0,39,40
 60 575 60 575 54 575 c 1,41,-1
 47 584 l 1,42,-1
 55 645 l 1,43,44
 86 644 86 644 119 643 c 0,45,46
 147 642 147 642 179 642 c 128,-1,47
 211 642 211 642 240 642 c 0,48,49
 452 642 452 642 544 654 c 1,50,-1
 552 643 l 1,51,52
 546 617 546 617 542 587 c 0,53,54
 538 561 538 561 534.5 528.5 c 128,-1,55
 531 496 531 496 529 461 c 1,56,-1
 437 455 l 1,57,58
 437 463 437 463 438 470 c 0,59,60
 438 476 438 476 438.5 483 c 128,-1,61
 439 490 439 490 439 495 c 0,62,63
 439 516 439 516 435 528 c 128,-1,64
 431 540 431 540 418 547 c 128,-1,65
 405 554 405 554 380 556 c 128,-1,66
 355 558 355 558 313 558 c 0,67,68
 295 558 295 558 285 557 c 128,-1,69
 275 556 275 556 269.5 552.5 c 128,-1,70
 264 549 264 549 262 542.5 c 128,-1,71
 260 536 260 536 260 525 c 2,72,-1
 253 370 l 1,73,74
 269 370 269 370 296.5 369.5 c 128,-1,75
 324 369 324 369 346 369 c 0,76,77
 358 369 358 369 377.5 370 c 128,-1,78
 397 371 397 371 416 373 c 0,79,80
 438 375 438 375 462 377 c 1,81,-1
 470 368 l 1,82,-1
 456 282 l 1,83,84
 433 282 433 282 410 283 c 0,85,86
 390 284 390 284 367.5 284.5 c 128,-1,87
 345 285 345 285 326 285 c 0,88,89
 303 285 303 285 283 283 c 128,-1,90
 263 281 263 281 250 279 c 1,91,92
 248 224 248 224 247.5 191.5 c 128,-1,93
 247 159 247 159 247 139 c 256,0,1
EndSplineSet
Position2: "'cpsp' Capital Spacing in Latin lookup 0 subtable" dx=6 dy=0 dh=12 dv=0
EndChar

StartChar: F
Encoding: 70 70 47
Width: 532
GlyphClass: 1
Flags: W
LayerCount: 2
Fore
SplineSet
247 142 m 2,0,1
 247 104 247 104 255.5 91 c 128,-1,2
 264 78 264 78 290 78 c 0,3,4
 299 78 299 78 310.5 78.5 c 128,-1,5
 322 79 322 79 332 80 c 0,6,7
 343 81 343 81 355 83 c 1,8,-1
 364 73 l 1,9,-1
 353 -4 l 1,10,11
 323 -3 323 -3 294 -2 c 0,12,13
 269 -1 269 -1 242.5 -0.5 c 128,-1,14
 216 0 216 0 197 0 c 0,15,16
 168 0 168 0 139.5 -2 c 128,-1,17
 111 -4 111 -4 88 -6 c 0,18,19
 61 -9 61 -9 36 -11 c 1,20,-1
 44 57 l 1,21,22
 86 65 86 65 101 82.5 c 128,-1,23
 116 100 116 100 116 144 c 2,24,-1
 117 523 l 2,25,26
 117 555 117 555 110.5 566 c 128,-1,27
 104 577 104 577 84 577 c 0,28,29
 79 577 79 577 74.5 576.5 c 128,-1,30
 70 576 70 576 65 576 c 0,31,32
 60 575 60 575 54 575 c 1,33,-1
 47 584 l 1,34,-1
 55 645 l 1,35,36
 86 644 86 644 119 643 c 0,37,38
 147 642 147 642 179 642 c 128,-1,39
 211 642 211 642 240 642 c 0,40,41
 334 642 334 642 405.5 645 c 128,-1,42
 477 648 477 648 521 654 c 1,43,-1
 528 643 l 1,44,45
 524 616 524 616 520 586 c 0,46,47
 517 560 517 560 513.5 527.5 c 128,-1,48
 510 495 510 495 508 460 c 1,49,-1
 417 454 l 1,50,51
 417 462 417 462 418 470 c 0,52,53
 418 477 418 477 418.5 483.5 c 128,-1,54
 419 490 419 490 419 495 c 0,55,56
 419 515 419 515 415.5 527.5 c 128,-1,57
 412 540 412 540 400.5 546.5 c 128,-1,58
 389 553 389 553 368 555.5 c 128,-1,59
 347 558 347 558 313 558 c 0,60,61
 295 558 295 558 285 557 c 128,-1,62
 275 556 275 556 269.5 552.5 c 128,-1,63
 264 549 264 549 262 542.5 c 128,-1,64
 260 536 260 536 260 525 c 2,65,-1
 253 353 l 1,66,-1
 346 352 l 2,67,68
 357 352 357 352 375 353 c 128,-1,69
 393 354 393 354 410 356 c 0,70,71
 429 358 429 358 451 360 c 1,72,-1
 459 351 l 1,73,-1
 445 265 l 1,74,75
 423 265 423 265 402 266 c 0,76,77
 384 267 384 267 363.5 267.5 c 128,-1,78
 343 268 343 268 326 268 c 0,79,80
 303 268 303 268 283 265.5 c 128,-1,81
 263 263 263 263 250 261 c 1,82,-1
 247 142 l 2,0,1
EndSplineSet
Position2: "'cpsp' Capital Spacing in Latin lookup 0 subtable" dx=6 dy=0 dh=12 dv=0
EndChar

StartChar: G
Encoding: 71 71 48
Width: 654
GlyphClass: 1
Flags: W
LayerCount: 2
Fore
SplineSet
605 293 m 1,0,1
 592 284 592 284 584 273.5 c 128,-1,2
 576 263 576 263 571.5 245 c 128,-1,3
 567 227 567 227 565.5 199 c 128,-1,4
 564 171 564 171 564 128 c 0,5,6
 564 99 564 99 565.5 77 c 128,-1,7
 567 55 567 55 571 41 c 1,8,-1
 562 28 l 1,9,10
 534 17 534 17 498 8 c 0,11,12
 467 0 467 0 423.5 -6 c 128,-1,13
 380 -12 380 -12 326 -12 c 0,14,15
 257 -12 257 -12 202 10 c 128,-1,16
 147 32 147 32 108 72.5 c 128,-1,17
 69 113 69 113 48.5 171.5 c 128,-1,18
 28 230 28 230 28 304 c 0,19,20
 28 385 28 385 52.5 450 c 128,-1,21
 77 515 77 515 123 560.5 c 128,-1,22
 169 606 169 606 235 630 c 128,-1,23
 301 654 301 654 384 654 c 0,24,25
 417 654 417 654 452 650 c 128,-1,26
 487 646 487 646 516 641 c 0,27,28
 549 636 549 636 582 629 c 1,29,-1
 589 616 l 1,30,31
 583 592 583 592 578 563 c 0,32,33
 573 538 573 538 569 504.5 c 128,-1,34
 565 471 565 471 563 432 c 1,35,-1
 464 426 l 1,36,37
 464 433 464 433 465 442 c 0,38,39
 466 450 466 450 466.5 459.5 c 128,-1,40
 467 469 467 469 467 480 c 0,41,42
 467 522 467 522 442.5 539.5 c 128,-1,43
 418 557 418 557 360 557 c 0,44,45
 270 557 270 557 226.5 503.5 c 128,-1,46
 183 450 183 450 183 338 c 0,47,48
 183 213 183 213 226.5 147.5 c 128,-1,49
 270 82 270 82 351 82 c 0,50,51
 373 82 373 82 390.5 86 c 128,-1,52
 408 90 408 90 421 95 c 0,53,54
 436 100 436 100 447 108 c 1,55,-1
 447 201 l 2,56,57
 447 230 447 230 438.5 239.5 c 128,-1,58
 430 249 430 249 403 249 c 2,59,-1
 352 249 l 1,60,-1
 346 257 l 1,61,-1
 357 329 l 1,62,63
 366 329 366 329 381 328.5 c 128,-1,64
 396 328 396 328 415 328 c 128,-1,65
 434 328 434 328 454.5 327.5 c 128,-1,66
 475 327 475 327 496 327 c 0,67,68
 515 327 515 327 533 327.5 c 128,-1,69
 551 328 551 328 565.5 329 c 128,-1,70
 580 330 580 330 589 331 c 128,-1,71
 598 332 598 332 598 332 c 1,72,-1
 605 293 l 1,0,1
EndSplineSet
Position2: "'cpsp' Capital Spacing in Latin lookup 0 subtable" dx=6 dy=0 dh=12 dv=0
EndChar

StartChar: H
Encoding: 72 72 49
Width: 747
GlyphClass: 1
Flags: W
LayerCount: 2
Fore
SplineSet
641 528 m 0,0,1
 639 485 639 485 636.5 432.5 c 128,-1,2
 634 380 634 380 632.5 326.5 c 128,-1,3
 631 273 631 273 630 222.5 c 128,-1,4
 629 172 629 172 629 133 c 256,5,6
 629 94 629 94 638 80 c 128,-1,7
 647 66 647 66 671 66 c 0,8,9
 677 66 677 66 683.5 66 c 128,-1,10
 690 66 690 66 695 67 c 0,11,12
 701 68 701 68 707 69 c 1,13,-1
 712 61 l 1,14,-1
 703 -3 l 1,15,16
 680 -3 680 -3 654 -2 c 0,17,18
 632 -1 632 -1 606 -0.5 c 128,-1,19
 580 0 580 0 557 0 c 0,20,21
 542 0 542 0 518.5 -0.5 c 128,-1,22
 495 -1 495 -1 472 -1 c 0,23,24
 446 -2 446 -2 418 -2 c 1,25,-1
 426 64 l 1,26,27
 447 64 447 64 461 68.5 c 128,-1,28
 475 73 475 73 483 83.5 c 128,-1,29
 491 94 491 94 494.5 111.5 c 128,-1,30
 498 129 498 129 498 156 c 2,31,-1
 498 283 l 1,32,-1
 457 283 l 2,33,34
 440 283 440 283 422 283.5 c 128,-1,35
 404 284 404 284 390 284 c 0,36,37
 379 284 379 284 356.5 282.5 c 128,-1,38
 334 281 334 281 310 279 c 0,39,40
 282 276 282 276 250 274 c 1,41,-1
 248 133 l 2,42,43
 248 92 248 92 255.5 78.5 c 128,-1,44
 263 65 263 65 286 65 c 0,45,46
 293 65 293 65 299.5 65 c 128,-1,47
 306 65 306 65 311 66 c 0,48,49
 317 67 317 67 322 68 c 1,50,-1
 327 61 l 1,51,-1
 318 -3 l 1,52,53
 294 -3 294 -3 271 -2 c 0,54,55
 251 -1 251 -1 230.5 -0.5 c 128,-1,56
 210 0 210 0 196 0 c 0,57,58
 173 0 173 0 145.5 -1 c 128,-1,59
 118 -2 118 -2 94 -3.5 c 128,-1,60
 70 -5 70 -5 53.5 -6.5 c 128,-1,61
 37 -8 37 -8 37 -9 c 1,62,-1
 44 56 l 1,63,64
 66 60 66 60 80 66 c 128,-1,65
 94 72 94 72 102 81.5 c 128,-1,66
 110 91 110 91 113 105 c 128,-1,67
 116 119 116 119 116 140 c 2,68,-1
 117 525 l 2,69,70
 117 557 117 557 110 567 c 128,-1,71
 103 577 103 577 81 577 c 0,72,73
 76 577 76 577 71 576.5 c 128,-1,74
 66 576 66 576 61 576 c 2,75,-1
 50 576 l 1,76,-1
 45 584 l 1,77,-1
 53 643 l 1,78,79
 75 642 75 642 97 642 c 2,80,-1
 172 642 l 2,81,82
 191 642 191 642 217.5 642.5 c 128,-1,83
 244 643 244 643 267 645 c 0,84,85
 294 647 294 647 323 649 c 1,86,-1
 318 582 l 1,87,88
 299 579 299 579 287.5 575 c 128,-1,89
 276 571 276 571 270 563.5 c 128,-1,90
 264 556 264 556 261.5 543.5 c 128,-1,91
 259 531 259 531 258 511 c 2,92,-1
 252 368 l 1,93,-1
 380 366 l 2,94,95
 416 366 416 366 442 367.5 c 128,-1,96
 468 369 468 369 498 373 c 1,97,-1
 498 525 l 2,98,99
 498 556 498 556 491 566.5 c 128,-1,100
 484 577 484 577 462 577 c 0,101,102
 457 577 457 577 452 576.5 c 128,-1,103
 447 576 447 576 442 576 c 2,104,-1
 431 576 l 1,105,-1
 426 584 l 1,106,-1
 434 643 l 1,107,108
 458 642 458 642 482 642 c 2,109,-1
 562 642 l 2,110,111
 579 642 579 642 604 642.5 c 128,-1,112
 629 643 629 643 652 645 c 0,113,114
 679 647 679 647 709 649 c 1,115,-1
 703 583 l 1,116,117
 685 580 685 580 673 576.5 c 128,-1,118
 661 573 661 573 654.5 567 c 128,-1,119
 648 561 648 561 645 551.5 c 128,-1,120
 642 542 642 542 641 528 c 0,0,1
EndSplineSet
Position2: "'cpsp' Capital Spacing in Latin lookup 0 subtable" dx=6 dy=0 dh=12 dv=0
EndChar

StartChar: I
Encoding: 73 73 50
Width: 365
GlyphClass: 1
Flags: W
LayerCount: 2
Fore
SplineSet
260 528 m 0,0,1
 257 483 257 483 255 430.5 c 128,-1,2
 253 378 253 378 251.5 325 c 128,-1,3
 250 272 250 272 249 222.5 c 128,-1,4
 248 173 248 173 248 133 c 0,5,6
 248 92 248 92 255.5 78.5 c 128,-1,7
 263 65 263 65 286 65 c 0,8,9
 294 65 294 65 302 65 c 128,-1,10
 310 65 310 65 316 66 c 0,11,12
 323 67 323 67 329 68 c 1,13,-1
 334 61 l 1,14,-1
 325 -3 l 1,15,16
 295 -3 295 -3 267 -2 c 0,17,18
 243 -1 243 -1 218 -0.5 c 128,-1,19
 193 0 193 0 176 0 c 0,20,21
 155 0 155 0 130.5 -1.5 c 128,-1,22
 106 -3 106 -3 85 -5 c 0,23,24
 60 -7 60 -7 36 -9 c 1,25,-1
 43 56 l 1,26,27
 87 65 87 65 101.5 82 c 128,-1,28
 116 99 116 99 116 140 c 2,29,-1
 117 525 l 2,30,31
 117 556 117 556 110 566.5 c 128,-1,32
 103 577 103 577 81 577 c 0,33,34
 76 577 76 577 69.5 576.5 c 128,-1,35
 63 576 63 576 58 576 c 2,36,-1
 46 576 l 1,37,-1
 41 584 l 1,38,-1
 48 643 l 1,39,40
 58 643 58 643 74 643 c 128,-1,41
 90 643 90 643 109.5 642.5 c 128,-1,42
 129 642 129 642 149.5 642 c 128,-1,43
 170 642 170 642 188 642 c 0,44,45
 205 642 205 642 228.5 642.5 c 128,-1,46
 252 643 252 643 275 645 c 0,47,48
 301 647 301 647 330 649 c 1,49,-1
 324 582 l 1,50,51
 286 577 286 577 273.5 566.5 c 128,-1,52
 261 556 261 556 260 528 c 0,0,1
EndSplineSet
Position2: "'cpsp' Capital Spacing in Latin lookup 0 subtable" dx=6 dy=0 dh=12 dv=0
EndChar

StartChar: J
Encoding: 74 74 51
Width: 333
GlyphClass: 1
Flags: W
LayerCount: 2
Fore
SplineSet
107 525 m 2,0,1
 107 557 107 557 100.5 567 c 128,-1,2
 94 577 94 577 72 577 c 0,3,4
 67 577 67 577 60.5 576.5 c 128,-1,5
 54 576 54 576 47 575 c 0,6,7
 39 574 39 574 31 574 c 1,8,-1
 25 582 l 1,9,-1
 33 642 l 1,10,-1
 157 642 l 2,11,12
 183 642 183 642 209.5 643 c 128,-1,13
 236 644 236 644 258 646 c 0,14,15
 284 648 284 648 308 650 c 1,16,-1
 302 582 l 1,17,18
 286 579 286 579 276 575.5 c 128,-1,19
 266 572 266 572 261 566.5 c 128,-1,20
 256 561 256 561 253.5 552 c 128,-1,21
 251 543 251 543 250 528 c 0,22,23
 248 494 248 494 246 438.5 c 128,-1,24
 244 383 244 383 242 321.5 c 128,-1,25
 240 260 240 260 239 201 c 128,-1,26
 238 142 238 142 238 101 c 0,27,28
 237 2 237 2 189.5 -59 c 128,-1,29
 142 -120 142 -120 38 -154 c 1,30,-1
 10 -113 l 1,31,-1
 12 -102 l 1,32,33
 40 -81 40 -81 58.5 -61 c 128,-1,34
 77 -41 77 -41 87.5 -15.5 c 128,-1,35
 98 10 98 10 102.5 43 c 128,-1,36
 107 76 107 76 107 123 c 2,37,-1
 107 525 l 2,0,1
EndSplineSet
Position2: "'cpsp' Capital Spacing in Latin lookup 0 subtable" dx=6 dy=0 dh=12 dv=0
EndChar

StartChar: K
Encoding: 75 75 52
Width: 659
GlyphClass: 1
Flags: W
LayerCount: 2
Fore
SplineSet
117 525 m 2,0,1
 117 557 117 557 110 567 c 128,-1,2
 103 577 103 577 81 577 c 0,3,4
 76 577 76 577 71 576.5 c 128,-1,5
 66 576 66 576 61 576 c 2,6,-1
 50 576 l 1,7,-1
 45 584 l 1,8,-1
 53 644 l 1,9,10
 84 643 84 643 110 643 c 0,11,12
 133 642 133 642 155 642 c 128,-1,13
 177 642 177 642 188 642 c 0,14,15
 204 642 204 642 227.5 642.5 c 128,-1,16
 251 643 251 643 273 645 c 0,17,18
 299 647 299 647 326 649 c 1,19,-1
 320 582 l 1,20,21
 283 574 283 574 270.5 563 c 128,-1,22
 258 552 258 552 257 524 c 2,23,-1
 248 133 l 2,24,25
 246 92 246 92 254.5 78.5 c 128,-1,26
 263 65 263 65 286 65 c 0,27,28
 294 65 294 65 301 65 c 128,-1,29
 308 65 308 65 313 66 c 0,30,31
 319 67 319 67 325 68 c 1,32,-1
 329 61 l 1,33,-1
 320 -3 l 1,34,35
 291 -3 291 -3 264 -2 c 0,36,37
 241 -1 241 -1 216.5 -0.5 c 128,-1,38
 192 0 192 0 176 0 c 0,39,40
 155 0 155 0 130.5 -0.5 c 128,-1,41
 106 -1 106 -1 85 -2 c 0,42,43
 60 -3 60 -3 37 -3 c 1,44,-1
 46 61 l 1,45,46
 68 64 68 64 81.5 69 c 128,-1,47
 95 74 95 74 102.5 83 c 128,-1,48
 110 92 110 92 113 105.5 c 128,-1,49
 116 119 116 119 116 140 c 2,50,-1
 117 525 l 2,0,1
270 338 m 1,51,-1
 417 498 l 2,52,53
 443 524 443 524 443 547 c 0,54,55
 443 562 443 562 431 569 c 128,-1,56
 419 576 419 576 390 578 c 1,57,-1
 387 585 l 1,58,-1
 395 647 l 1,59,60
 419 645 419 645 442 644 c 0,61,62
 462 643 462 643 483 642.5 c 128,-1,63
 504 642 504 642 520 642 c 0,64,65
 534 642 534 642 554 642.5 c 128,-1,66
 574 643 574 643 593 644 c 0,67,68
 614 645 614 645 637 646 c 1,69,-1
 644 635 l 1,70,-1
 636 578 l 1,71,72
 620 572 620 572 605.5 563 c 128,-1,73
 591 554 591 554 576 540.5 c 128,-1,74
 561 527 561 527 543.5 508 c 128,-1,75
 526 489 526 489 505 464 c 2,76,-1
 402 348 l 1,77,-1
 534 146 l 2,78,79
 563 101 563 101 588.5 81 c 128,-1,80
 614 61 614 61 648 59 c 1,81,-1
 654 50 l 1,82,-1
 646 -3 l 1,83,84
 618 -6 618 -6 594 -9 c 0,85,86
 574 -11 574 -11 555 -13 c 128,-1,87
 536 -15 536 -15 529 -15 c 0,88,89
 497 -15 497 -15 471 5 c 128,-1,90
 445 25 445 25 418 69 c 2,91,-1
 267 316 l 1,92,-1
 270 338 l 1,51,-1
EndSplineSet
Position2: "'cpsp' Capital Spacing in Latin lookup 0 subtable" dx=6 dy=0 dh=12 dv=0
EndChar

StartChar: L
Encoding: 76 76 53
Width: 531
GlyphClass: 1
Flags: W
LayerCount: 2
Fore
SplineSet
213 0 m 0,0,1
 179 0 179 0 148.5 -1.5 c 128,-1,2
 118 -3 118 -3 94 -5 c 0,3,4
 66 -8 66 -8 42 -10 c 1,5,-1
 49 58 l 1,6,7
 87 64 87 64 101.5 82 c 128,-1,8
 116 100 116 100 116 144 c 2,9,-1
 116 525 l 2,10,11
 116 557 116 557 109 567 c 128,-1,12
 102 577 102 577 80 577 c 0,13,14
 75 577 75 577 70.5 576.5 c 128,-1,15
 66 576 66 576 61 576 c 2,16,-1
 50 576 l 1,17,-1
 45 584 l 1,18,-1
 52 643 l 1,19,20
 62 643 62 643 78 643 c 128,-1,21
 94 643 94 643 112.5 642.5 c 128,-1,22
 131 642 131 642 151 642 c 128,-1,23
 171 642 171 642 188 642 c 256,24,25
 205 642 205 642 231 642.5 c 128,-1,26
 257 643 257 643 282 645 c 0,27,28
 311 647 311 647 343 649 c 1,29,-1
 335 578 l 1,30,31
 309 575 309 575 294.5 570.5 c 128,-1,32
 280 566 280 566 272.5 558 c 128,-1,33
 265 550 265 550 262.5 537 c 128,-1,34
 260 524 260 524 259 505 c 0,35,36
 256 464 256 464 254 419 c 128,-1,37
 252 374 252 374 250.5 327 c 128,-1,38
 249 280 249 280 248.5 232 c 128,-1,39
 248 184 248 184 248 139 c 0,40,41
 248 120 248 120 250.5 108.5 c 128,-1,42
 253 97 253 97 259.5 90.5 c 128,-1,43
 266 84 266 84 278 81.5 c 128,-1,44
 290 79 290 79 310 79 c 0,45,46
 345 79 345 79 367.5 84.5 c 128,-1,47
 390 90 390 90 404 106.5 c 128,-1,48
 418 123 418 123 425.5 153 c 128,-1,49
 433 183 433 183 438 231 c 1,50,-1
 523 240 l 1,51,-1
 530 230 l 1,52,53
 524 198 524 198 520 161 c 0,54,55
 515 129 515 129 511 88.5 c 128,-1,56
 507 48 507 48 503 3 c 1,57,-1
 494 -8 l 1,58,59
 446 -6 446 -6 398 -4 c 0,60,61
 356 -2 356 -2 307 -1 c 128,-1,62
 258 0 258 0 213 0 c 0,0,1
EndSplineSet
Position2: "'cpsp' Capital Spacing in Latin lookup 0 subtable" dx=6 dy=0 dh=12 dv=0
EndChar

StartChar: M
Encoding: 77 77 54
Width: 841
GlyphClass: 1
Flags: W
LayerCount: 2
Fore
SplineSet
368 -16 m 1,0,1
 345 57 345 57 323 125 c 128,-1,2
 301 193 301 193 281.5 252.5 c 128,-1,3
 262 312 262 312 245 361 c 128,-1,4
 228 410 228 410 215 445 c 1,5,-1
 207 445 l 1,6,7
 201 354 201 354 197 280 c 0,8,9
 195 248 195 248 193.5 217.5 c 128,-1,10
 192 187 192 187 190.5 162 c 128,-1,11
 189 137 189 137 188 119.5 c 128,-1,12
 187 102 187 102 187 98 c 0,13,14
 187 65 187 65 219 65 c 0,15,16
 222 65 222 65 227.5 65 c 128,-1,17
 233 65 233 65 238 66 c 0,18,19
 244 66 244 66 252 67 c 1,20,-1
 258 61 l 1,21,-1
 247 -4 l 1,22,23
 223 -3 223 -3 200 -2 c 0,24,25
 180 -1 180 -1 160 -0.5 c 128,-1,26
 140 0 140 0 128 0 c 0,27,28
 113 0 113 0 95 -1 c 128,-1,29
 77 -2 77 -2 62 -4 c 0,30,31
 44 -6 44 -6 27 -8 c 1,32,-1
 34 59 l 1,33,34
 63 63 63 63 77 78 c 128,-1,35
 91 93 91 93 94 131 c 0,36,37
 95 140 95 140 98.5 171.5 c 128,-1,38
 102 203 102 203 106.5 245 c 128,-1,39
 111 287 111 287 116 334.5 c 128,-1,40
 121 382 121 382 125 423.5 c 128,-1,41
 129 465 129 465 131.5 494.5 c 128,-1,42
 134 524 134 524 134 531 c 0,43,44
 134 544 134 544 131 553 c 128,-1,45
 128 562 128 562 119.5 567.5 c 128,-1,46
 111 573 111 573 96.5 576 c 128,-1,47
 82 579 82 579 59 581 c 1,48,-1
 54 587 l 1,49,-1
 63 647 l 1,50,51
 89 645 89 645 113 644 c 0,52,53
 133 643 133 643 154.5 642.5 c 128,-1,54
 176 642 176 642 190 642 c 0,55,56
 205 642 205 642 224 642.5 c 128,-1,57
 243 643 243 643 260 644 c 0,58,59
 279 645 279 645 299 646 c 1,60,61
 322 561 322 561 344.5 487.5 c 128,-1,62
 367 414 367 414 384 357 c 0,63,64
 404 291 404 291 423 235 c 1,65,-1
 431 235 l 1,66,67
 450 291 450 291 471 357 c 0,68,69
 489 414 489 414 512.5 487 c 128,-1,70
 536 560 536 560 562 643 c 1,71,72
 573 643 573 643 588 642.5 c 128,-1,73
 603 642 603 642 619.5 641.5 c 128,-1,74
 636 641 636 641 653 641 c 128,-1,75
 670 641 670 641 685 642 c 0,76,77
 699 642 699 642 716.5 643 c 128,-1,78
 734 644 734 644 750 645 c 0,79,80
 768 646 768 646 786 648 c 1,81,-1
 790 644 l 1,82,-1
 784 582 l 1,83,84
 741 579 741 579 726 568 c 128,-1,85
 711 557 711 557 711 529 c 0,86,87
 711 512 711 512 713.5 468.5 c 128,-1,88
 716 425 716 425 719.5 370.5 c 128,-1,89
 723 316 723 316 727 258.5 c 128,-1,90
 731 201 731 201 735 157 c 0,91,92
 740 103 740 103 750 84.5 c 128,-1,93
 760 66 760 66 783 66 c 0,94,95
 788 66 788 66 793 66 c 128,-1,96
 798 66 798 66 803 67 c 0,97,98
 807 67 807 67 812 68 c 1,99,-1
 816 62 l 1,100,-1
 807 -3 l 1,101,102
 789 -3 789 -3 771 -2 c 0,103,104
 756 -1 756 -1 738 -0.5 c 128,-1,105
 720 0 720 0 705 0 c 0,106,107
 693 0 693 0 670 -1 c 128,-1,108
 647 -2 647 -2 623 -3.5 c 128,-1,109
 599 -5 599 -5 580 -6 c 128,-1,110
 561 -7 561 -7 559 -8 c 1,111,-1
 567 60 l 1,112,113
 596 63 596 63 609 74.5 c 128,-1,114
 622 86 622 86 622 109 c 0,115,116
 622 116 622 116 621 134.5 c 128,-1,117
 620 153 620 153 618.5 178 c 128,-1,118
 617 203 617 203 615.5 232.5 c 128,-1,119
 614 262 614 262 612 292 c 0,120,121
 608 362 608 362 602 445 c 1,122,-1
 593 445 l 1,123,124
 581 410 581 410 563.5 361.5 c 128,-1,125
 546 313 546 313 526 254.5 c 128,-1,126
 506 196 506 196 484.5 129.5 c 128,-1,127
 463 63 463 63 441 -7 c 1,128,-1
 368 -16 l 1,0,1
EndSplineSet
Position2: "'cpsp' Capital Spacing in Latin lookup 0 subtable" dx=6 dy=0 dh=12 dv=0
EndChar

StartChar: N
Encoding: 78 78 55
Width: 729
GlyphClass: 1
Flags: W
LayerCount: 2
Fore
SplineSet
530 235 m 1,0,-1
 528 534 l 2,1,2
 527 557 527 557 519.5 567 c 128,-1,3
 512 577 512 577 495 577 c 0,4,5
 484 577 484 577 474 576.5 c 128,-1,6
 464 576 464 576 461 576 c 2,7,-1
 457 584 l 1,8,-1
 464 646 l 1,9,10
 488 645 488 645 512 644 c 0,11,12
 532 643 532 643 554 642.5 c 128,-1,13
 576 642 576 642 593 642 c 0,14,15
 611 642 611 642 632 642.5 c 128,-1,16
 653 643 653 643 670 644 c 0,17,18
 690 645 690 645 711 647 c 1,19,-1
 706 580 l 1,20,21
 673 575 673 575 658.5 561 c 128,-1,22
 644 547 644 547 643 517 c 2,23,-1
 630 -14 l 1,24,-1
 524 -27 l 1,25,26
 465 67 465 67 412.5 147.5 c 128,-1,27
 360 228 360 228 320 288 c 0,28,29
 273 358 273 358 233 417 c 1,30,-1
 223 417 l 1,31,-1
 222 109 l 2,32,33
 222 84 222 84 229.5 74 c 128,-1,34
 237 64 237 64 256 64 c 0,35,36
 260 64 260 64 267.5 64 c 128,-1,37
 275 64 275 64 282 65 c 0,38,39
 290 66 290 66 299 67 c 1,40,-1
 305 60 l 1,41,-1
 295 -4 l 1,42,43
 271 -3 271 -3 247 -2 c 0,44,45
 227 -1 227 -1 204.5 -0.5 c 128,-1,46
 182 0 182 0 166 0 c 0,47,48
 146 0 146 0 124 -1 c 128,-1,49
 102 -2 102 -2 84 -4 c 0,50,51
 63 -6 63 -6 43 -8 c 1,52,-1
 51 59 l 1,53,54
 81 63 81 63 95 77.5 c 128,-1,55
 109 92 109 92 110 122 c 2,56,-1
 123 517 l 2,57,58
 123 549 123 549 107 561.5 c 128,-1,59
 91 574 91 574 42 579 c 1,60,-1
 34 589 l 1,61,-1
 41 647 l 1,62,63
 61 645 61 645 81 644 c 0,64,65
 98 643 98 643 118 642.5 c 128,-1,66
 138 642 138 642 157 642 c 0,67,68
 173 642 173 642 190 642.5 c 128,-1,69
 207 643 207 643 221 644 c 0,70,71
 238 645 238 645 253 646 c 1,72,73
 302 566 302 566 349.5 492 c 128,-1,74
 397 418 397 418 435 361 c 0,75,76
 479 294 479 294 520 235 c 1,77,-1
 530 235 l 1,0,-1
EndSplineSet
Position2: "'cpsp' Capital Spacing in Latin lookup 0 subtable" dx=6 dy=0 dh=12 dv=0
EndChar

StartChar: O
Encoding: 79 79 56
Width: 674
GlyphClass: 1
Flags: W
LayerCount: 2
Fore
SplineSet
340 75 m 0,0,1
 411 75 411 75 450.5 130 c 128,-1,2
 490 185 490 185 490 288 c 0,3,4
 490 422 490 422 448 489.5 c 128,-1,5
 406 557 406 557 328 557 c 0,6,7
 259 557 259 557 221 502 c 128,-1,8
 183 447 183 447 183 344 c 0,9,10
 183 211 183 211 224 143 c 128,-1,11
 265 75 265 75 340 75 c 0,0,1
315 -12 m 0,12,13
 248 -12 248 -12 195 10 c 128,-1,14
 142 32 142 32 105 73 c 128,-1,15
 68 114 68 114 48 172.5 c 128,-1,16
 28 231 28 231 28 304 c 0,17,18
 28 383 28 383 51.5 447.5 c 128,-1,19
 75 512 75 512 118 558 c 128,-1,20
 161 604 161 604 221.5 629 c 128,-1,21
 282 654 282 654 356 654 c 0,22,23
 424 654 424 654 478 632.5 c 128,-1,24
 532 611 532 611 569.5 570.5 c 128,-1,25
 607 530 607 530 626.5 472 c 128,-1,26
 646 414 646 414 646 341 c 0,27,28
 646 261 646 261 622.5 196 c 128,-1,29
 599 131 599 131 555.5 85 c 128,-1,30
 512 39 512 39 451 13.5 c 128,-1,31
 390 -12 390 -12 315 -12 c 0,12,13
EndSplineSet
Position2: "'cpsp' Capital Spacing in Latin lookup 0 subtable" dx=6 dy=0 dh=12 dv=0
EndChar

StartChar: P
Encoding: 80 80 57
Width: 577
GlyphClass: 1
Flags: W
LayerCount: 2
Fore
SplineSet
53 643 m 1,0,1
 62 643 62 643 76.5 643 c 128,-1,2
 91 643 91 643 108.5 642.5 c 128,-1,3
 126 642 126 642 144.5 642 c 128,-1,4
 163 642 163 642 179 642 c 0,5,6
 193 642 193 642 217.5 642.5 c 128,-1,7
 242 643 242 643 268 644 c 0,8,9
 297 645 297 645 331 647 c 0,10,11
 401 647 401 647 447.5 630.5 c 128,-1,12
 494 614 494 614 522 587 c 128,-1,13
 550 560 550 560 561.5 525.5 c 128,-1,14
 573 491 573 491 573 454 c 0,15,16
 573 409 573 409 553.5 368 c 128,-1,17
 534 327 534 327 501 295.5 c 128,-1,18
 468 264 468 264 424.5 245.5 c 128,-1,19
 381 227 381 227 334 227 c 2,20,-1
 249 227 l 1,21,-1
 248 153 l 2,22,23
 248 125 248 125 249.5 108 c 128,-1,24
 251 91 251 91 256 81.5 c 128,-1,25
 261 72 261 72 270 68.5 c 128,-1,26
 279 65 279 65 294 65 c 0,27,28
 301 65 301 65 308.5 65 c 128,-1,29
 316 65 316 65 323 66 c 0,30,31
 331 67 331 67 338 68 c 1,32,-1
 342 62 l 1,33,-1
 332 -3 l 1,34,35
 307 -3 307 -3 283 -2 c 0,36,37
 263 -1 263 -1 241.5 -0.5 c 128,-1,38
 220 0 220 0 206 0 c 0,39,40
 187 0 187 0 159 -1 c 128,-1,41
 131 -2 131 -2 104.5 -3.5 c 128,-1,42
 78 -5 78 -5 59 -6.5 c 128,-1,43
 40 -8 40 -8 39 -8 c 1,44,-1
 47 60 l 1,45,46
 87 67 87 67 101.5 84 c 128,-1,47
 116 101 116 101 116 143 c 2,48,-1
 117 523 l 2,49,50
 117 555 117 555 110.5 566 c 128,-1,51
 104 577 104 577 85 577 c 0,52,53
 80 577 80 577 73.5 576.5 c 128,-1,54
 67 576 67 576 62 576 c 0,55,56
 56 575 56 575 50 575 c 1,57,-1
 45 583 l 1,58,-1
 53 643 l 1,0,1
339 304 m 1,59,60
 430 323 430 323 430 440 c 0,61,62
 430 503 430 503 395 532 c 128,-1,63
 360 561 360 561 283 561 c 0,64,65
 269 561 269 561 265.5 558.5 c 128,-1,66
 262 556 262 556 261 543 c 0,67,68
 257 490 257 490 255 431.5 c 128,-1,69
 253 373 253 373 251 316 c 1,70,-1
 339 304 l 1,59,60
EndSplineSet
Position2: "'cpsp' Capital Spacing in Latin lookup 0 subtable" dx=6 dy=0 dh=12 dv=0
EndChar

StartChar: Q
Encoding: 81 81 58
Width: 679
GlyphClass: 1
Flags: W
LayerCount: 2
Fore
SplineSet
315 -12 m 1,0,1
 248 -12 248 -12 195 10 c 128,-1,2
 142 32 142 32 105 73 c 128,-1,3
 68 114 68 114 48 172.5 c 128,-1,4
 28 231 28 231 28 304 c 0,5,6
 28 383 28 383 51.5 447.5 c 128,-1,7
 75 512 75 512 118 558 c 128,-1,8
 161 604 161 604 221.5 629 c 128,-1,9
 282 654 282 654 356 654 c 0,10,11
 424 654 424 654 478 632.5 c 128,-1,12
 532 611 532 611 569.5 570.5 c 128,-1,13
 607 530 607 530 626.5 472 c 128,-1,14
 646 414 646 414 646 341 c 0,15,16
 646 283 646 283 631.5 232 c 128,-1,17
 617 181 617 181 590.5 139 c 128,-1,18
 564 97 564 97 526.5 65 c 128,-1,19
 489 33 489 33 444 15 c 1,20,-1
 444 6 l 1,21,22
 526 -51 526 -51 591.5 -78.5 c 128,-1,23
 657 -106 657 -106 712 -106 c 0,24,25
 729 -106 729 -106 744.5 -104.5 c 128,-1,26
 760 -103 760 -103 772 -101 c 0,27,28
 785 -99 785 -99 797 -96 c 1,29,-1
 805 -103 l 1,30,-1
 816 -145 l 1,31,32
 785 -169 785 -169 759 -187 c 0,33,34
 736 -203 736 -203 714.5 -215.5 c 128,-1,35
 693 -228 693 -228 682 -228 c 0,36,37
 649 -228 649 -228 618.5 -220 c 128,-1,38
 588 -212 588 -212 548.5 -189 c 128,-1,39
 509 -166 509 -166 453.5 -123.5 c 128,-1,40
 398 -81 398 -81 315 -12 c 1,0,1
340 75 m 0,41,42
 411 75 411 75 450.5 130 c 128,-1,43
 490 185 490 185 490 288 c 0,44,45
 490 422 490 422 448 489.5 c 128,-1,46
 406 557 406 557 328 557 c 0,47,48
 259 557 259 557 221 502 c 128,-1,49
 183 447 183 447 183 344 c 0,50,51
 183 211 183 211 224 143 c 128,-1,52
 265 75 265 75 340 75 c 0,41,42
EndSplineSet
Position2: "'cpsp' Capital Spacing in Latin lookup 0 subtable" dx=6 dy=0 dh=12 dv=0
EndChar

StartChar: R
Encoding: 82 82 59
Width: 643
GlyphClass: 1
Flags: W
LayerCount: 2
Fore
SplineSet
249 251 m 1,0,-1
 248 141 l 2,1,2
 248 116 248 116 250 101 c 128,-1,3
 252 86 252 86 259.5 78 c 128,-1,4
 267 70 267 70 281 67.5 c 128,-1,5
 295 65 295 65 319 64 c 1,6,-1
 323 58 l 1,7,-1
 313 -4 l 1,8,9
 313 -4 313 -4 298.5 -3.5 c 128,-1,10
 284 -3 284 -3 263 -2.5 c 128,-1,11
 242 -2 242 -2 219 -1.5 c 128,-1,12
 196 -1 196 -1 179 -1 c 0,13,14
 156 -1 156 -1 131 -1.5 c 128,-1,15
 106 -2 106 -2 85 -3 c 0,16,17
 60 -4 60 -4 36 -6 c 1,18,-1
 45 61 l 1,19,20
 87 67 87 67 101.5 83.5 c 128,-1,21
 116 100 116 100 116 143 c 2,22,-1
 117 528 l 2,23,24
 117 557 117 557 110.5 567 c 128,-1,25
 104 577 104 577 85 577 c 0,26,27
 80 577 80 577 73.5 576.5 c 128,-1,28
 67 576 67 576 62 576 c 0,29,30
 56 575 56 575 50 575 c 1,31,-1
 45 583 l 1,32,-1
 53 644 l 1,33,34
 77 643 77 643 101 643 c 0,35,36
 121 642 121 642 142.5 642 c 128,-1,37
 164 642 164 642 179 642 c 256,38,39
 194 642 194 642 220 642.5 c 128,-1,40
 246 643 246 643 271 644 c 0,41,42
 300 645 300 645 332 647 c 0,43,44
 447 647 447 647 508 603 c 128,-1,45
 569 559 569 559 569 475 c 0,46,47
 569 415 569 415 534.5 366.5 c 128,-1,48
 500 318 500 318 435 284 c 1,49,-1
 522 144 l 2,50,51
 550 99 550 99 575.5 78 c 128,-1,52
 601 57 601 57 633 57 c 1,53,-1
 640 48 l 1,54,-1
 633 -5 l 1,55,-1
 514 -16 l 1,56,57
 448 -16 448 -16 405 77 c 2,58,-1
 319 251 l 1,59,-1
 249 251 l 1,0,-1
342 331 m 2,60,61
 350 334 350 334 364 341.5 c 128,-1,62
 378 349 378 349 392 363.5 c 128,-1,63
 406 378 406 378 416.5 400.5 c 128,-1,64
 427 423 427 423 427 456 c 0,65,66
 427 564 427 564 278 564 c 0,67,68
 267 564 267 564 264 560 c 128,-1,69
 261 556 261 556 260 542 c 0,70,71
 256 482 256 482 254.5 434.5 c 128,-1,72
 253 387 253 387 252 341 c 1,73,-1
 342 331 l 2,60,61
EndSplineSet
Position2: "'cpsp' Capital Spacing in Latin lookup 0 subtable" dx=6 dy=0 dh=12 dv=0
EndChar

StartChar: S
Encoding: 83 83 60
Width: 540
GlyphClass: 1
Flags: W
LayerCount: 2
Fore
SplineSet
220 -12 m 0,0,1
 180 -12 180 -12 148 -6.5 c 128,-1,2
 116 -1 116 -1 93 7 c 0,3,4
 66 15 66 15 44 26 c 1,5,-1
 36 40 l 1,6,7
 40 66 40 66 44 94 c 0,8,9
 47 118 47 118 49 148.5 c 128,-1,10
 51 179 51 179 52 210 c 1,11,-1
 136 217 l 1,12,13
 136 176 136 176 141.5 149 c 128,-1,14
 147 122 147 122 159.5 106 c 128,-1,15
 172 90 172 90 193 83.5 c 128,-1,16
 214 77 214 77 246 77 c 0,17,18
 294 77 294 77 322 98 c 128,-1,19
 350 119 350 119 350 154 c 0,20,21
 350 175 350 175 337.5 191 c 128,-1,22
 325 207 325 207 304 221 c 128,-1,23
 283 235 283 235 256.5 247.5 c 128,-1,24
 230 260 230 260 202 274 c 0,25,26
 173 288 173 288 144.5 304.5 c 128,-1,27
 116 321 116 321 93.5 342.5 c 128,-1,28
 71 364 71 364 57.5 391 c 128,-1,29
 44 418 44 418 44 454 c 0,30,31
 44 498 44 498 64 534.5 c 128,-1,32
 84 571 84 571 119 597.5 c 128,-1,33
 154 624 154 624 203 639 c 128,-1,34
 252 654 252 654 311 654 c 0,35,36
 349 654 349 654 380 649.5 c 128,-1,37
 411 645 411 645 434 640 c 0,38,39
 460 634 460 634 483 627 c 1,40,-1
 490 614 l 1,41,42
 485 590 485 590 481 562 c 0,43,44
 477 538 477 538 472.5 507 c 128,-1,45
 468 476 468 476 466 442 c 1,46,-1
 390 436 l 1,47,-1
 381 443 l 1,48,-1
 381 453 l 2,49,50
 381 458 381 458 381.5 464 c 128,-1,51
 382 470 382 470 382 478 c 0,52,53
 382 522 382 522 360 540.5 c 128,-1,54
 338 559 338 559 285 559 c 0,55,56
 243 559 243 559 216.5 539.5 c 128,-1,57
 190 520 190 520 190 488 c 0,58,59
 190 469 190 469 201 453.5 c 128,-1,60
 212 438 212 438 230 425 c 128,-1,61
 248 412 248 412 271.5 400 c 128,-1,62
 295 388 295 388 321 376 c 0,63,64
 352 361 352 361 384 344 c 128,-1,65
 416 327 416 327 441.5 305.5 c 128,-1,66
 467 284 467 284 483 255.5 c 128,-1,67
 499 227 499 227 499 190 c 0,68,69
 499 144 499 144 479 107 c 128,-1,70
 459 70 459 70 422.5 43.5 c 128,-1,71
 386 17 386 17 334.5 2.5 c 128,-1,72
 283 -12 283 -12 220 -12 c 0,0,1
EndSplineSet
Position2: "'cpsp' Capital Spacing in Latin lookup 0 subtable" dx=6 dy=0 dh=12 dv=0
EndChar

StartChar: T
Encoding: 84 84 61
Width: 569
GlyphClass: 1
Flags: W
LayerCount: 2
Fore
SplineSet
216 563 m 1,0,1
 175 562 175 562 152 557.5 c 128,-1,2
 129 553 129 553 116.5 539.5 c 128,-1,3
 104 526 104 526 99 501 c 128,-1,4
 94 476 94 476 89 433 c 1,5,-1
 5 427 l 1,6,7
 7 461 7 461 10 498 c 0,8,9
 12 529 12 529 13.5 567 c 128,-1,10
 15 605 15 605 16 642 c 1,11,-1
 27 653 l 1,12,-1
 128 642 l 1,13,-1
 439 642 l 1,14,-1
 542 653 l 1,15,-1
 553 642 l 1,16,17
 554 604 554 604 555.5 567 c 128,-1,18
 557 530 557 530 559 500 c 0,19,20
 561 465 561 465 563 433 c 1,21,-1
 479 427 l 1,22,23
 473 473 473 473 468 499.5 c 128,-1,24
 463 526 463 526 451 539.5 c 128,-1,25
 439 553 439 553 417.5 557.5 c 128,-1,26
 396 562 396 562 358 563 c 1,27,28
 356 530 356 530 354 479.5 c 128,-1,29
 352 429 352 429 350.5 371 c 128,-1,30
 349 313 349 313 348 251.5 c 128,-1,31
 347 190 347 190 347 135 c 0,32,33
 347 97 347 97 359.5 82 c 128,-1,34
 372 67 372 67 402 67 c 0,35,36
 413 67 413 67 422.5 67 c 128,-1,37
 432 67 432 67 440 68 c 256,38,39
 448 69 448 69 455 70 c 1,40,-1
 459 65 l 1,41,-1
 450 -4 l 1,42,43
 415 -3 415 -3 382 -2 c 0,44,45
 354 -1 354 -1 325 -0.5 c 128,-1,46
 296 0 296 0 276 0 c 0,47,48
 255 0 255 0 226 -1 c 128,-1,49
 197 -2 197 -2 171 -3 c 0,50,51
 140 -5 140 -5 108 -6 c 1,52,-1
 116 60 l 1,53,54
 149 63 149 63 168.5 68 c 128,-1,55
 188 73 188 73 198.5 84 c 128,-1,56
 209 95 209 95 212.5 114 c 128,-1,57
 216 133 216 133 216 165 c 2,58,-1
 216 563 l 1,0,1
EndSplineSet
Position2: "'cpsp' Capital Spacing in Latin lookup 0 subtable" dx=6 dy=0 dh=12 dv=0
EndChar

StartChar: U
Encoding: 85 85 62
Width: 655
GlyphClass: 1
Flags: W
LayerCount: 2
Fore
SplineSet
219 236 m 2,0,1
 219 161 219 161 251 120 c 128,-1,2
 283 79 283 79 343 79 c 0,3,4
 465 79 465 79 465 209 c 0,5,6
 465 221 465 221 465 241.5 c 128,-1,7
 465 262 465 262 464.5 286.5 c 128,-1,8
 464 311 464 311 463.5 338 c 128,-1,9
 463 365 463 365 463 391 c 0,10,11
 462 453 462 453 461 523 c 0,12,13
 460 556 460 556 454 566.5 c 128,-1,14
 448 577 448 577 429 577 c 0,15,16
 424 577 424 577 418.5 576.5 c 128,-1,17
 413 576 413 576 408 576 c 0,18,19
 402 575 402 575 396 575 c 1,20,-1
 394 579 l 1,21,-1
 402 645 l 1,22,23
 424 644 424 644 446 643 c 0,24,25
 464 642 464 642 484.5 642 c 128,-1,26
 505 642 505 642 519 642 c 0,27,28
 538 642 538 642 559.5 642.5 c 128,-1,29
 581 643 581 643 598 645 c 0,30,31
 618 646 618 646 638 648 c 1,32,-1
 632 581 l 1,33,34
 613 577 613 577 601.5 573 c 128,-1,35
 590 569 590 569 584 564 c 128,-1,36
 578 559 578 559 576 551 c 128,-1,37
 574 543 574 543 574 531 c 2,38,-1
 574 220 l 2,39,40
 574 107 574 107 508 47.5 c 128,-1,41
 442 -12 442 -12 316 -12 c 0,42,43
 84 -12 84 -12 84 204 c 2,44,-1
 84 523 l 2,45,46
 84 556 84 556 78 566.5 c 128,-1,47
 72 577 72 577 52 577 c 0,48,49
 47 577 47 577 42 576.5 c 128,-1,50
 37 576 37 576 32 576 c 0,51,52
 26 575 26 575 20 575 c 1,53,-1
 18 579 l 1,54,-1
 27 645 l 1,55,56
 51 644 51 644 77 643 c 0,57,58
 99 642 99 642 123.5 642 c 128,-1,59
 148 642 148 642 170 642 c 0,60,61
 185 642 185 642 205.5 642.5 c 128,-1,62
 226 643 226 643 245 645 c 0,63,64
 267 646 267 646 289 648 c 1,65,-1
 282 580 l 1,66,67
 250 576 250 576 239 564.5 c 128,-1,68
 228 553 228 553 226 527 c 2,69,-1
 219 236 l 2,0,1
EndSplineSet
Position2: "'cpsp' Capital Spacing in Latin lookup 0 subtable" dx=6 dy=0 dh=12 dv=0
EndChar

StartChar: V
Encoding: 86 86 63
Width: 625
GlyphClass: 1
Flags: W
LayerCount: 2
Fore
SplineSet
72 515 m 0,0,1
 63 547 63 547 45.5 561 c 128,-1,2
 28 575 28 575 -3 577 c 1,3,-1
 -7 584 l 1,4,-1
 0 644 l 1,5,6
 24 643 24 643 47 643 c 0,7,8
 67 642 67 642 88 642 c 128,-1,9
 109 642 109 642 126 642 c 0,10,11
 154 642 154 642 184 643 c 128,-1,12
 214 644 214 644 239 646 c 0,13,14
 268 648 268 648 296 650 c 1,15,-1
 302 642 l 1,16,-1
 297 581 l 1,17,18
 272 579 272 579 257 576.5 c 128,-1,19
 242 574 242 574 233.5 570 c 128,-1,20
 225 566 225 566 222.5 559.5 c 128,-1,21
 220 553 220 553 220 543 c 0,22,23
 220 536 220 536 224 514.5 c 128,-1,24
 228 493 228 493 234 463 c 128,-1,25
 240 433 240 433 248 396.5 c 128,-1,26
 256 360 256 360 265 323 c 0,27,28
 285 236 285 236 311 131 c 1,29,-1
 326 131 l 1,30,31
 333 148 333 148 345 183.5 c 128,-1,32
 357 219 357 219 371 263 c 128,-1,33
 385 307 385 307 399.5 354 c 128,-1,34
 414 401 414 401 425.5 441 c 128,-1,35
 437 481 437 481 444.5 510 c 128,-1,36
 452 539 452 539 452 547 c 0,37,38
 452 564 452 564 441 571 c 128,-1,39
 430 578 430 578 401 578 c 2,40,-1
 362 578 l 1,41,-1
 357 585 l 1,42,-1
 364 647 l 1,43,44
 388 645 388 645 414 644 c 0,45,46
 436 643 436 643 462 642.5 c 128,-1,47
 488 642 488 642 512 642 c 0,48,49
 532 642 532 642 552 642 c 128,-1,50
 572 642 572 642 589 643 c 0,51,52
 608 643 608 643 628 644 c 1,53,-1
 621 578 l 1,54,55
 597 574 597 574 587 564 c 128,-1,56
 577 554 577 554 567 526 c 2,57,-1
 383 5 l 1,58,-1
 218 -15 l 1,59,60
 192 84 192 84 166 180 c 0,61,62
 155 221 155 221 143 265 c 128,-1,63
 131 309 131 309 118.5 353 c 128,-1,64
 106 397 106 397 94 438.5 c 128,-1,65
 82 480 82 480 72 515 c 0,0,1
EndSplineSet
Position2: "'cpsp' Capital Spacing in Latin lookup 0 subtable" dx=6 dy=0 dh=12 dv=0
EndChar

StartChar: W
Encoding: 87 87 64
Width: 964
GlyphClass: 1
Flags: W
LayerCount: 2
Fore
SplineSet
572 -15 m 1,0,1
 569 2 569 2 561 37.5 c 128,-1,2
 553 73 553 73 541.5 121 c 128,-1,3
 530 169 530 169 516 225.5 c 128,-1,4
 502 282 502 282 486 342 c 1,5,-1
 476 342 l 1,6,-1
 372 5 l 1,7,-1
 211 -15 l 1,8,9
 186 84 186 84 161 180 c 0,10,11
 150 221 150 221 138.5 265 c 128,-1,12
 127 309 127 309 115.5 353 c 128,-1,13
 104 397 104 397 92 438.5 c 128,-1,14
 80 480 80 480 70 515 c 0,15,16
 61 547 61 547 44 561 c 128,-1,17
 27 575 27 575 -2 577 c 1,18,-1
 -6 584 l 1,19,-1
 1 644 l 1,20,21
 24 643 24 643 46 643 c 0,22,23
 65 642 65 642 86 642 c 128,-1,24
 107 642 107 642 123 642 c 0,25,26
 153 642 153 642 182.5 643 c 128,-1,27
 212 644 212 644 235 646 c 0,28,29
 262 648 262 648 287 650 c 1,30,-1
 292 642 l 1,31,-1
 287 581 l 1,32,33
 263 579 263 579 248.5 576.5 c 128,-1,34
 234 574 234 574 225.5 570 c 128,-1,35
 217 566 217 566 214.5 560 c 128,-1,36
 212 554 212 554 212 544 c 0,37,38
 212 536 212 536 216 514.5 c 128,-1,39
 220 493 220 493 226 462.5 c 128,-1,40
 232 432 232 432 240 395.5 c 128,-1,41
 248 359 248 359 256 322 c 0,42,43
 275 236 275 236 301 131 c 1,44,-1
 314 131 l 1,45,46
 323 156 323 156 337 200 c 128,-1,47
 351 244 351 244 366.5 295 c 128,-1,48
 382 346 382 346 397 398 c 128,-1,49
 412 450 412 450 424 491 c 1,50,51
 422 503 422 503 420 513.5 c 128,-1,52
 418 524 418 524 416 533 c 0,53,54
 411 558 411 558 394.5 567 c 128,-1,55
 378 576 378 576 343 577 c 1,56,-1
 338 584 l 1,57,-1
 346 644 l 1,58,59
 371 643 371 643 397 643 c 0,60,61
 418 642 418 642 442 642 c 128,-1,62
 466 642 466 642 483 642 c 0,63,64
 511 642 511 642 540.5 643 c 128,-1,65
 570 644 570 644 593 646 c 0,66,67
 620 648 620 648 646 650 c 1,68,-1
 651 642 l 1,69,-1
 646 581 l 1,70,71
 622 579 622 579 607 576.5 c 128,-1,72
 592 574 592 574 584 570 c 128,-1,73
 576 566 576 566 573.5 559.5 c 128,-1,74
 571 553 571 553 571 543 c 0,75,76
 571 536 571 536 575 514.5 c 128,-1,77
 579 493 579 493 585 463 c 128,-1,78
 591 433 591 433 599 396.5 c 128,-1,79
 607 360 607 360 615 323 c 0,80,81
 634 236 634 236 660 131 c 1,82,-1
 673 131 l 1,83,84
 679 149 679 149 691 184.5 c 128,-1,85
 703 220 703 220 716.5 264 c 128,-1,86
 730 308 730 308 744 355 c 128,-1,87
 758 402 758 402 769.5 443 c 128,-1,88
 781 484 781 484 788.5 513 c 128,-1,89
 796 542 796 542 796 550 c 0,90,91
 796 566 796 566 785 572 c 128,-1,92
 774 578 774 578 746 578 c 2,93,-1
 708 578 l 1,94,-1
 703 585 l 1,95,-1
 711 647 l 1,96,97
 735 645 735 645 760 644 c 0,98,99
 781 643 781 643 806 642.5 c 128,-1,100
 831 642 831 642 854 642 c 0,101,102
 873 642 873 642 892.5 642 c 128,-1,103
 912 642 912 642 929 643 c 0,104,105
 948 643 948 643 966 644 c 1,106,-1
 959 578 l 1,107,108
 948 576 948 576 940 573 c 128,-1,109
 932 570 932 570 926.5 564.5 c 128,-1,110
 921 559 921 559 916.5 550 c 128,-1,111
 912 541 912 541 907 526 c 2,112,-1
 731 5 l 1,113,-1
 572 -15 l 1,0,1
EndSplineSet
Position2: "'cpsp' Capital Spacing in Latin lookup 0 subtable" dx=6 dy=0 dh=12 dv=0
EndChar

StartChar: X
Encoding: 88 88 65
Width: 682
GlyphClass: 1
Flags: W
LayerCount: 2
Fore
SplineSet
257 331 m 1,0,-1
 150 491 l 2,1,2
 121 533 121 533 92 550 c 128,-1,3
 63 567 63 567 22 575 c 1,4,-1
 18 580 l 1,5,-1
 26 644 l 1,6,7
 51 643 51 643 77 643 c 0,8,9
 100 642 100 642 128 642 c 128,-1,10
 156 642 156 642 185 642 c 0,11,12
 208 642 208 642 235 642.5 c 128,-1,13
 262 643 262 643 285 645 c 0,14,15
 311 647 311 647 338 649 c 1,16,-1
 343 640 l 1,17,-1
 338 582 l 1,18,19
 306 580 306 580 292 573 c 128,-1,20
 278 566 278 566 278 552 c 0,21,22
 278 536 278 536 303 497 c 128,-1,23
 328 458 328 458 367 400 c 1,24,25
 380 420 380 420 397 443.5 c 128,-1,26
 414 467 414 467 429 489.5 c 128,-1,27
 444 512 444 512 454.5 530 c 128,-1,28
 465 548 465 548 465 557 c 0,29,30
 465 569 465 569 454 574.5 c 128,-1,31
 443 580 443 580 416 582 c 1,32,-1
 414 587 l 1,33,-1
 420 645 l 1,34,35
 429 645 429 645 445 644.5 c 128,-1,36
 461 644 461 644 479 643.5 c 128,-1,37
 497 643 497 643 516 642.5 c 128,-1,38
 535 642 535 642 552 642 c 0,39,40
 570 642 570 642 589.5 642 c 128,-1,41
 609 642 609 642 626 643 c 0,42,43
 645 644 645 644 664 645 c 1,44,-1
 668 638 l 1,45,-1
 663 577 l 1,46,47
 640 569 640 569 622.5 560 c 128,-1,48
 605 551 605 551 590.5 539 c 128,-1,49
 576 527 576 527 562 510 c 128,-1,50
 548 493 548 493 531 470 c 2,51,-1
 423 321 l 1,52,-1
 540 152 l 2,53,54
 569 110 569 110 599.5 90 c 128,-1,55
 630 70 630 70 672 68 c 1,56,-1
 675 64 l 1,57,-1
 667 -2 l 1,58,59
 642 -2 642 -2 618 -1 c 0,60,61
 598 0 598 0 575.5 0.5 c 128,-1,62
 553 1 553 1 537 1 c 0,63,64
 517 1 517 1 487 0 c 128,-1,65
 457 -1 457 -1 428 -3 c 0,66,67
 394 -5 394 -5 357 -7 c 1,68,-1
 352 0 l 1,69,-1
 358 61 l 1,70,71
 412 64 412 64 412 89 c 0,72,73
 412 102 412 102 397 125 c 2,74,-1
 311 252 l 1,75,-1
 245 159 l 2,76,77
 226 133 226 133 218 118.5 c 128,-1,78
 210 104 210 104 210 93 c 0,79,80
 210 66 210 66 259 63 c 1,81,-1
 263 56 l 1,82,-1
 257 -6 l 1,83,84
 230 -5 230 -5 205 -3 c 0,85,86
 184 -1 184 -1 162 0 c 128,-1,87
 140 1 140 1 127 1 c 0,88,89
 112 1 112 1 92 0 c 128,-1,90
 72 -1 72 -1 54 -2 c 0,91,92
 33 -3 33 -3 11 -4 c 1,93,-1
 7 6 l 1,94,-1
 13 66 l 1,95,96
 47 78 47 78 84 115 c 128,-1,97
 121 152 121 152 158 200 c 2,98,-1
 257 331 l 1,0,-1
EndSplineSet
Position2: "'cpsp' Capital Spacing in Latin lookup 0 subtable" dx=6 dy=0 dh=12 dv=0
EndChar

StartChar: Y
Encoding: 89 89 66
Width: 598
GlyphClass: 1
Flags: W
LayerCount: 2
Fore
SplineSet
227 552 m 0,0,1
 227 543 227 543 239 513.5 c 128,-1,2
 251 484 251 484 266 449.5 c 128,-1,3
 281 415 281 415 294.5 385 c 128,-1,4
 308 355 308 355 312 346 c 1,5,-1
 322 346 l 1,6,-1
 401 511 l 2,7,8
 415 539 415 539 415 559 c 0,9,10
 415 570 415 570 403 575 c 128,-1,11
 391 580 391 580 364 582 c 1,12,-1
 362 587 l 1,13,-1
 369 645 l 1,14,15
 378 645 378 645 394 644.5 c 128,-1,16
 410 644 410 644 428.5 643 c 128,-1,17
 447 642 447 642 466 641.5 c 128,-1,18
 485 641 485 641 502 641 c 256,19,20
 519 641 519 641 537 641.5 c 128,-1,21
 555 642 555 642 570 643 c 0,22,23
 588 644 588 644 604 645 c 1,24,-1
 608 638 l 1,25,-1
 601 577 l 1,26,27
 580 570 580 570 564.5 560 c 128,-1,28
 549 550 549 550 535.5 535 c 128,-1,29
 522 520 522 520 509 498.5 c 128,-1,30
 496 477 496 477 480 449 c 2,31,-1
 384 270 l 2,32,33
 377 256 377 256 373.5 243.5 c 128,-1,34
 370 231 370 231 368.5 215 c 128,-1,35
 367 199 367 199 366.5 179 c 128,-1,36
 366 159 366 159 366 132 c 0,37,38
 365 95 365 95 375 81 c 128,-1,39
 385 67 385 67 413 67 c 0,40,41
 421 67 421 67 429.5 67 c 128,-1,42
 438 67 438 67 446 68 c 0,43,44
 455 69 455 69 463 70 c 1,45,-1
 466 65 l 1,46,-1
 457 -4 l 1,47,48
 424 -3 424 -3 393 -2 c 0,49,50
 367 -1 367 -1 339 -0.5 c 128,-1,51
 311 0 311 0 292 0 c 0,52,53
 270 0 270 0 243.5 -2 c 128,-1,54
 217 -4 217 -4 193 -6 c 0,55,56
 165 -9 165 -9 136 -11 c 1,57,-1
 143 58 l 1,58,59
 172 62 172 62 190 67.5 c 128,-1,60
 208 73 208 73 217.5 83.5 c 128,-1,61
 227 94 227 94 230 110.5 c 128,-1,62
 233 127 233 127 233 152 c 2,63,-1
 233 182 l 2,64,65
 233 208 233 208 227 229.5 c 128,-1,66
 221 251 221 251 204 284 c 2,67,-1
 106 475 l 2,68,69
 95 497 95 497 84.5 514 c 128,-1,70
 74 531 74 531 61.5 543 c 128,-1,71
 49 555 49 555 32.5 562.5 c 128,-1,72
 16 570 16 570 -7 575 c 1,73,-1
 -10 580 l 1,74,-1
 -2 644 l 1,75,76
 23 643 23 643 47 642 c 0,77,78
 67 641 67 641 89.5 641 c 128,-1,79
 112 641 112 641 127 641 c 0,80,81
 146 641 146 641 173 642 c 128,-1,82
 200 643 200 643 226 645 c 0,83,84
 256 647 256 647 287 649 c 1,85,-1
 292 640 l 1,86,-1
 287 582 l 1,87,88
 253 580 253 580 240 573.5 c 128,-1,89
 227 567 227 567 227 552 c 0,0,1
EndSplineSet
Position2: "'cpsp' Capital Spacing in Latin lookup 0 subtable" dx=6 dy=0 dh=12 dv=0
EndChar

StartChar: Z
Encoding: 90 90 67
Width: 580
GlyphClass: 1
Flags: W
LayerCount: 2
Fore
SplineSet
514 -3 m 1,0,-1
 119 3 l 1,1,-1
 44 -5 l 1,2,-1
 19 40 l 1,3,-1
 370 569 l 1,4,-1
 243 561 l 2,5,6
 211 557 211 557 190 550 c 128,-1,7
 169 543 169 543 156 528.5 c 128,-1,8
 143 514 143 514 137 491.5 c 128,-1,9
 131 469 131 469 128 434 c 1,10,-1
 43 428 l 1,11,12
 46 463 46 463 50 501 c 0,13,14
 53 533 53 533 55.5 571 c 128,-1,15
 58 609 58 609 60 644 c 1,16,-1
 70 654 l 1,17,-1
 248 643 l 1,18,-1
 541 640 l 1,19,-1
 559 599 l 1,20,21
 495 514 495 514 437.5 432 c 128,-1,22
 380 350 380 350 333 279.5 c 128,-1,23
 286 209 286 209 251 155 c 128,-1,24
 216 101 216 101 198 73 c 1,25,-1
 354 84 l 2,26,27
 405 89 405 89 432 124.5 c 128,-1,28
 459 160 459 160 471 238 c 1,29,-1
 556 245 l 1,30,31
 550 207 550 207 545 167 c 0,32,33
 540 133 540 133 536.5 93 c 128,-1,34
 533 53 533 53 531 16 c 1,35,-1
 514 -3 l 1,0,-1
EndSplineSet
Position2: "'cpsp' Capital Spacing in Latin lookup 0 subtable" dx=6 dy=0 dh=12 dv=0
EndChar

StartChar: bracketleft
Encoding: 91 91 68
Width: 317
GlyphClass: 1
Flags: W
LayerCount: 2
Fore
SplineSet
81 -121 m 1,0,1
 83 -43 83 -43 86 29 c 0,2,3
 87 59 87 59 88 91.5 c 128,-1,4
 89 124 89 124 90 154 c 128,-1,5
 91 184 91 184 91.5 210 c 128,-1,6
 92 236 92 236 92 255 c 256,7,8
 92 274 92 274 91.5 300 c 128,-1,9
 91 326 91 326 90 356.5 c 128,-1,10
 89 387 89 387 88 419 c 128,-1,11
 87 451 87 451 86 482 c 0,12,13
 83 554 83 554 81 634 c 1,14,-1
 299 645 l 1,15,-1
 303 637 l 1,16,-1
 296 580 l 1,17,-1
 192 560 l 1,18,-1
 192 -47 l 1,19,-1
 299 -68 l 1,20,-1
 303 -77 l 1,21,-1
 296 -132 l 1,22,-1
 81 -121 l 1,0,1
EndSplineSet
EndChar

StartChar: backslash
Encoding: 92 92 69
Width: 329
GlyphClass: 1
Flags: W
LayerCount: 2
Fore
SplineSet
24 675 m 1,0,-1
 105 675 l 1,1,-1
 220 226 l 2,2,3
 234 169 234 169 250 111 c 128,-1,4
 266 53 266 53 280 6 c 0,5,6
 296 -49 296 -49 311 -99 c 1,7,-1
 302 -110 l 1,8,-1
 217 -110 l 1,9,10
 205 -63 205 -63 191 -9 c 0,11,12
 179 37 179 37 164 94.5 c 128,-1,13
 149 152 149 152 133 215 c 0,14,15
 125 245 125 245 115.5 280.5 c 128,-1,16
 106 316 106 316 96 353 c 128,-1,17
 86 390 86 390 75.5 427 c 128,-1,18
 65 464 65 464 56 498 c 0,19,20
 34 578 34 578 12 660 c 1,21,-1
 24 675 l 1,0,-1
EndSplineSet
EndChar

StartChar: bracketright
Encoding: 93 93 70
Width: 317
GlyphClass: 1
Flags: W
LayerCount: 2
Fore
SplineSet
236 634 m 1,0,1
 233 554 233 554 230 483 c 0,2,3
 229 452 229 452 228 420 c 128,-1,4
 227 388 227 388 226.5 358.5 c 128,-1,5
 226 329 226 329 225.5 303 c 128,-1,6
 225 277 225 277 225 258 c 256,7,8
 225 239 225 239 225.5 213 c 128,-1,9
 226 187 226 187 226.5 156.5 c 128,-1,10
 227 126 227 126 228 94 c 128,-1,11
 229 62 229 62 230 31 c 0,12,13
 233 -41 233 -41 236 -121 c 1,14,-1
 18 -132 l 1,15,-1
 14 -124 l 1,16,-1
 21 -68 l 1,17,-1
 125 -47 l 1,18,-1
 125 560 l 1,19,-1
 18 580 l 1,20,-1
 14 589 l 1,21,-1
 21 645 l 1,22,-1
 236 634 l 1,0,1
EndSplineSet
EndChar

StartChar: asciicircum
Encoding: 94 94 71
Width: 489
GlyphClass: 1
Flags: W
LayerCount: 2
Fore
SplineSet
299 474 m 1,0,1
 313 439 313 439 328 405 c 0,2,3
 341 376 341 376 355 342 c 128,-1,4
 369 308 369 308 381 282 c 0,5,6
 394 253 394 253 407.5 223.5 c 128,-1,7
 421 194 421 194 432 171 c 0,8,9
 445 144 445 144 457 118 c 1,10,-1
 392 76 l 1,11,-1
 376 81 l 1,12,13
 364 107 364 107 352 134 c 0,14,15
 341 157 341 157 328.5 186 c 128,-1,16
 316 215 316 215 303 244 c 2,17,-1
 243 381 l 1,18,-1
 236 381 l 1,19,-1
 186 257 l 2,20,21
 173 228 173 228 161 196 c 128,-1,22
 149 164 149 164 139 138 c 0,23,24
 128 107 128 107 116 77 c 1,25,-1
 39 97 l 1,26,-1
 32 110 l 1,27,28
 44 137 44 137 56 167 c 0,29,30
 67 193 67 193 80 224 c 128,-1,31
 93 255 93 255 107 287 c 2,32,-1
 189 478 l 1,33,-1
 286 482 l 1,34,-1
 299 474 l 1,0,1
EndSplineSet
EndChar

StartChar: underscore
Encoding: 95 95 72
Width: 453
GlyphClass: 1
Flags: W
LayerCount: 2
Fore
SplineSet
463 -101 m 1,0,-1
 452 -178 l 1,1,2
 394 -178 394 -178 329 -178.5 c 128,-1,3
 264 -179 264 -179 202 -179 c 128,-1,4
 140 -179 140 -179 87 -179.5 c 128,-1,5
 34 -180 34 -180 0 -180 c 1,6,-1
 -9 -166 l 1,7,-1
 2 -90 l 1,8,9
 17 -90 17 -90 44.5 -90 c 128,-1,10
 72 -90 72 -90 105.5 -90.5 c 128,-1,11
 139 -91 139 -91 175 -91 c 128,-1,12
 211 -91 211 -91 243 -91 c 0,13,14
 274 -91 274 -91 307.5 -90.5 c 128,-1,15
 341 -90 341 -90 373 -89 c 0,16,17
 393 -89 393 -89 408 -89 c 128,-1,18
 423 -89 423 -89 434 -88 c 0,19,20
 446 -88 446 -88 455 -87 c 1,21,-1
 463 -101 l 1,0,-1
EndSplineSet
EndChar

StartChar: grave
Encoding: 96 96 73
Width: 398
GlyphClass: 1
Flags: W
LayerCount: 2
Fore
SplineSet
65 665 m 1,0,-1
 119 735 l 1,1,-1
 132 736 l 1,2,3
 157 709 157 709 185 681 c 0,4,5
 209 656 209 656 239 626 c 128,-1,6
 269 596 269 596 300 566 c 1,7,-1
 270 527 l 1,8,-1
 255 523 l 1,9,10
 220 549 220 549 186.5 572.5 c 128,-1,11
 153 596 153 596 126 613 c 0,12,13
 94 633 94 633 66 651 c 1,14,-1
 65 665 l 1,0,-1
EndSplineSet
EndChar

StartChar: a
Encoding: 97 97 74
Width: 479
GlyphClass: 1
Flags: W
LayerCount: 2
Fore
SplineSet
278 289 m 2,0,1
 278 332 278 332 256 355.5 c 128,-1,2
 234 379 234 379 193 379 c 0,3,4
 170 379 170 379 149.5 371.5 c 128,-1,5
 129 364 129 364 112 355 c 0,6,7
 93 344 93 344 76 332 c 1,8,-1
 67 337 l 1,9,-1
 49 397 l 1,10,11
 88 418 88 418 123 435 c 0,12,13
 153 449 153 449 184.5 461.5 c 128,-1,14
 216 474 216 474 234 474 c 0,15,16
 278 474 278 474 309.5 463.5 c 128,-1,17
 341 453 341 453 361.5 434.5 c 128,-1,18
 382 416 382 416 391.5 391 c 128,-1,19
 401 366 401 366 401 337 c 0,20,21
 401 324 401 324 398 296.5 c 128,-1,22
 395 269 395 269 391 238 c 128,-1,23
 387 207 387 207 384 177.5 c 128,-1,24
 381 148 381 148 381 132 c 0,25,26
 381 114 381 114 390.5 103 c 128,-1,27
 400 92 400 92 417 92 c 0,28,29
 426 92 426 92 434 94.5 c 128,-1,30
 442 97 442 97 449 100 c 0,31,32
 457 104 457 104 464 109 c 1,33,-1
 480 88 l 1,34,35
 465 63 465 63 449 43 c 0,36,37
 435 26 435 26 418 9.5 c 128,-1,38
 401 -7 401 -7 383 -12 c 1,39,40
 291 -12 291 -12 282 65 c 1,41,-1
 274 68 l 1,42,43
 244 38 244 38 213.5 15 c 128,-1,44
 183 -8 183 -8 164 -8 c 0,45,46
 135 -8 135 -8 110 3 c 128,-1,47
 85 14 85 14 66.5 33.5 c 128,-1,48
 48 53 48 53 37.5 80 c 128,-1,49
 27 107 27 107 27 138 c 256,50,51
 27 169 27 169 43 192 c 128,-1,52
 59 215 59 215 85 221 c 2,53,-1
 277 266 l 1,54,-1
 278 289 l 2,0,1
275 211 m 1,55,-1
 170 182 l 2,56,57
 147 175 147 175 147 150 c 0,58,59
 147 124 147 124 162 106.5 c 128,-1,60
 177 89 177 89 202 89 c 0,61,62
 217 89 217 89 236.5 97 c 128,-1,63
 256 105 256 105 273 117 c 1,64,-1
 275 211 l 1,55,-1
EndSplineSet
Substitution2: "'sups' Superscript in Latin lookup 2 subtable" a.sups
EndChar

StartChar: b
Encoding: 98 98 75
Width: 514
GlyphClass: 1
Flags: W
LayerCount: 2
Fore
SplineSet
67 597 m 2,0,1
 67 629 67 629 58 641 c 128,-1,2
 49 653 49 653 25 653 c 0,3,4
 17 653 17 653 10.5 652.5 c 128,-1,5
 4 652 4 652 2 652 c 2,6,-1
 -2 656 l 1,7,-1
 3 710 l 1,8,9
 38 715 38 715 74.5 720 c 128,-1,10
 111 725 111 725 141 730 c 0,11,12
 176 735 176 735 209 742 c 1,13,-1
 217 723 l 1,14,15
 207 712 207 712 200.5 628 c 128,-1,16
 194 544 194 544 190 406 c 1,17,18
 230 435 230 435 259.5 453 c 128,-1,19
 289 471 289 471 298 471 c 0,20,21
 342 471 342 471 377 455.5 c 128,-1,22
 412 440 412 440 437 411.5 c 128,-1,23
 462 383 462 383 475 342 c 128,-1,24
 488 301 488 301 488 250 c 0,25,26
 488 193 488 193 469.5 145 c 128,-1,27
 451 97 451 97 417.5 62.5 c 128,-1,28
 384 28 384 28 337.5 9 c 128,-1,29
 291 -10 291 -10 236 -10 c 0,30,31
 206 -10 206 -10 177.5 -7.5 c 128,-1,32
 149 -5 149 -5 126 -2 c 0,33,34
 100 2 100 2 77 6 c 1,35,-1
 67 16 l 1,36,-1
 67 597 l 2,0,1
185 88 m 1,37,38
 195 83 195 83 216 78 c 128,-1,39
 237 73 237 73 258 73 c 0,40,41
 306 73 306 73 332 109 c 128,-1,42
 358 145 358 145 358 212 c 0,43,44
 358 287 358 287 331.5 331 c 128,-1,45
 305 375 305 375 261 375 c 0,46,47
 243 375 243 375 222.5 366 c 128,-1,48
 202 357 202 357 188 343 c 1,49,-1
 185 88 l 1,37,38
EndSplineSet
Substitution2: "'sups' Superscript in Latin lookup 2 subtable" b.sups
EndChar

StartChar: c
Encoding: 99 99 76
Width: 432
GlyphClass: 1
Flags: W
LayerCount: 2
Fore
SplineSet
381 115 m 1,0,-1
 397 63 l 1,1,2
 370 42 370 42 344 25 c 0,3,4
 321 11 321 11 295 -0.5 c 128,-1,5
 269 -12 269 -12 246 -12 c 0,6,7
 195 -12 195 -12 154 4 c 128,-1,8
 113 20 113 20 84.5 50 c 128,-1,9
 56 80 56 80 40.5 122.5 c 128,-1,10
 25 165 25 165 25 219 c 0,11,12
 25 275 25 275 43 322 c 128,-1,13
 61 369 61 369 93.5 402.5 c 128,-1,14
 126 436 126 436 170.5 455 c 128,-1,15
 215 474 215 474 269 474 c 0,16,17
 297 474 297 474 320.5 470.5 c 128,-1,18
 344 467 344 467 361 463 c 0,19,20
 380 459 380 459 396 453 c 1,21,-1
 400 444 l 1,22,23
 395 423 395 423 391 398 c 0,24,25
 387 377 387 377 383.5 349 c 128,-1,26
 380 321 380 321 378 289 c 1,27,-1
 313 285 l 1,28,-1
 313 318 l 2,29,30
 313 389 313 389 251 389 c 0,31,32
 205 389 205 389 181.5 355.5 c 128,-1,33
 158 322 158 322 158 257 c 0,34,35
 158 175 158 175 186 132 c 128,-1,36
 214 89 214 89 267 89 c 0,37,38
 287 89 287 89 306.5 93.5 c 128,-1,39
 326 98 326 98 341 103 c 0,40,41
 359 109 359 109 373 118 c 1,42,-1
 381 115 l 1,0,-1
EndSplineSet
Substitution2: "'sups' Superscript in Latin lookup 2 subtable" c.sups
EndChar

StartChar: d
Encoding: 100 100 77
Width: 537
GlyphClass: 1
Flags: W
LayerCount: 2
Fore
SplineSet
331 62 m 1,0,1
 235 -8 235 -8 216 -8 c 0,2,3
 172 -8 172 -8 136.5 7 c 128,-1,4
 101 22 101 22 76.5 50.5 c 128,-1,5
 52 79 52 79 38.5 119.5 c 128,-1,6
 25 160 25 160 25 211 c 0,7,8
 25 268 25 268 44 315.5 c 128,-1,9
 63 363 63 363 96.5 397.5 c 128,-1,10
 130 432 130 432 176.5 451.5 c 128,-1,11
 223 471 223 471 278 471 c 0,12,13
 290 471 290 471 302 471 c 128,-1,14
 314 471 314 471 328 469 c 1,15,-1
 328 595 l 2,16,17
 328 627 328 627 319 639 c 128,-1,18
 310 651 310 651 286 651 c 0,19,20
 281 651 281 651 271 649 c 0,21,22
 267 648 267 648 262 648 c 1,23,-1
 268 709 l 1,24,25
 304 714 304 714 339.5 719.5 c 128,-1,26
 375 725 375 725 404 730 c 0,27,28
 437 736 437 736 468 742 c 1,29,-1
 477 725 l 1,30,31
 471 715 471 715 465 663 c 128,-1,32
 459 611 459 611 455 530.5 c 128,-1,33
 451 450 451 450 448.5 347 c 128,-1,34
 446 244 446 244 446 133 c 0,35,36
 446 114 446 114 454.5 103 c 128,-1,37
 463 92 463 92 478 92 c 0,38,39
 487 92 487 92 495 94.5 c 128,-1,40
 503 97 503 97 509 100 c 0,41,42
 516 104 516 104 523 109 c 1,43,-1
 539 88 l 1,44,45
 525 65 525 65 509 45 c 0,46,47
 495 28 495 28 477 11.5 c 128,-1,48
 459 -5 459 -5 438 -12 c 1,49,50
 348 -12 348 -12 338 60 c 1,51,-1
 331 62 l 1,0,1
328 370 m 1,52,53
 319 374 319 374 308 378 c 0,54,55
 298 381 298 381 285 384 c 128,-1,56
 272 387 272 387 256 387 c 0,57,58
 208 387 208 387 182 351 c 128,-1,59
 156 315 156 315 156 248 c 0,60,61
 156 173 156 173 182.5 129.5 c 128,-1,62
 209 86 209 86 253 86 c 0,63,64
 267 86 267 86 280 91 c 128,-1,65
 293 96 293 96 304 102 c 0,66,67
 316 109 316 109 328 119 c 1,68,-1
 328 370 l 1,52,53
EndSplineSet
Substitution2: "'sups' Superscript in Latin lookup 2 subtable" d.sups
EndChar

StartChar: e
Encoding: 101 101 78
Width: 463
GlyphClass: 1
Flags: W
LayerCount: 2
Fore
SplineSet
289 297 m 2,0,1
 300 299 300 299 304 303 c 128,-1,2
 308 307 308 307 308 320 c 0,3,4
 308 394 308 394 245 394 c 0,5,6
 207 394 207 394 183.5 367.5 c 128,-1,7
 160 341 160 341 155 290 c 1,8,-1
 289 297 l 2,0,1
155 234 m 1,9,-1
 155 225 l 2,10,11
 158 158 158 158 191 122 c 128,-1,12
 224 86 224 86 280 86 c 0,13,14
 303 86 303 86 325 90.5 c 128,-1,15
 347 95 347 95 364 101 c 0,16,17
 383 107 383 107 400 116 c 1,18,-1
 408 113 l 1,19,-1
 424 62 l 1,20,21
 395 41 395 41 365 25 c 0,22,23
 339 11 339 11 309 -0.5 c 128,-1,24
 279 -12 279 -12 252 -12 c 0,25,26
 199 -12 199 -12 157 4 c 128,-1,27
 115 20 115 20 85.5 50 c 128,-1,28
 56 80 56 80 40.5 122.5 c 128,-1,29
 25 165 25 165 25 219 c 256,30,31
 25 273 25 273 43 320 c 128,-1,32
 61 367 61 367 92.5 401 c 128,-1,33
 124 435 124 435 168 454.5 c 128,-1,34
 212 474 212 474 263 474 c 0,35,36
 431 474 431 474 431 302 c 0,37,38
 431 291 431 291 430 281 c 128,-1,39
 429 271 429 271 427 263 c 0,40,41
 425 253 425 253 424 245 c 1,42,-1
 412 234 l 1,43,-1
 155 234 l 1,9,-1
EndSplineSet
Substitution2: "'sups' Superscript in Latin lookup 2 subtable" e.sups
EndChar

StartChar: f
Encoding: 102 102 79
Width: 342
GlyphClass: 1
Flags: W
LayerCount: 2
Fore
SplineSet
24 392 m 1,0,-1
 32 444 l 1,1,-1
 93 454 l 1,2,-1
 93 462 l 2,3,4
 93 526 93 526 111 578 c 128,-1,5
 129 630 129 630 162 666.5 c 128,-1,6
 195 703 195 703 241.5 722.5 c 128,-1,7
 288 742 288 742 345 742 c 0,8,9
 371 742 371 742 392 738.5 c 128,-1,10
 413 735 413 735 428 731 c 0,11,12
 446 727 446 727 460 721 c 1,13,-1
 465 705 l 1,14,15
 460 693 460 693 454 679 c 0,16,17
 449 667 449 667 442.5 650.5 c 128,-1,18
 436 634 436 634 430 616 c 1,19,-1
 417 613 l 1,20,21
 404 623 404 623 387 632 c 0,22,23
 373 639 373 639 354 645 c 128,-1,24
 335 651 335 651 312 651 c 0,25,26
 260 651 260 651 238.5 615.5 c 128,-1,27
 217 580 217 580 216 496 c 2,28,-1
 215 450 l 1,29,30
 242 450 242 450 265.5 450 c 128,-1,31
 289 450 289 450 306 451 c 0,32,33
 326 452 326 452 343 453 c 1,34,-1
 347 448 l 1,35,-1
 336 380 l 1,36,37
 321 380 321 380 302 381 c 0,38,39
 285 382 285 382 262.5 382 c 128,-1,40
 240 382 240 382 214 383 c 1,41,-1
 212 113 l 2,42,43
 212 67 212 67 253 67 c 0,44,45
 264 67 264 67 275 67 c 128,-1,46
 286 67 286 67 295 68 c 0,47,48
 305 68 305 68 314 69 c 1,49,-1
 317 64 l 1,50,-1
 308 -3 l 1,51,52
 279 -3 279 -3 252 -2 c 0,53,54
 229 -1 229 -1 204.5 -0.5 c 128,-1,55
 180 0 180 0 163 0 c 0,56,57
 142 0 142 0 119 -1 c 128,-1,58
 96 -2 96 -2 76 -3 c 0,59,60
 53 -5 53 -5 31 -6 c 1,61,-1
 38 56 l 1,62,63
 67 60 67 60 80 73.5 c 128,-1,64
 93 87 93 87 93 113 c 2,65,-1
 93 346 l 2,66,67
 91 369 91 369 78.5 376.5 c 128,-1,68
 66 384 66 384 28 386 c 1,69,-1
 24 392 l 1,0,-1
EndSplineSet
Substitution2: "Single Substitution lookup 16 subtable" f.t
Substitution2: "Single Substitution lookup 15 subtable" f.l
Substitution2: "Single Substitution lookup 14 subtable" f.f
Substitution2: "'sups' Superscript in Latin lookup 2 subtable" f.sups
EndChar

StartChar: g
Encoding: 103 103 80
Width: 512
GlyphClass: 1
Flags: W
LayerCount: 2
Fore
SplineSet
238 127 m 0,0,1
 222 127 222 127 207 129 c 128,-1,2
 192 131 192 131 176 134 c 1,3,4
 150 117 150 117 150 100 c 0,5,6
 150 65 150 65 247 62 c 0,7,8
 314 60 314 60 360 53 c 128,-1,9
 406 46 406 46 434.5 32.5 c 128,-1,10
 463 19 463 19 475.5 -2.5 c 128,-1,11
 488 -24 488 -24 488 -55 c 0,12,13
 488 -91 488 -91 465.5 -124.5 c 128,-1,14
 443 -158 443 -158 406.5 -184.5 c 128,-1,15
 370 -211 370 -211 322 -226.5 c 128,-1,16
 274 -242 274 -242 223 -242 c 0,17,18
 141 -242 141 -242 92.5 -204 c 128,-1,19
 44 -166 44 -166 44 -101 c 1,20,21
 55 -89 55 -89 71 -76.5 c 128,-1,22
 87 -64 87 -64 104 -53 c 0,23,24
 122 -41 122 -41 144 -28 c 1,25,-1
 144 -22 l 1,26,27
 96 -14 96 -14 67.5 13.5 c 128,-1,28
 39 41 39 41 39 80 c 1,29,30
 50 92 50 92 64.5 104 c 128,-1,31
 79 116 79 116 92 126 c 0,32,33
 107 137 107 137 123 148 c 1,34,-1
 123 155 l 1,35,36
 87 175 87 175 67.5 210.5 c 128,-1,37
 48 246 48 246 48 292 c 0,38,39
 48 331 48 331 63.5 364.5 c 128,-1,40
 79 398 79 398 107 422.5 c 128,-1,41
 135 447 135 447 173 461 c 128,-1,42
 211 475 211 475 256 475 c 0,43,44
 288 475 288 475 311.5 470 c 128,-1,45
 335 465 335 465 358 465 c 0,46,47
 377 467 377 467 401 472 c 128,-1,48
 425 477 425 477 447 483 c 0,49,50
 473 490 473 490 499 498 c 1,51,-1
 505 493 l 1,52,-1
 492 416 l 1,53,54
 481 414 481 414 469 413 c 0,55,56
 458 412 458 412 445.5 411 c 128,-1,57
 433 410 433 410 419 410 c 1,58,-1
 415 404 l 1,59,60
 454 362 454 362 454 306 c 0,61,62
 454 267 454 267 438 234 c 128,-1,63
 422 201 422 201 393 177.5 c 128,-1,64
 364 154 364 154 324.5 140.5 c 128,-1,65
 285 127 285 127 238 127 c 0,0,1
256 195 m 0,66,67
 291 195 291 195 310.5 219.5 c 128,-1,68
 330 244 330 244 330 292 c 0,69,70
 330 343 330 343 307.5 371 c 128,-1,71
 285 399 285 399 244 399 c 0,72,73
 210 399 210 399 191.5 374 c 128,-1,74
 173 349 173 349 173 301 c 0,75,76
 173 250 173 250 195 222.5 c 128,-1,77
 217 195 217 195 256 195 c 0,66,67
259 -167 m 0,78,79
 282 -167 282 -167 303 -161 c 128,-1,80
 324 -155 324 -155 339.5 -145 c 128,-1,81
 355 -135 355 -135 364 -122 c 128,-1,82
 373 -109 373 -109 373 -94 c 0,83,84
 373 -82 373 -82 367.5 -74.5 c 128,-1,85
 362 -67 362 -67 344.5 -60.5 c 128,-1,86
 327 -54 327 -54 294 -48 c 128,-1,87
 261 -42 261 -42 206 -34 c 1,88,89
 195 -44 195 -44 187 -55 c 0,90,91
 180 -65 180 -65 174.5 -77 c 128,-1,92
 169 -89 169 -89 169 -102 c 0,93,94
 169 -131 169 -131 193 -149 c 128,-1,95
 217 -167 217 -167 259 -167 c 0,78,79
EndSplineSet
Substitution2: "'sups' Superscript in Latin lookup 2 subtable" g.sups
EndChar

StartChar: h
Encoding: 104 104 81
Width: 544
GlyphClass: 1
Flags: W
LayerCount: 2
Fore
SplineSet
25 59 m 1,0,1
 52 62 52 62 62 73.5 c 128,-1,2
 72 85 72 85 72 113 c 2,3,-1
 72 597 l 2,4,5
 72 628 72 628 63 640 c 128,-1,6
 54 652 54 652 30 652 c 2,7,-1
 7 652 l 1,8,-1
 2 657 l 1,9,-1
 8 710 l 1,10,11
 43 715 43 715 79.5 720 c 128,-1,12
 116 725 116 725 146 730 c 0,13,14
 181 735 181 735 214 742 c 1,15,-1
 221 723 l 1,16,17
 216 717 216 717 212 690.5 c 128,-1,18
 208 664 208 664 204 620.5 c 128,-1,19
 200 577 200 577 197.5 518 c 128,-1,20
 195 459 195 459 193 387 c 1,21,22
 204 397 204 397 222 412 c 128,-1,23
 240 427 240 427 259.5 440.5 c 128,-1,24
 279 454 279 454 297 464 c 128,-1,25
 315 474 315 474 326 474 c 0,26,27
 399 474 399 474 438 440.5 c 128,-1,28
 477 407 477 407 477 344 c 0,29,30
 477 329 477 329 474 297.5 c 128,-1,31
 471 266 471 266 467.5 230 c 128,-1,32
 464 194 464 194 461 160.5 c 128,-1,33
 458 127 458 127 458 109 c 0,34,35
 458 83 458 83 465 72.5 c 128,-1,36
 472 62 472 62 489 62 c 2,37,-1
 508 62 l 2,38,39
 513 62 513 62 519 63 c 1,40,-1
 521 59 l 1,41,-1
 512 -3 l 1,42,43
 491 -3 491 -3 472 -2 c 0,44,45
 455 -1 455 -1 436 -0.5 c 128,-1,46
 417 0 417 0 403 0 c 0,47,48
 388 0 388 0 368.5 -1 c 128,-1,49
 349 -2 349 -2 332 -4 c 0,50,51
 312 -6 312 -6 291 -8 c 1,52,-1
 297 55 l 1,53,54
 321 61 321 61 331.5 73.5 c 128,-1,55
 342 86 342 86 343 111 c 2,56,-1
 347 282 l 2,57,58
 347 369 347 369 283 369 c 0,59,60
 269 369 269 369 255.5 364 c 128,-1,61
 242 359 242 359 229.5 352.5 c 128,-1,62
 217 346 217 346 207.5 339 c 128,-1,63
 198 332 198 332 192 328 c 1,64,65
 191 276 191 276 190.5 220.5 c 128,-1,66
 190 165 190 165 190 107 c 0,67,68
 190 82 190 82 196.5 72 c 128,-1,69
 203 62 203 62 220 62 c 0,70,71
 223 62 223 62 227.5 62 c 128,-1,72
 232 62 232 62 236 63 c 0,73,74
 240 63 240 63 245 64 c 1,75,-1
 247 58 l 1,76,-1
 237 -3 l 1,77,78
 217 -3 217 -3 198 -2 c 0,79,80
 181 -1 181 -1 162 -0.5 c 128,-1,81
 143 0 143 0 128 0 c 0,82,83
 109 0 109 0 90 -0.5 c 128,-1,84
 71 -1 71 -1 54 -2 c 0,85,86
 35 -3 35 -3 17 -3 c 1,87,-1
 25 59 l 1,0,1
EndSplineSet
Substitution2: "'sups' Superscript in Latin lookup 2 subtable" h.sups
EndChar

StartChar: i
Encoding: 105 105 82
Width: 293
GlyphClass: 1
Flags: W
LayerCount: 2
Fore
SplineSet
148 574 m 0,0,1
 115 574 115 574 96.5 593 c 128,-1,2
 78 612 78 612 78 646 c 0,3,4
 78 682 78 682 100 704 c 128,-1,5
 122 726 122 726 157 726 c 0,6,7
 189 726 189 726 208.5 707 c 128,-1,8
 228 688 228 688 228 654 c 0,9,10
 228 618 228 618 205.5 596 c 128,-1,11
 183 574 183 574 148 574 c 0,0,1
34 53 m 1,12,13
 64 58 64 58 77.5 73 c 128,-1,14
 91 88 91 88 91 115 c 2,15,-1
 91 329 l 2,16,17
 91 361 91 361 81.5 373 c 128,-1,18
 72 385 72 385 48 385 c 0,19,20
 43 385 43 385 33 383 c 0,21,22
 29 382 29 382 25 382 c 1,23,-1
 31 441 l 1,24,25
 66 446 66 446 99.5 451.5 c 128,-1,26
 133 457 133 457 161 462 c 0,27,28
 193 468 193 468 223 474 c 1,29,-1
 232 457 l 1,30,31
 227 446 227 446 222.5 415 c 128,-1,32
 218 384 218 384 215 337.5 c 128,-1,33
 212 291 212 291 210 232 c 128,-1,34
 208 173 208 173 208 106 c 0,35,36
 208 82 208 82 215 72 c 128,-1,37
 222 62 222 62 239 62 c 0,38,39
 243 62 243 62 247.5 62 c 128,-1,40
 252 62 252 62 257 63 c 0,41,42
 262 63 262 63 268 64 c 1,43,-1
 270 60 l 1,44,-1
 260 -3 l 1,45,46
 239 -3 239 -3 220 -2 c 0,47,48
 203 -1 203 -1 184 -0.5 c 128,-1,49
 165 0 165 0 149 0 c 0,50,51
 130 0 130 0 108.5 -2 c 128,-1,52
 87 -4 87 -4 69 -6 c 0,53,54
 47 -9 47 -9 26 -11 c 1,55,-1
 34 53 l 1,12,13
EndSplineSet
Substitution2: "'sups' Superscript in Latin lookup 2 subtable" i.sups
EndChar

StartChar: j
Encoding: 106 106 83
Width: 274
GlyphClass: 1
Flags: W
LayerCount: 2
Fore
SplineSet
7 -214 m 1,0,-1
 9 -202 l 1,1,2
 30 -181 30 -181 44.5 -159.5 c 128,-1,3
 59 -138 59 -138 67 -110.5 c 128,-1,4
 75 -83 75 -83 78.5 -47.5 c 128,-1,5
 82 -12 82 -12 82 36 c 2,6,-1
 82 329 l 2,7,8
 82 361 82 361 74 373 c 128,-1,9
 66 385 66 385 46 385 c 0,10,11
 41 385 41 385 36 384.5 c 128,-1,12
 31 384 31 384 26 383 c 256,13,14
 21 382 21 382 16 382 c 1,15,-1
 22 440 l 1,16,17
 52 445 52 445 85.5 450.5 c 128,-1,18
 119 456 119 456 148 461 c 0,19,20
 181 467 181 467 213 474 c 1,21,-1
 222 457 l 1,22,23
 211 434 211 434 205.5 315.5 c 128,-1,24
 200 197 200 197 200 -14 c 0,25,26
 200 -85 200 -85 157 -145.5 c 128,-1,27
 114 -206 114 -206 39 -244 c 1,28,-1
 7 -214 l 1,0,-1
141 574 m 0,29,30
 107 574 107 574 88.5 593 c 128,-1,31
 70 612 70 612 70 646 c 0,32,33
 70 682 70 682 92 704 c 128,-1,34
 114 726 114 726 150 726 c 0,35,36
 182 726 182 726 201 707 c 128,-1,37
 220 688 220 688 220 654 c 0,38,39
 220 618 220 618 198 596 c 128,-1,40
 176 574 176 574 141 574 c 0,29,30
EndSplineSet
Substitution2: "'sups' Superscript in Latin lookup 2 subtable" j.sups
EndChar

StartChar: k
Encoding: 107 107 84
Width: 519
GlyphClass: 1
Flags: W
LayerCount: 2
Fore
SplineSet
24 57 m 1,0,1
 57 61 57 61 64.5 78 c 128,-1,2
 72 95 72 95 72 134 c 2,3,-1
 72 597 l 2,4,5
 72 623 72 623 65.5 635.5 c 128,-1,6
 59 648 59 648 44 651 c 0,7,8
 36 653 36 653 24.5 652 c 128,-1,9
 13 651 13 651 5 651 c 1,10,-1
 3 664 l 1,11,-1
 8 710 l 1,12,13
 43 715 43 715 79.5 720 c 128,-1,14
 116 725 116 725 146 730 c 0,15,16
 181 735 181 735 214 742 c 1,17,-1
 221 723 l 1,18,19
 214 715 214 715 208.5 664.5 c 128,-1,20
 203 614 203 614 199 531.5 c 128,-1,21
 195 449 195 449 192.5 340 c 128,-1,22
 190 231 190 231 190 106 c 0,23,24
 190 81 190 81 196.5 71 c 128,-1,25
 203 61 203 61 220 61 c 0,26,27
 223 61 223 61 227 61 c 128,-1,28
 231 61 231 61 236 62 c 0,29,30
 240 62 240 62 246 63 c 1,31,-1
 248 57 l 1,32,-1
 237 -4 l 1,33,34
 216 -3 216 -3 197 -2 c 0,35,36
 180 -1 180 -1 161.5 -0.5 c 128,-1,37
 143 0 143 0 128 0 c 0,38,39
 109 0 109 0 90 -1 c 128,-1,40
 71 -2 71 -2 54 -3 c 0,41,42
 35 -5 35 -5 17 -6 c 1,43,-1
 24 57 l 1,0,1
205 236 m 1,44,-1
 208 258 l 1,45,-1
 304 354 l 2,46,47
 316 366 316 366 320.5 373 c 128,-1,48
 325 380 325 380 325 388 c 0,49,50
 325 399 325 399 313.5 403.5 c 128,-1,51
 302 408 302 408 273 408 c 1,52,-1
 270 413 l 1,53,-1
 279 464 l 1,54,55
 299 463 299 463 320 463 c 0,56,57
 338 462 338 462 359 462 c 128,-1,58
 380 462 380 462 399 462 c 0,59,60
 416 462 416 462 435 462.5 c 128,-1,61
 454 463 454 463 470 464 c 0,62,63
 488 465 488 465 507 466 c 1,64,-1
 510 461 l 1,65,-1
 501 404 l 1,66,67
 477 395 477 395 454 379 c 128,-1,68
 431 363 431 363 409 343.5 c 128,-1,69
 387 324 387 324 365.5 302.5 c 128,-1,70
 344 281 344 281 324 261 c 1,71,-1
 408 131 l 2,72,73
 433 95 433 95 457 77 c 128,-1,74
 481 59 481 59 510 57 c 1,75,-1
 514 49 l 1,76,-1
 507 -1 l 1,77,78
 492 -4 492 -4 479 -7 c 0,79,80
 468 -9 468 -9 455.5 -11 c 128,-1,81
 443 -13 443 -13 434 -13 c 0,82,83
 420 -14 420 -14 408.5 -13 c 128,-1,84
 397 -12 397 -12 390 -10 c 0,85,86
 364 -4 364 -4 345.5 13 c 128,-1,87
 327 30 327 30 305 68 c 2,88,-1
 205 236 l 1,44,-1
EndSplineSet
Substitution2: "'sups' Superscript in Latin lookup 2 subtable" k.sups
EndChar

StartChar: l
Encoding: 108 108 85
Width: 265
GlyphClass: 1
Flags: W
LayerCount: 2
Fore
SplineSet
23 54 m 1,0,1
 40 58 40 58 50 64 c 128,-1,2
 60 70 60 70 65 79 c 128,-1,3
 70 88 70 88 71 101.5 c 128,-1,4
 72 115 72 115 72 134 c 2,5,-1
 72 597 l 2,6,7
 72 623 72 623 65.5 635.5 c 128,-1,8
 59 648 59 648 44 651 c 0,9,10
 36 653 36 653 24.5 652 c 128,-1,11
 13 651 13 651 5 651 c 1,12,-1
 3 664 l 1,13,-1
 8 710 l 1,14,15
 43 715 43 715 79.5 720 c 128,-1,16
 116 725 116 725 146 730 c 0,17,18
 181 735 181 735 214 742 c 1,19,-1
 221 723 l 1,20,21
 214 715 214 715 208.5 664.5 c 128,-1,22
 203 614 203 614 199 531.5 c 128,-1,23
 195 449 195 449 192.5 340 c 128,-1,24
 190 231 190 231 190 106 c 0,25,26
 190 81 190 81 196.5 71 c 128,-1,27
 203 61 203 61 219 61 c 0,28,29
 222 61 222 61 228 61 c 128,-1,30
 234 61 234 61 239 62 c 0,31,32
 245 62 245 62 253 63 c 1,33,-1
 255 57 l 1,34,-1
 245 -3 l 1,35,36
 223 -3 223 -3 202 -2 c 0,37,38
 184 -1 184 -1 164.5 -0.5 c 128,-1,39
 145 0 145 0 130 0 c 0,40,41
 111 0 111 0 91 -1.5 c 128,-1,42
 71 -3 71 -3 54 -5 c 0,43,44
 34 -7 34 -7 15 -9 c 1,45,-1
 23 54 l 1,0,1
EndSplineSet
Substitution2: "'sups' Superscript in Latin lookup 2 subtable" l.sups
EndChar

StartChar: m
Encoding: 109 109 86
Width: 839
GlyphClass: 1
Flags: W
LayerCount: 2
Fore
SplineSet
318 55 m 1,0,1
 342 61 342 61 352.5 73.5 c 128,-1,2
 363 86 363 86 364 111 c 2,3,-1
 367 282 l 2,4,5
 367 369 367 369 303 369 c 0,6,7
 278 369 278 369 254 355 c 128,-1,8
 230 341 230 341 217 331 c 1,9,10
 215 304 215 304 213.5 269.5 c 128,-1,11
 212 235 212 235 210.5 203 c 128,-1,12
 209 171 209 171 208 144.5 c 128,-1,13
 207 118 207 118 207 108 c 0,14,15
 207 82 207 82 213.5 72.5 c 128,-1,16
 220 63 220 63 237 63 c 0,17,18
 240 63 240 63 244 63 c 128,-1,19
 248 63 248 63 253 64 c 0,20,21
 257 64 257 64 263 65 c 1,22,-1
 266 60 l 1,23,-1
 255 -3 l 1,24,25
 235 -3 235 -3 217 -2 c 0,26,27
 200 -1 200 -1 182 -0.5 c 128,-1,28
 164 0 164 0 149 0 c 0,29,30
 129 0 129 0 108 -0.5 c 128,-1,31
 87 -1 87 -1 70 -2 c 0,32,33
 50 -3 50 -3 30 -3 c 1,34,-1
 38 60 l 1,35,36
 67 62 67 62 78.5 73.5 c 128,-1,37
 90 85 90 85 90 113 c 2,38,-1
 90 323 l 2,39,40
 90 358 90 358 80 370.5 c 128,-1,41
 70 383 70 383 41 383 c 2,42,-1
 28 383 l 1,43,-1
 24 388 l 1,44,-1
 30 441 l 1,45,46
 64 446 64 446 97.5 452 c 128,-1,47
 131 458 131 458 157 463 c 0,48,49
 188 468 188 468 216 474 c 1,50,-1
 224 464 l 1,51,52
 221 453 221 453 219 442 c 0,53,54
 215 423 215 423 213 395 c 1,55,-1
 216 392 l 1,56,57
 229 402 229 402 247.5 416.5 c 128,-1,58
 266 431 266 431 284.5 443.5 c 128,-1,59
 303 456 303 456 320 465 c 128,-1,60
 337 474 337 474 346 474 c 0,61,62
 462 474 462 474 488 390 c 1,63,64
 499 400 499 400 517.5 414 c 128,-1,65
 536 428 536 428 555.5 441.5 c 128,-1,66
 575 455 575 455 592.5 464.5 c 128,-1,67
 610 474 610 474 620 474 c 0,68,69
 692 474 692 474 731.5 440 c 128,-1,70
 771 406 771 406 771 344 c 0,71,72
 771 329 771 329 768 297.5 c 128,-1,73
 765 266 765 266 762 230 c 128,-1,74
 759 194 759 194 756 160.5 c 128,-1,75
 753 127 753 127 753 109 c 0,76,77
 753 83 753 83 760.5 72.5 c 128,-1,78
 768 62 768 62 785 62 c 2,79,-1
 804 62 l 2,80,81
 809 62 809 62 815 63 c 1,82,-1
 817 59 l 1,83,-1
 807 -3 l 1,84,85
 787 -3 787 -3 767 -2 c 0,86,87
 750 -1 750 -1 730.5 -0.5 c 128,-1,88
 711 0 711 0 697 0 c 0,89,90
 682 0 682 0 663.5 -1 c 128,-1,91
 645 -2 645 -2 628 -3 c 0,92,93
 609 -4 609 -4 589 -5 c 1,94,-1
 595 59 l 1,95,96
 618 62 618 62 627.5 73.5 c 128,-1,97
 637 85 637 85 638 111 c 2,98,-1
 641 282 l 2,99,100
 641 369 641 369 577 369 c 0,101,102
 553 369 553 369 529.5 356 c 128,-1,103
 506 343 506 343 493 333 c 1,104,-1
 480 109 l 2,105,106
 480 83 480 83 486.5 72.5 c 128,-1,107
 493 62 493 62 510 62 c 2,108,-1
 528 62 l 2,109,110
 533 62 533 62 538 63 c 1,111,-1
 540 59 l 1,112,-1
 530 -3 l 1,113,114
 510 -3 510 -3 491 -2 c 0,115,116
 474 -1 474 -1 456 -0.5 c 128,-1,117
 438 0 438 0 424 0 c 0,118,119
 409 0 409 0 389.5 -1 c 128,-1,120
 370 -2 370 -2 353 -4 c 0,121,122
 333 -6 333 -6 312 -8 c 1,123,-1
 318 55 l 1,0,1
EndSplineSet
Substitution2: "'sups' Superscript in Latin lookup 2 subtable" m.sups
EndChar

StartChar: n
Encoding: 110 110 87
Width: 570
GlyphClass: 1
Flags: W
LayerCount: 2
Fore
SplineSet
318 55 m 1,0,1
 342 61 342 61 352.5 73.5 c 128,-1,2
 363 86 363 86 364 111 c 2,3,-1
 367 282 l 2,4,5
 367 369 367 369 303 369 c 0,6,7
 278 369 278 369 254 355 c 128,-1,8
 230 341 230 341 217 332 c 1,9,10
 215 305 215 305 213.5 270.5 c 128,-1,11
 212 236 212 236 210.5 203.5 c 128,-1,12
 209 171 209 171 208 144.5 c 128,-1,13
 207 118 207 118 207 108 c 0,14,15
 207 82 207 82 213.5 72.5 c 128,-1,16
 220 63 220 63 237 63 c 0,17,18
 240 63 240 63 244 63 c 128,-1,19
 248 63 248 63 253 64 c 0,20,21
 257 64 257 64 263 65 c 1,22,-1
 266 60 l 1,23,-1
 255 -3 l 1,24,25
 235 -3 235 -3 217 -2 c 0,26,27
 200 -1 200 -1 182 -0.5 c 128,-1,28
 164 0 164 0 149 0 c 0,29,30
 129 0 129 0 108 -1 c 128,-1,31
 87 -2 87 -2 70 -3 c 0,32,33
 50 -5 50 -5 30 -6 c 1,34,-1
 38 58 l 1,35,36
 67 61 67 61 78.5 73 c 128,-1,37
 90 85 90 85 90 113 c 2,38,-1
 90 323 l 2,39,40
 90 358 90 358 80 370.5 c 128,-1,41
 70 383 70 383 41 383 c 2,42,-1
 28 383 l 1,43,-1
 24 388 l 1,44,-1
 30 441 l 1,45,46
 64 446 64 446 97.5 452 c 128,-1,47
 131 458 131 458 157 463 c 0,48,49
 188 468 188 468 216 474 c 1,50,-1
 224 464 l 1,51,52
 221 453 221 453 219 442 c 0,53,54
 215 423 215 423 213 395 c 1,55,-1
 217 391 l 1,56,57
 229 401 229 401 247 415.5 c 128,-1,58
 265 430 265 430 283.5 443 c 128,-1,59
 302 456 302 456 319 465 c 128,-1,60
 336 474 336 474 346 474 c 0,61,62
 418 474 418 474 457.5 440 c 128,-1,63
 497 406 497 406 497 344 c 0,64,65
 497 329 497 329 494 297.5 c 128,-1,66
 491 266 491 266 488 230 c 128,-1,67
 485 194 485 194 482 160.5 c 128,-1,68
 479 127 479 127 479 109 c 0,69,70
 479 83 479 83 486 72.5 c 128,-1,71
 493 62 493 62 510 62 c 2,72,-1
 529 62 l 2,73,74
 534 62 534 62 540 63 c 1,75,-1
 542 59 l 1,76,-1
 533 -3 l 1,77,78
 512 -3 512 -3 493 -2 c 0,79,80
 476 -1 476 -1 457 -0.5 c 128,-1,81
 438 0 438 0 424 0 c 0,82,83
 409 0 409 0 389.5 -1 c 128,-1,84
 370 -2 370 -2 353 -4 c 0,85,86
 333 -6 333 -6 312 -8 c 1,87,-1
 318 55 l 1,0,1
EndSplineSet
Substitution2: "'sups' Superscript in Latin lookup 2 subtable" uni207F
EndChar

StartChar: o
Encoding: 111 111 88
Width: 503
GlyphClass: 1
Flags: W
LayerCount: 2
Fore
SplineSet
237 -12 m 0,0,1
 189 -12 189 -12 150 4.5 c 128,-1,2
 111 21 111 21 83 51 c 128,-1,3
 55 81 55 81 40 123 c 128,-1,4
 25 165 25 165 25 217 c 0,5,6
 25 274 25 274 42.5 321.5 c 128,-1,7
 60 369 60 369 92 403 c 128,-1,8
 124 437 124 437 168.5 455.5 c 128,-1,9
 213 474 213 474 267 474 c 0,10,11
 316 474 316 474 355 458 c 128,-1,12
 394 442 394 442 421.5 412.5 c 128,-1,13
 449 383 449 383 463.5 340.5 c 128,-1,14
 478 298 478 298 478 245 c 0,15,16
 478 188 478 188 460.5 140.5 c 128,-1,17
 443 93 443 93 411.5 59 c 128,-1,18
 380 25 380 25 335.5 6.5 c 128,-1,19
 291 -12 291 -12 237 -12 c 0,0,1
257 65 m 0,20,21
 343 65 343 65 343 199 c 0,22,23
 343 295 343 295 317.5 341.5 c 128,-1,24
 292 388 292 388 244 388 c 0,25,26
 158 388 158 388 158 254 c 0,27,28
 158 158 158 158 183.5 111.5 c 128,-1,29
 209 65 209 65 257 65 c 0,20,21
EndSplineSet
Substitution2: "'sups' Superscript in Latin lookup 2 subtable" o.sups
EndChar

StartChar: p
Encoding: 112 112 89
Width: 538
GlyphClass: 1
Flags: W
LayerCount: 2
Fore
SplineSet
37 -174 m 1,0,1
 65 -171 65 -171 74 -159 c 128,-1,2
 83 -147 83 -147 83 -112 c 2,3,-1
 88 41 l 1,4,-1
 88 323 l 2,5,6
 88 358 88 358 78 370.5 c 128,-1,7
 68 383 68 383 39 383 c 2,8,-1
 26 383 l 1,9,-1
 22 388 l 1,10,-1
 27 441 l 1,11,12
 62 446 62 446 95 452 c 128,-1,13
 128 458 128 458 154 463 c 0,14,15
 185 468 185 468 212 474 c 1,16,-1
 221 464 l 1,17,18
 219 454 219 454 217 443 c 0,19,20
 215 434 215 434 213 423 c 128,-1,21
 211 412 211 412 210 401 c 1,22,-1
 214 396 l 1,23,24
 294 470 294 470 313 470 c 0,25,26
 358 470 358 470 394.5 454 c 128,-1,27
 431 438 431 438 457.5 409.5 c 128,-1,28
 484 381 484 381 498 340 c 128,-1,29
 512 299 512 299 512 250 c 0,30,31
 512 191 512 191 492.5 143 c 128,-1,32
 473 95 473 95 437.5 61 c 128,-1,33
 402 27 402 27 353 8.5 c 128,-1,34
 304 -10 304 -10 246 -10 c 0,35,36
 240 -10 240 -10 233 -10 c 128,-1,37
 226 -10 226 -10 220 -9 c 0,38,39
 213 -8 213 -8 205 -7 c 1,40,-1
 205 -99 l 2,41,42
 205 -137 205 -137 211 -152.5 c 128,-1,43
 217 -168 217 -168 241 -168 c 0,44,45
 252 -168 252 -168 264.5 -167 c 128,-1,46
 277 -166 277 -166 281 -166 c 2,47,-1
 284 -170 l 1,48,-1
 273 -232 l 1,49,50
 267 -232 267 -232 252.5 -231.5 c 128,-1,51
 238 -231 238 -231 220 -231 c 128,-1,52
 202 -231 202 -231 183.5 -230.5 c 128,-1,53
 165 -230 165 -230 151 -230 c 0,54,55
 130 -230 130 -230 108 -231 c 128,-1,56
 86 -232 86 -232 69 -233 c 0,57,58
 48 -235 48 -235 29 -236 c 1,59,-1
 37 -174 l 1,0,1
208 87 m 1,60,61
 218 83 218 83 239 78 c 128,-1,62
 260 73 260 73 282 73 c 0,63,64
 330 73 330 73 356 109 c 128,-1,65
 382 145 382 145 382 212 c 0,66,67
 382 286 382 286 355.5 328 c 128,-1,68
 329 370 329 370 284 370 c 0,69,70
 270 370 270 370 251 362.5 c 128,-1,71
 232 355 232 355 214 341 c 1,72,73
 212 312 212 312 211 279 c 128,-1,74
 210 246 210 246 209.5 212.5 c 128,-1,75
 209 179 209 179 208.5 146.5 c 128,-1,76
 208 114 208 114 208 87 c 1,60,61
EndSplineSet
Substitution2: "'sups' Superscript in Latin lookup 2 subtable" p.sups
EndChar

StartChar: q
Encoding: 113 113 90
Width: 517
GlyphClass: 1
Flags: W
LayerCount: 2
Fore
SplineSet
252 -172 m 1,0,1
 274 -171 274 -171 288 -168 c 128,-1,2
 302 -165 302 -165 310 -158.5 c 128,-1,3
 318 -152 318 -152 321 -140.5 c 128,-1,4
 324 -129 324 -129 324 -111 c 2,5,-1
 328 59 l 1,6,7
 282 26 282 26 253 8 c 128,-1,8
 224 -10 224 -10 216 -10 c 0,9,10
 172 -10 172 -10 136.5 5.5 c 128,-1,11
 101 21 101 21 76.5 49.5 c 128,-1,12
 52 78 52 78 38.5 119 c 128,-1,13
 25 160 25 160 25 211 c 0,14,15
 25 268 25 268 44 315.5 c 128,-1,16
 63 363 63 363 96.5 397.5 c 128,-1,17
 130 432 130 432 176.5 451.5 c 128,-1,18
 223 471 223 471 278 471 c 0,19,20
 301 471 301 471 329 468.5 c 128,-1,21
 357 466 357 466 389 461 c 1,22,23
 403 466 403 466 415 471 c 128,-1,24
 427 476 427 476 436 480 c 0,25,26
 447 484 447 484 455 488 c 1,27,-1
 466 476 l 1,28,29
 461 465 461 465 457 419 c 128,-1,30
 453 373 453 373 450.5 297 c 128,-1,31
 448 221 448 221 446.5 120 c 128,-1,32
 445 19 445 19 445 -101 c 0,33,34
 445 -122 445 -122 446 -134.5 c 128,-1,35
 447 -147 447 -147 450.5 -154 c 128,-1,36
 454 -161 454 -161 460 -163.5 c 128,-1,37
 466 -166 466 -166 476 -166 c 2,38,-1
 494 -166 l 2,39,40
 498 -166 498 -166 502 -165 c 2,41,-1
 505 -168 l 1,42,-1
 498 -230 l 1,43,-1
 370 -230 l 2,44,45
 351 -230 351 -230 330 -230.5 c 128,-1,46
 309 -231 309 -231 290 -232 c 0,47,48
 268 -233 268 -233 246 -234 c 1,49,-1
 252 -172 l 1,0,1
328 370 m 1,50,51
 319 374 319 374 308 378 c 0,52,53
 298 381 298 381 285 384 c 128,-1,54
 272 387 272 387 256 387 c 0,55,56
 208 387 208 387 182 351 c 128,-1,57
 156 315 156 315 156 248 c 0,58,59
 156 173 156 173 182.5 129 c 128,-1,60
 209 85 209 85 253 85 c 0,61,62
 267 85 267 85 280 90 c 128,-1,63
 293 95 293 95 304 102 c 0,64,65
 316 109 316 109 328 119 c 1,66,-1
 328 370 l 1,50,51
EndSplineSet
Substitution2: "'sups' Superscript in Latin lookup 2 subtable" q.sups
EndChar

StartChar: r
Encoding: 114 114 91
Width: 413
GlyphClass: 1
Flags: W
LayerCount: 2
Fore
SplineSet
43 58 m 1,0,1
 73 60 73 60 83.5 74 c 128,-1,2
 94 88 94 88 94 126 c 2,3,-1
 94 324 l 2,4,5
 94 359 94 359 85 371 c 128,-1,6
 76 383 76 383 51 383 c 0,7,8
 48 383 48 383 44.5 382.5 c 128,-1,9
 41 382 41 382 38 382 c 2,10,-1
 32 382 l 1,11,-1
 27 389 l 1,12,-1
 33 441 l 1,13,14
 65 446 65 446 98 451.5 c 128,-1,15
 131 457 131 457 157 462 c 0,16,17
 188 468 188 468 216 474 c 1,18,-1
 226 465 l 1,19,-1
 221 435 l 2,20,21
 219 421 219 421 217 404.5 c 128,-1,22
 215 388 215 388 215 372 c 1,23,-1
 221 368 l 1,24,25
 253 415 253 415 290 441 c 128,-1,26
 327 467 327 467 362 467 c 0,27,28
 369 467 369 467 375 466.5 c 128,-1,29
 381 466 381 466 386 465 c 256,30,31
 391 464 391 464 396 463 c 1,32,-1
 400 455 l 1,33,34
 395 425 395 425 391 394 c 0,35,36
 387 367 387 367 384.5 335 c 128,-1,37
 382 303 382 303 380 272 c 1,38,-1
 315 268 l 1,39,40
 315 316 315 316 309 331.5 c 128,-1,41
 303 347 303 347 286 347 c 0,42,43
 270 347 270 347 252.5 335.5 c 128,-1,44
 235 324 235 324 220 304 c 1,45,46
 217 255 217 255 215 215 c 0,47,48
 213 180 213 180 212 149.5 c 128,-1,49
 211 119 211 119 211 112 c 0,50,51
 211 86 211 86 219 76 c 128,-1,52
 227 66 227 66 249 66 c 0,53,54
 256 66 256 66 265 66.5 c 128,-1,55
 274 67 274 67 282 68 c 0,56,57
 291 69 291 69 300 70 c 1,58,-1
 303 64 l 1,59,-1
 292 -4 l 1,60,61
 268 -3 268 -3 244 -2 c 0,62,63
 224 -1 224 -1 201.5 -0.5 c 128,-1,64
 179 0 179 0 161 0 c 0,65,66
 138 0 138 0 115.5 -0.5 c 128,-1,67
 93 -1 93 -1 75 -2 c 0,68,69
 54 -3 54 -3 35 -4 c 1,70,-1
 43 58 l 1,0,1
EndSplineSet
Substitution2: "'sups' Superscript in Latin lookup 2 subtable" r.sups
EndChar

StartChar: s
Encoding: 115 115 92
Width: 409
GlyphClass: 1
Flags: W
LayerCount: 2
Fore
SplineSet
169 -12 m 0,0,1
 138 -12 138 -12 113.5 -8 c 128,-1,2
 89 -4 89 -4 72 1 c 0,3,4
 52 7 52 7 35 15 c 1,5,-1
 29 26 l 1,6,7
 30 36 30 36 32 52.5 c 128,-1,8
 34 69 34 69 36 87.5 c 128,-1,9
 38 106 38 106 39.5 124.5 c 128,-1,10
 41 143 41 143 42 157 c 1,11,-1
 99 163 l 1,12,13
 99 62 99 62 187 62 c 0,14,15
 215 62 215 62 234 74.5 c 128,-1,16
 253 87 253 87 253 106 c 0,17,18
 253 116 253 116 249 124 c 128,-1,19
 245 132 245 132 233.5 141 c 128,-1,20
 222 150 222 150 203 161 c 128,-1,21
 184 172 184 172 154 186 c 0,22,23
 94 214 94 214 66.5 245.5 c 128,-1,24
 39 277 39 277 39 320 c 0,25,26
 39 354 39 354 54.5 382.5 c 128,-1,27
 70 411 70 411 97.5 431 c 128,-1,28
 125 451 125 451 163 462.5 c 128,-1,29
 201 474 201 474 247 474 c 0,30,31
 271 474 271 474 291.5 471 c 128,-1,32
 312 468 312 468 327 465 c 0,33,34
 345 461 345 461 359 456 c 1,35,-1
 365 445 l 1,36,37
 362 426 362 426 358 405 c 0,38,39
 355 387 355 387 351.5 363.5 c 128,-1,40
 348 340 348 340 346 315 c 1,41,-1
 288 312 l 1,42,43
 288 315 288 315 289 319 c 0,44,45
 289 322 289 322 289.5 324.5 c 128,-1,46
 290 327 290 327 290 329 c 0,47,48
 289 397 289 397 220 397 c 0,49,50
 194 397 194 397 177 385 c 128,-1,51
 160 373 160 373 160 354 c 256,52,53
 160 335 160 335 175.5 319 c 128,-1,54
 191 303 191 303 227 286 c 0,55,56
 271 265 271 265 299.5 248 c 128,-1,57
 328 231 328 231 345 214 c 128,-1,58
 362 197 362 197 368.5 178.5 c 128,-1,59
 375 160 375 160 375 138 c 0,60,61
 375 106 375 106 359 79 c 128,-1,62
 343 52 343 52 315.5 31.5 c 128,-1,63
 288 11 288 11 250 -0.5 c 128,-1,64
 212 -12 212 -12 169 -12 c 0,0,1
EndSplineSet
Substitution2: "'sups' Superscript in Latin lookup 2 subtable" s.sups
EndChar

StartChar: t
Encoding: 116 116 93
Width: 332
GlyphClass: 1
Flags: W
LayerCount: 2
Fore
SplineSet
68 333 m 2,0,1
 68 365 68 365 57 375.5 c 128,-1,2
 46 386 46 386 14 387 c 1,3,-1
 4 394 l 1,4,-1
 11 444 l 1,5,6
 43 459 43 459 74 477.5 c 128,-1,7
 105 496 105 496 129 513 c 0,8,9
 157 532 157 532 181 552 c 1,10,-1
 209 537 l 1,11,12
 207 527 207 527 205 514 c 0,13,14
 203 503 203 503 201.5 486.5 c 128,-1,15
 200 470 200 470 198 450 c 1,16,-1
 315 453 l 1,17,-1
 319 448 l 1,18,-1
 309 380 l 1,19,-1
 192 383 l 1,20,21
 190 339 190 339 188 286 c 128,-1,22
 186 233 186 233 186 167 c 0,23,24
 186 125 186 125 201 106 c 128,-1,25
 216 87 216 87 250 87 c 0,26,27
 271 87 271 87 290 94 c 0,28,29
 300 97 300 97 309 101 c 1,30,-1
 321 68 l 1,31,32
 297 46 297 46 275 28 c 0,33,34
 256 13 256 13 236.5 0.5 c 128,-1,35
 217 -12 217 -12 206 -12 c 0,36,37
 134 -12 134 -12 101 17.5 c 128,-1,38
 68 47 68 47 68 111 c 2,39,-1
 68 333 l 2,0,1
EndSplineSet
Substitution2: "'sups' Superscript in Latin lookup 2 subtable" t.sups
EndChar

StartChar: u
Encoding: 117 117 94
Width: 547
GlyphClass: 1
Flags: W
LayerCount: 2
Fore
SplineSet
74 336 m 2,0,1
 74 385 74 385 41 385 c 0,2,3
 33 385 33 385 23 383 c 0,4,5
 19 382 19 382 15 382 c 1,6,-1
 21 441 l 1,7,8
 53 446 53 446 85.5 451.5 c 128,-1,9
 118 457 118 457 144 462 c 2,10,-1
 204 474 l 1,11,-1
 214 457 l 1,12,13
 208 445 208 445 203.5 416 c 128,-1,14
 199 387 199 387 195 348 c 128,-1,15
 191 309 191 309 189 264 c 128,-1,16
 187 219 187 219 187 175 c 0,17,18
 187 94 187 94 249 94 c 0,19,20
 271 94 271 94 292.5 106 c 128,-1,21
 314 118 314 118 334 131 c 1,22,-1
 334 335 l 2,23,24
 334 364 334 364 325.5 373.5 c 128,-1,25
 317 383 317 383 291 384 c 0,26,27
 287 384 287 384 281 383.5 c 128,-1,28
 275 383 275 383 274 383 c 1,29,-1
 282 441 l 1,30,31
 314 446 314 446 347.5 451 c 128,-1,32
 381 456 381 456 408 461 c 0,33,34
 440 466 440 466 469 472 c 1,35,-1
 479 455 l 1,36,37
 473 443 473 443 468.5 412.5 c 128,-1,38
 464 382 464 382 460 338.5 c 128,-1,39
 456 295 456 295 454 242 c 128,-1,40
 452 189 452 189 452 133 c 0,41,42
 452 114 452 114 461 103 c 128,-1,43
 470 92 470 92 487 92 c 0,44,45
 496 92 496 92 504 94.5 c 128,-1,46
 512 97 512 97 519 100 c 0,47,48
 527 104 527 104 534 109 c 1,49,-1
 550 88 l 1,50,51
 534 62 534 62 516 42 c 0,52,53
 501 24 501 24 482 8.5 c 128,-1,54
 463 -7 463 -7 445 -12 c 1,55,56
 354 -12 354 -12 343 65 c 1,57,-1
 335 69 l 1,58,59
 297 33 297 33 266 11 c 128,-1,60
 235 -11 235 -11 224 -11 c 0,61,62
 147 -11 147 -11 107 21 c 128,-1,63
 67 53 67 53 67 115 c 2,64,-1
 74 336 l 2,0,1
EndSplineSet
Substitution2: "'sups' Superscript in Latin lookup 2 subtable" u.sups
EndChar

StartChar: v
Encoding: 118 118 95
Width: 468
GlyphClass: 1
Flags: W
LayerCount: 2
Fore
SplineSet
333 380 m 0,0,1
 333 392 333 392 326 396 c 128,-1,2
 319 400 319 400 300 400 c 2,3,-1
 273 400 l 1,4,-1
 269 407 l 1,5,-1
 277 463 l 1,6,7
 296 462 296 462 314 462 c 2,8,-1
 385 462 l 1,9,-1
 445 462 l 2,10,11
 461 462 461 462 476 463 c 1,12,-1
 469 401 l 1,13,14
 458 399 458 399 450.5 396.5 c 128,-1,15
 443 394 443 394 437 387.5 c 128,-1,16
 431 381 431 381 425.5 370.5 c 128,-1,17
 420 360 420 360 414 343 c 2,18,-1
 288 0 l 1,19,-1
 157 -15 l 1,20,21
 134 68 134 68 114 140 c 0,22,23
 105 171 105 171 96.5 202.5 c 128,-1,24
 88 234 88 234 79.5 262 c 128,-1,25
 71 290 71 290 64 313.5 c 128,-1,26
 57 337 57 337 53 351 c 0,27,28
 37 400 37 400 -9 401 c 1,29,-1
 -11 406 l 1,30,-1
 -4 463 l 1,31,32
 13 462 13 462 31 462 c 2,33,-1
 91 462 l 2,34,35
 116 462 116 462 140 462.5 c 128,-1,36
 164 463 164 463 184 465 c 0,37,38
 207 467 207 467 227 469 c 1,39,-1
 229 464 l 1,40,-1
 221 405 l 1,41,42
 190 402 190 402 181 397.5 c 128,-1,43
 172 393 172 393 172 379 c 0,44,45
 172 374 172 374 174.5 359.5 c 128,-1,46
 177 345 177 345 181.5 325.5 c 128,-1,47
 186 306 186 306 191 282.5 c 128,-1,48
 196 259 196 259 202 235 c 0,49,50
 215 180 215 180 233 112 c 1,51,-1
 244 112 l 1,52,53
 263 166 263 166 279.5 212 c 128,-1,54
 296 258 296 258 308 292.5 c 128,-1,55
 320 327 320 327 326.5 349.5 c 128,-1,56
 333 372 333 372 333 380 c 0,0,1
EndSplineSet
Substitution2: "'sups' Superscript in Latin lookup 2 subtable" v.sups
EndChar

StartChar: w
Encoding: 119 119 96
Width: 740
GlyphClass: 1
Flags: W
LayerCount: 2
Fore
SplineSet
602 380 m 0,0,1
 602 392 602 392 595.5 396.5 c 128,-1,2
 589 401 589 401 571 401 c 2,3,-1
 544 401 l 1,4,-1
 540 407 l 1,5,-1
 548 464 l 1,6,7
 566 463 566 463 584 463 c 0,8,9
 600 462 600 462 618.5 462 c 128,-1,10
 637 462 637 462 654 462 c 2,11,-1
 714 462 l 2,12,13
 730 462 730 462 745 463 c 1,14,-1
 737 401 l 1,15,16
 726 399 726 399 718.5 396.5 c 128,-1,17
 711 394 711 394 705.5 387.5 c 128,-1,18
 700 381 700 381 695 370.5 c 128,-1,19
 690 360 690 360 684 343 c 2,20,-1
 560 0 l 1,21,-1
 434 -15 l 1,22,23
 432 -3 432 -3 425.5 24 c 128,-1,24
 419 51 419 51 410 85.5 c 128,-1,25
 401 120 401 120 391 159 c 128,-1,26
 381 198 381 198 372 233 c 1,27,-1
 361 233 l 1,28,-1
 286 0 l 1,29,-1
 157 -15 l 1,30,31
 135 68 135 68 115 140 c 0,32,33
 106 171 106 171 97.5 202.5 c 128,-1,34
 89 234 89 234 80.5 262 c 128,-1,35
 72 290 72 290 65.5 313.5 c 128,-1,36
 59 337 59 337 55 351 c 0,37,38
 39 400 39 400 -6 401 c 1,39,-1
 -8 406 l 1,40,-1
 -1 463 l 1,41,42
 16 462 16 462 33 462 c 2,43,-1
 92 462 l 2,44,45
 117 462 117 462 140.5 462.5 c 128,-1,46
 164 463 164 463 184 465 c 0,47,48
 206 467 206 467 227 469 c 1,49,-1
 229 464 l 1,50,-1
 221 405 l 1,51,52
 191 402 191 402 182.5 397.5 c 128,-1,53
 174 393 174 393 174 379 c 0,54,55
 174 374 174 374 176.5 359.5 c 128,-1,56
 179 345 179 345 183 325.5 c 128,-1,57
 187 306 187 306 192 282.5 c 128,-1,58
 197 259 197 259 203 235 c 0,59,60
 216 180 216 180 233 112 c 1,61,-1
 243 112 l 1,62,63
 253 137 253 137 265.5 174.5 c 128,-1,64
 278 212 278 212 290 249 c 128,-1,65
 302 286 302 286 311.5 316.5 c 128,-1,66
 321 347 321 347 324 359 c 1,67,68
 319 381 319 381 308 390.5 c 128,-1,69
 297 400 297 400 270 400 c 1,70,-1
 267 406 l 1,71,-1
 275 463 l 1,72,73
 292 462 292 462 309 462 c 2,74,-1
 367 462 l 2,75,76
 392 462 392 462 415.5 462.5 c 128,-1,77
 439 463 439 463 458 465 c 0,78,79
 480 466 480 466 500 468 c 1,80,-1
 502 463 l 1,81,-1
 493 404 l 1,82,83
 462 401 462 401 454 397 c 128,-1,84
 446 393 446 393 446 379 c 0,85,86
 446 374 446 374 448.5 359.5 c 128,-1,87
 451 345 451 345 455 325.5 c 128,-1,88
 459 306 459 306 464 282.5 c 128,-1,89
 469 259 469 259 475 235 c 0,90,91
 488 180 488 180 505 112 c 1,92,-1
 516 112 l 1,93,94
 535 166 535 166 551 212 c 128,-1,95
 567 258 567 258 578 292.5 c 128,-1,96
 589 327 589 327 595.5 349.5 c 128,-1,97
 602 372 602 372 602 380 c 0,0,1
EndSplineSet
Substitution2: "'sups' Superscript in Latin lookup 2 subtable" w.sups
EndChar

StartChar: x
Encoding: 120 120 97
Width: 497
GlyphClass: 1
Flags: W
LayerCount: 2
Fore
SplineSet
391 0 m 0,0,1
 376 0 376 0 352 -1 c 128,-1,2
 328 -2 328 -2 305 -3 c 0,3,4
 278 -5 278 -5 249 -6 c 1,5,-1
 246 -1 l 1,6,-1
 253 49 l 1,7,8
 274 50 274 50 283 54 c 128,-1,9
 292 58 292 58 292 67 c 0,10,11
 292 72 292 72 289.5 78.5 c 128,-1,12
 287 85 287 85 279 96 c 2,13,-1
 220 177 l 1,14,15
 209 164 209 164 196.5 148 c 128,-1,16
 184 132 184 132 173.5 117 c 128,-1,17
 163 102 163 102 155.5 89.5 c 128,-1,18
 148 77 148 77 148 71 c 0,19,20
 148 60 148 60 156 56 c 128,-1,21
 164 52 164 52 184 51 c 1,22,-1
 187 45 l 1,23,-1
 180 -4 l 1,24,25
 158 -3 158 -3 140 -2 c 0,26,27
 123 -1 123 -1 107 -0.5 c 128,-1,28
 91 0 91 0 82 0 c 0,29,30
 69 0 69 0 55.5 -0.5 c 128,-1,31
 42 -1 42 -1 31 -2 c 0,32,33
 18 -3 18 -3 4 -3 c 1,34,-1
 1 4 l 1,35,-1
 8 52 l 1,36,37
 18 57 18 57 27 63.5 c 128,-1,38
 36 70 36 70 46 80.5 c 128,-1,39
 56 91 56 91 68 105.5 c 128,-1,40
 80 120 80 120 97 140 c 2,41,-1
 177 235 l 1,42,-1
 110 328 l 2,43,44
 96 348 96 348 84 361 c 128,-1,45
 72 374 72 374 60.5 382.5 c 128,-1,46
 49 391 49 391 36 395.5 c 128,-1,47
 23 400 23 400 7 403 c 1,48,-1
 5 407 l 1,49,-1
 11 463 l 1,50,51
 29 462 29 462 48 462 c 2,52,-1
 128 462 l 2,53,54
 151 462 151 462 173.5 462.5 c 128,-1,55
 196 463 196 463 213 464 c 0,56,57
 233 465 233 465 252 466 c 1,58,-1
 255 460 l 1,59,-1
 249 408 l 1,60,61
 211 408 211 408 211 389 c 0,62,63
 211 378 211 378 217 367.5 c 128,-1,64
 223 357 223 357 233 344 c 2,65,-1
 274 286 l 1,66,-1
 320 348 l 2,67,68
 331 362 331 362 338 372 c 128,-1,69
 345 382 345 382 345 392 c 0,70,71
 345 400 345 400 337.5 403 c 128,-1,72
 330 406 330 406 309 406 c 1,73,-1
 307 410 l 1,74,-1
 312 462 l 1,75,-1
 402 462 l 2,76,77
 416 462 416 462 430.5 462 c 128,-1,78
 445 462 445 462 458 463 c 0,79,80
 473 464 473 464 487 465 c 1,81,-1
 490 459 l 1,82,-1
 484 405 l 1,83,84
 440 382 440 382 398 331 c 2,85,-1
 319 228 l 1,86,-1
 396 124 l 2,87,88
 421 90 421 90 442.5 73.5 c 128,-1,89
 464 57 464 57 493 55 c 1,90,-1
 496 51 l 1,91,-1
 487 -2 l 1,92,93
 468 -2 468 -2 450 -1 c 0,94,95
 435 -1 435 -1 418.5 -0.5 c 128,-1,96
 402 0 402 0 391 0 c 0,0,1
EndSplineSet
Substitution2: "'sups' Superscript in Latin lookup 2 subtable" x.sups
EndChar

StartChar: y
Encoding: 121 121 98
Width: 465
GlyphClass: 1
Flags: W
LayerCount: 2
Fore
SplineSet
248 132 m 1,0,1
 263 171 263 171 279 212 c 128,-1,2
 295 253 295 253 308 288.5 c 128,-1,3
 321 324 321 324 329.5 349 c 128,-1,4
 338 374 338 374 338 381 c 0,5,6
 338 393 338 393 332 397.5 c 128,-1,7
 326 402 326 402 309 402 c 2,8,-1
 277 402 l 1,9,-1
 274 407 l 1,10,-1
 282 465 l 1,11,12
 300 464 300 464 318 463 c 0,13,14
 334 462 334 462 352.5 462 c 128,-1,15
 371 462 371 462 388 462 c 2,16,-1
 481 462 l 1,17,-1
 473 401 l 1,18,19
 451 396 451 396 441 386.5 c 128,-1,20
 431 377 431 377 422 352 c 2,21,-1
 294 43 l 2,22,23
 262 -33 262 -33 233 -87 c 128,-1,24
 204 -141 204 -141 175 -175.5 c 128,-1,25
 146 -210 146 -210 116 -226 c 128,-1,26
 86 -242 86 -242 53 -241 c 0,27,28
 46 -241 46 -241 33 -231.5 c 128,-1,29
 20 -222 20 -222 7.5 -208.5 c 128,-1,30
 -5 -195 -5 -195 -14 -181.5 c 128,-1,31
 -23 -168 -23 -168 -23 -160 c 1,32,-1
 -15 -147 l 1,33,34
 50 -142 50 -142 101.5 -106 c 128,-1,35
 153 -70 153 -70 186 -9 c 1,36,37
 173 28 173 28 154.5 79 c 128,-1,38
 136 130 136 130 116.5 182.5 c 128,-1,39
 97 235 97 235 78.5 281.5 c 128,-1,40
 60 328 60 328 48 357 c 0,41,42
 36 380 36 380 22.5 389.5 c 128,-1,43
 9 399 9 399 -12 400 c 1,44,-1
 -14 405 l 1,45,-1
 -7 462 l 1,46,-1
 71 462 l 2,47,48
 96 462 96 462 123.5 463 c 128,-1,49
 151 464 151 464 173 465 c 128,-1,50
 195 466 195 466 209.5 467.5 c 128,-1,51
 224 469 224 469 224 469 c 1,52,-1
 226 464 l 1,53,-1
 217 405 l 1,54,55
 188 403 188 403 178.5 398 c 128,-1,56
 169 393 169 393 169 381 c 0,57,58
 169 375 169 375 172 361 c 128,-1,59
 175 347 175 347 179.5 328 c 128,-1,60
 184 309 184 309 190.5 287.5 c 128,-1,61
 197 266 197 266 203 244 c 0,62,63
 218 193 218 193 237 132 c 1,64,-1
 248 132 l 1,0,1
EndSplineSet
Substitution2: "'sups' Superscript in Latin lookup 2 subtable" y.sups
EndChar

StartChar: z
Encoding: 122 122 99
Width: 458
GlyphClass: 1
Flags: W
LayerCount: 2
Fore
SplineSet
20 29 m 1,0,-1
 272 397 l 1,1,-1
 182 391 l 2,2,3
 156 389 156 389 139 384 c 128,-1,4
 122 379 122 379 111.5 369 c 128,-1,5
 101 359 101 359 96 343 c 128,-1,6
 91 327 91 327 89 303 c 1,7,-1
 38 298 l 1,8,9
 40 327 40 327 43 356 c 0,10,11
 45 381 45 381 46.5 410 c 128,-1,12
 48 439 48 439 49 464 c 1,13,-1
 56 471 l 1,14,-1
 186 463 l 1,15,-1
 418 460 l 1,16,-1
 431 430 l 1,17,18
 386 370 386 370 345 313.5 c 128,-1,19
 304 257 304 257 270 208 c 128,-1,20
 236 159 236 159 210.5 121.5 c 128,-1,21
 185 84 185 84 171 63 c 1,22,-1
 277 72 l 2,23,24
 320 77 320 77 341.5 103.5 c 128,-1,25
 363 130 363 130 372 190 c 1,26,-1
 425 195 l 1,27,28
 420 164 420 164 416 131 c 0,29,30
 413 103 413 103 410.5 71 c 128,-1,31
 408 39 408 39 408 11 c 1,32,-1
 392 -5 l 1,33,-1
 93 2 l 1,34,-1
 37 -4 l 1,35,-1
 20 29 l 1,0,-1
EndSplineSet
Substitution2: "'sups' Superscript in Latin lookup 2 subtable" z.sups
EndChar

StartChar: braceleft
Encoding: 123 123 100
Width: 321
GlyphClass: 1
Flags: W
LayerCount: 2
Fore
SplineSet
48 289 m 1,0,1
 82 299 82 299 105.5 317.5 c 128,-1,2
 129 336 129 336 129 363 c 0,3,4
 129 379 129 379 121.5 400.5 c 128,-1,5
 114 422 114 422 105.5 445.5 c 128,-1,6
 97 469 97 469 89.5 493 c 128,-1,7
 82 517 82 517 82 538 c 0,8,9
 82 587 82 587 122 620.5 c 128,-1,10
 162 654 162 654 231 654 c 0,11,12
 244 654 244 654 256.5 652.5 c 128,-1,13
 269 651 269 651 280 649 c 0,14,15
 292 647 292 647 304 645 c 1,16,-1
 311 635 l 1,17,-1
 298 579 l 1,18,19
 290 580 290 580 283 581 c 0,20,21
 277 582 277 582 270 583 c 128,-1,22
 263 584 263 584 257 584 c 0,23,24
 228 584 228 584 214.5 567 c 128,-1,25
 201 550 201 550 201 524 c 0,26,27
 201 510 201 510 205 490 c 128,-1,28
 209 470 209 470 214.5 449 c 128,-1,29
 220 428 220 428 224 407 c 128,-1,30
 228 386 228 386 228 370 c 0,31,32
 228 331 228 331 206.5 308 c 128,-1,33
 185 285 185 285 155 277 c 1,34,-1
 155 271 l 1,35,36
 187 260 187 260 207.5 236.5 c 128,-1,37
 228 213 228 213 228 174 c 0,38,39
 228 156 228 156 224 133.5 c 128,-1,40
 220 111 220 111 214.5 88.5 c 128,-1,41
 209 66 209 66 205 45 c 128,-1,42
 201 24 201 24 201 8 c 0,43,44
 201 -19 201 -19 215.5 -37 c 128,-1,45
 230 -55 230 -55 260 -55 c 0,46,47
 275 -55 275 -55 287 -52 c 0,48,49
 294 -51 294 -51 301 -49 c 1,50,-1
 309 -59 l 1,51,-1
 298 -113 l 1,52,53
 289 -117 289 -117 277 -121 c 0,54,55
 266 -124 266 -124 251.5 -126 c 128,-1,56
 237 -128 237 -128 218 -128 c 0,57,58
 187 -128 187 -128 162 -119 c 128,-1,59
 137 -110 137 -110 119 -94 c 128,-1,60
 101 -78 101 -78 91.5 -57 c 128,-1,61
 82 -36 82 -36 82 -12 c 0,62,63
 82 10 82 10 89.5 34 c 128,-1,64
 97 58 97 58 105.5 81 c 128,-1,65
 114 104 114 104 121.5 124.5 c 128,-1,66
 129 145 129 145 129 160 c 0,67,68
 129 193 129 193 105.5 212.5 c 128,-1,69
 82 232 82 232 44 241 c 1,70,-1
 48 289 l 1,0,1
EndSplineSet
EndChar

StartChar: bar
Encoding: 124 124 101
Width: 334
GlyphClass: 1
Flags: W
LayerCount: 2
Fore
SplineSet
220 796 m 1,0,1
 218 698 218 698 217 606 c 0,2,3
 216 566 216 566 215.5 523.5 c 128,-1,4
 215 481 215 481 214.5 440 c 128,-1,5
 214 399 214 399 214 360.5 c 128,-1,6
 214 322 214 322 214 291 c 2,7,-1
 214 -48 l 2,8,9
 214 -150 214 -150 215 -258 c 1,10,-1
 128 -269 l 1,11,-1
 116 -258 l 1,12,-1
 116 -58 l 2,13,14
 116 -16 116 -16 116 28.5 c 128,-1,15
 116 73 116 73 116 117 c 128,-1,16
 116 161 116 161 116.5 201.5 c 128,-1,17
 117 242 117 242 117 276 c 2,18,-1
 118 796 l 1,19,-1
 204 807 l 1,20,-1
 220 796 l 1,0,1
EndSplineSet
EndChar

StartChar: braceright
Encoding: 125 125 102
Width: 321
GlyphClass: 1
Flags: W
LayerCount: 2
Fore
SplineSet
274 242 m 1,0,1
 240 233 240 233 216.5 214 c 128,-1,2
 193 195 193 195 193 167 c 0,3,4
 193 150 193 150 200.5 129 c 128,-1,5
 208 108 208 108 216.5 84.5 c 128,-1,6
 225 61 225 61 232.5 37.5 c 128,-1,7
 240 14 240 14 240 -7 c 0,8,9
 240 -59 240 -59 200 -93.5 c 128,-1,10
 160 -128 160 -128 90 -128 c 0,11,12
 77 -128 77 -128 64.5 -127 c 128,-1,13
 52 -126 52 -126 41 -124 c 0,14,15
 29 -122 29 -122 17 -119 c 1,16,-1
 11 -109 l 1,17,-1
 24 -54 l 1,18,19
 31 -56 31 -56 38 -57 c 0,20,21
 44 -58 44 -58 51 -58.5 c 128,-1,22
 58 -59 58 -59 64 -59 c 0,23,24
 93 -59 93 -59 106.5 -42 c 128,-1,25
 120 -25 120 -25 120 1 c 0,26,27
 120 16 120 16 116 36.5 c 128,-1,28
 112 57 112 57 106.5 79 c 128,-1,29
 101 101 101 101 97 122.5 c 128,-1,30
 93 144 93 144 93 161 c 0,31,32
 93 199 93 199 114.5 221.5 c 128,-1,33
 136 244 136 244 166 253 c 1,34,-1
 166 259 l 1,35,36
 134 270 134 270 113.5 293.5 c 128,-1,37
 93 317 93 317 93 357 c 0,38,39
 93 374 93 374 97 395.5 c 128,-1,40
 101 417 101 417 106.5 439 c 128,-1,41
 112 461 112 461 116 481.5 c 128,-1,42
 120 502 120 502 120 517 c 0,43,44
 120 544 120 544 105.5 562 c 128,-1,45
 91 580 91 580 62 580 c 0,46,47
 54 580 54 580 47 579 c 128,-1,48
 40 578 40 578 34 577 c 0,49,50
 27 576 27 576 21 575 c 1,51,-1
 13 584 l 1,52,-1
 24 639 l 1,53,54
 33 642 33 642 45 646 c 0,55,56
 56 649 56 649 70.5 651.5 c 128,-1,57
 85 654 85 654 104 654 c 0,58,59
 134 654 134 654 159 644.5 c 128,-1,60
 184 635 184 635 202 619.5 c 128,-1,61
 220 604 220 604 230 583 c 128,-1,62
 240 562 240 562 240 538 c 0,63,64
 240 517 240 517 232.5 493.5 c 128,-1,65
 225 470 225 470 216.5 447.5 c 128,-1,66
 208 425 208 425 200.5 405 c 128,-1,67
 193 385 193 385 193 370 c 0,68,69
 193 337 193 337 216.5 317 c 128,-1,70
 240 297 240 297 278 289 c 1,71,-1
 274 242 l 1,0,1
EndSplineSet
EndChar

StartChar: asciitilde
Encoding: 126 126 103
Width: 506
GlyphClass: 1
Flags: W
LayerCount: 2
Fore
SplineSet
62 178 m 1,0,-1
 27 215 l 1,1,-1
 27 226 l 1,2,-1
 118 327 l 1,3,-1
 137 331 l 2,4,5
 156 331 156 331 187 325 c 128,-1,6
 218 319 218 319 251 311.5 c 128,-1,7
 284 304 284 304 313.5 298 c 128,-1,8
 343 292 343 292 359 292 c 0,9,10
 370 292 370 292 383 300.5 c 128,-1,11
 396 309 396 309 407 320 c 0,12,13
 420 332 420 332 434 349 c 1,14,-1
 445 349 l 1,15,-1
 480 311 l 1,16,-1
 480 301 l 1,17,-1
 389 199 l 1,18,-1
 370 195 l 2,19,20
 351 195 351 195 320 201 c 128,-1,21
 289 207 289 207 256 214.5 c 128,-1,22
 223 222 223 222 193.5 228 c 128,-1,23
 164 234 164 234 148 234 c 0,24,25
 137 234 137 234 124 225.5 c 128,-1,26
 111 217 111 217 100 206 c 0,27,28
 87 194 87 194 73 178 c 1,29,-1
 62 178 l 1,0,-1
EndSplineSet
EndChar

StartChar: Adieresis
Encoding: 128 196 104
Width: 425
GlyphClass: 2
Flags: W
LayerCount: 2
Fore
SplineSet
606 479 m 0,0,1
 606 440 606 440 591 402 c 128,-1,2
 576 364 576 364 552 333.5 c 128,-1,3
 528 303 528 303 498 273.5 c 128,-1,4
 468 244 468 244 438.5 215 c 128,-1,5
 409 186 409 186 384.5 157 c 128,-1,6
 360 128 360 128 345 94 c 128,-1,7
 330 60 330 60 330 25 c 0,8,9
 330 -33 330 -33 371 -97 c 1,10,11
 335 -113 335 -113 294 -113 c 0,12,13
 231 -113 231 -113 170.5 -78.5 c 128,-1,14
 110 -44 110 -44 71 18.5 c 128,-1,15
 32 81 32 81 32 153 c 0,16,17
 32 157 32 157 32 162 c 0,18,19
 32 182 32 182 38.5 192 c 128,-1,20
 45 202 45 202 52 202 c 0,21,22
 61 202 61 202 68 189.5 c 128,-1,23
 75 177 75 177 77 153 c 0,24,25
 81 117 81 117 104.5 81.5 c 128,-1,26
 128 46 128 46 159.5 22 c 128,-1,27
 191 -2 191 -2 220 -19 c 128,-1,28
 249 -36 249 -36 270 -41 c 1,29,30
 253 -9 253 -9 253 25 c 0,31,32
 253 69 253 69 281.5 121 c 128,-1,33
 310 173 310 173 352 219 c 128,-1,34
 394 265 394 265 436 310 c 128,-1,35
 478 355 478 355 507 398 c 128,-1,36
 536 441 536 441 536 473 c 0,37,38
 531 566 531 566 462 624 c 128,-1,39
 393 682 393 682 292 682 c 0,40,41
 220 682 220 682 151.5 650 c 128,-1,42
 83 618 83 618 40.5 567 c 128,-1,43
 -2 516 -2 516 -2 465 c 0,44,45
 -2 436 -2 436 11.5 412 c 128,-1,46
 25 388 25 388 44 374 c 128,-1,47
 63 360 63 360 86.5 350.5 c 128,-1,48
 110 341 110 341 127.5 337.5 c 128,-1,49
 145 334 145 334 157 334 c 0,50,51
 197 334 197 334 236 349 c 128,-1,52
 275 364 275 364 301 385 c 128,-1,53
 327 406 327 406 343.5 428.5 c 128,-1,54
 360 451 360 451 360 468 c 0,55,56
 360 473 360 473 359 477 c 0,57,58
 351 505 351 505 315.5 520.5 c 128,-1,59
 280 536 280 536 236 536 c 2,60,-1
 235 536 l 2,61,62
 202 535 202 535 179.5 514 c 128,-1,63
 157 493 157 493 157 468 c 0,64,65
 157 447 157 447 184 447 c 0,66,67
 222 447 222 447 269 479 c 0,68,69
 273 482 273 482 275 482 c 128,-1,70
 277 482 277 482 278 477 c 0,71,72
 278 462 278 462 255.5 435.5 c 128,-1,73
 233 409 233 409 201 401 c 0,74,75
 182 396 182 396 166 396 c 0,76,77
 131 396 131 396 109.5 417 c 128,-1,78
 88 438 88 438 88 479 c 0,79,80
 88 523 88 523 142.5 568.5 c 128,-1,81
 197 614 197 614 258 614 c 0,82,83
 332 614 332 614 389.5 569.5 c 128,-1,84
 447 525 447 525 447 462 c 0,85,86
 447 421 447 421 402.5 371.5 c 128,-1,87
 358 322 358 322 288.5 287 c 128,-1,88
 219 252 219 252 154 252 c 0,89,90
 106 252 106 252 67 266.5 c 128,-1,91
 28 281 28 281 3.5 304 c 128,-1,92
 -21 327 -21 327 -37 356.5 c 128,-1,93
 -53 386 -53 386 -61 413 c 128,-1,94
 -69 440 -69 440 -69 465 c 2,95,-1
 -69 473 l 2,96,97
 -69 509 -69 509 -55.5 546.5 c 128,-1,98
 -42 584 -42 584 -12 622 c 128,-1,99
 18 660 18 660 62 690.5 c 128,-1,100
 106 721 106 721 170.5 739.5 c 128,-1,101
 235 758 235 758 312 758 c 0,102,103
 376 758 376 758 433 732 c 128,-1,104
 490 706 490 706 527 665 c 128,-1,105
 564 624 564 624 585 575 c 128,-1,106
 606 526 606 526 606 479 c 0,0,1
EndSplineSet
EndChar

StartChar: Aring
Encoding: 129 197 105
Width: 400
GlyphClass: 2
Flags: W
LayerCount: 2
Fore
SplineSet
115 220 m 0,0,1
 116 215 116 215 115 210 c 0,2,3
 115 198 115 198 112 188 c 0,4,5
 110 182 110 182 106 182 c 0,6,7
 100 182 100 182 91 209 c 0,8,9
 77 247 77 247 71 272 c 0,10,11
 66 296 66 296 65 324 c 0,12,13
 65 356 65 356 74 391 c 0,14,15
 89 450 89 450 122.5 497 c 128,-1,16
 156 544 156 544 198.5 572 c 128,-1,17
 241 600 241 600 288 615 c 128,-1,18
 335 630 335 630 383 630 c 0,19,20
 397 630 397 630 397 634 c 128,-1,21
 397 638 397 638 387 646 c 2,22,-1
 366 659 l 1,23,24
 350 664 350 664 329 664 c 2,25,-1
 316 664 l 2,26,27
 287 662 287 662 256 656.5 c 128,-1,28
 225 651 225 651 192.5 636 c 128,-1,29
 160 621 160 621 129.5 602.5 c 128,-1,30
 99 584 99 584 72 554 c 128,-1,31
 45 524 45 524 24 490 c 128,-1,32
 3 456 3 456 -8 411.5 c 128,-1,33
 -19 367 -19 367 -19 317 c 0,34,35
 -19 244 -19 244 6 182 c 128,-1,36
 31 120 31 120 71.5 80 c 128,-1,37
 112 40 112 40 163.5 14 c 128,-1,38
 215 -12 215 -12 268 -19 c 0,39,40
 286 -21 286 -21 305 -21 c 0,41,42
 337 -21 337 -21 370 -14 c 0,43,44
 420 -2 420 -2 456 27 c 0,45,46
 486 52 486 52 486 57 c 0,47,48
 486 58 486 58 486 58 c 2,49,50
 484 59 484 59 454 59 c 0,51,52
 429 59 429 59 397.5 66.5 c 128,-1,53
 366 74 366 74 332.5 92 c 128,-1,54
 299 110 299 110 272.5 135 c 128,-1,55
 246 160 246 160 228.5 198 c 128,-1,56
 211 236 211 236 211 280 c 0,57,58
 211 337 211 337 228.5 380.5 c 128,-1,59
 246 424 246 424 274.5 448.5 c 128,-1,60
 303 473 303 473 333 485.5 c 128,-1,61
 363 498 363 498 394 498 c 0,62,63
 467 498 467 498 516.5 459 c 128,-1,64
 566 420 566 420 566 352 c 0,65,66
 566 314 566 314 551 286.5 c 128,-1,67
 536 259 536 259 514.5 246 c 128,-1,68
 493 233 493 233 469 228 c 0,69,70
 457 226 457 226 446 226 c 128,-1,71
 435 226 435 226 424 229 c 0,72,73
 404 234 404 234 395 244 c 0,74,75
 371 272 371 272 371 294 c 2,76,-1
 371 299 l 2,77,78
 373 311 373 311 385 311 c 0,79,80
 393 311 393 311 407 305 c 0,81,82
 429 294 429 294 445 295 c 0,83,84
 465 295 465 295 480 310 c 0,85,86
 491 324 491 324 491 341 c 0,87,88
 491 353 491 353 485 367 c 0,89,90
 466 410 466 410 407 414 c 1,91,-1
 395 414 l 2,92,93
 353 412 353 412 319 379.5 c 128,-1,94
 285 347 285 347 285 293 c 0,95,96
 285 256 285 256 302.5 224.5 c 128,-1,97
 320 193 320 193 346 174.5 c 128,-1,98
 372 156 372 156 401.5 146 c 128,-1,99
 431 136 431 136 456 136 c 0,100,101
 489 136 489 136 508 135 c 0,102,103
 542 134 542 134 563.5 118.5 c 128,-1,104
 585 103 585 103 585 78 c 0,105,106
 585 50 585 50 564 19 c 0,107,108
 541 -12 541 -12 503.5 -37 c 128,-1,109
 466 -62 466 -62 411.5 -78 c 128,-1,110
 357 -94 357 -94 297 -94 c 0,111,112
 231 -94 231 -94 169.5 -69.5 c 128,-1,113
 108 -45 108 -45 61 -4.5 c 128,-1,114
 14 36 14 36 -21 88 c 128,-1,115
 -56 140 -56 140 -74.5 199.5 c 128,-1,116
 -93 259 -93 259 -93 317 c 0,117,118
 -93 396 -93 396 -60 471 c 128,-1,119
 -27 546 -27 546 26 602 c 128,-1,120
 79 658 79 658 150.5 692 c 128,-1,121
 222 726 222 726 294 726 c 0,122,123
 399 726 399 726 443 681 c 0,124,125
 467 653 467 653 473 630 c 0,126,127
 474 624 474 624 473 618 c 0,128,129
 473 604 473 604 465 596 c 0,130,131
 453 583 453 583 436 577 c 0,132,133
 421 572 421 572 404 572 c 2,134,-1
 399 572 l 1,135,136
 332 567 332 567 288.5 550.5 c 128,-1,137
 245 534 245 534 197 485 c 0,138,139
 155 443 155 443 129 368 c 0,140,141
 112 317 112 317 111 265 c 0,142,143
 112 242 112 242 115 220 c 0,0,1
EndSplineSet
EndChar

StartChar: Ccedilla
Encoding: 130 199 106
Width: 276
GlyphClass: 2
Flags: W
LayerCount: 2
Fore
SplineSet
479 541 m 2,0,-1
 409 456 l 1,1,2
 509 317 509 317 508 296 c 0,3,4
 508 263 508 263 374 101 c 1,5,6
 378 98 378 98 380 95 c 2,7,-1
 454 13 l 2,8,9
 462 5 462 5 462 -6 c 0,10,11
 462 -19 462 -19 451 -28 c 0,12,13
 443 -36 443 -36 431 -36 c 0,14,15
 418 -36 418 -36 409 -26 c 2,16,-1
 335 55 l 1,17,18
 278 -11 278 -11 233 -57.5 c 128,-1,19
 188 -104 188 -104 178 -104 c 0,20,21
 160 -104 160 -104 28 51 c 1,22,-1
 -53 -24 l 2,23,24
 -61 -31 -61 -31 -72 -31 c 0,25,26
 -87 -31 -87 -31 -95 -20 c 0,27,28
 -102 -12 -102 -12 -103 -1 c 0,29,30
 -103 13 -103 13 -93 22 c 2,31,-1
 -12 95 l 2,32,33
 -10 96 -10 96 -10 97 c 0,34,35
 -74 174 -74 174 -118 233.5 c 128,-1,36
 -162 293 -162 293 -162 305 c 0,37,38
 -162 313 -162 313 -141 339.5 c 128,-1,39
 -120 366 -120 366 -87 398 c 2,40,-1
 -40 445 l 2,41,42
 -24 461 -24 461 -14 469 c 1,43,44
 -20 472 -20 472 -24 476 c 2,45,-1
 -97 558 l 2,46,47
 -104 566 -104 566 -104 578 c 0,48,49
 -104 592 -104 592 -95 600 c 0,50,51
 -87 608 -87 608 -75 608 c 0,52,53
 -60 608 -60 608 -52 598 c 2,54,-1
 21 517 l 2,55,56
 24 513 24 513 27 508 c 1,57,58
 112 585 112 585 128 585 c 0,59,60
 142 585 142 585 194.5 516.5 c 128,-1,61
 247 448 247 448 292.5 377.5 c 128,-1,62
 338 307 338 307 338 296 c 0,63,64
 338 278 338 278 267 192 c 128,-1,65
 196 106 196 106 178 106 c 0,66,67
 162 106 162 106 100 192 c 128,-1,68
 38 278 38 278 38 296 c 0,69,70
 38 302 38 302 40 307 c 128,-1,71
 42 312 42 312 47 317 c 128,-1,72
 52 322 52 322 56 325.5 c 128,-1,73
 60 329 60 329 67.5 335.5 c 128,-1,74
 75 342 75 342 78 345 c 0,75,76
 117 380 117 380 140 380 c 0,77,78
 153 380 153 380 153 366 c 0,79,80
 153 340 153 340 109 296 c 1,81,82
 114 282 114 282 142 239 c 128,-1,83
 170 196 170 196 178 196 c 0,84,85
 193 196 193 196 225.5 239 c 128,-1,86
 258 282 258 282 258 296 c 0,87,88
 258 309 258 309 193 407 c 128,-1,89
 128 505 128 505 118 505 c 128,-1,90
 108 505 108 505 13 410.5 c 128,-1,91
 -82 316 -82 316 -82 305 c 0,92,93
 -82 298 -82 298 -22 219 c 128,-1,94
 38 140 38 140 102.5 63.5 c 128,-1,95
 167 -13 167 -13 177.5 -13 c 128,-1,96
 188 -13 188 -13 253.5 61.5 c 128,-1,97
 319 136 319 136 378 213 c 128,-1,98
 437 290 437 290 437 296 c 0,99,100
 437 300 437 300 383 374.5 c 128,-1,101
 329 449 329 449 270.5 528 c 128,-1,102
 212 607 212 607 208 614 c 0,103,104
 206 618 206 618 193 636.5 c 128,-1,105
 180 655 180 655 171.5 672 c 128,-1,106
 163 689 163 689 163 700 c 0,107,108
 163 710 163 710 168 714 c 0,109,110
 170 716 170 716 173 716 c 0,111,112
 188 716 188 716 222.5 688 c 128,-1,113
 257 660 257 660 268 644 c 0,114,115
 270 642 270 642 285 622 c 128,-1,116
 300 602 300 602 325 569 c 128,-1,117
 350 536 350 536 372 505 c 1,118,-1
 449 574 l 2,119,120
 458 582 458 582 469 583 c 0,121,122
 482 583 482 583 491 574 c 0,123,124
 496 568 496 568 496 562 c 256,125,126
 496 556 496 556 479 541 c 2,0,-1
EndSplineSet
EndChar

StartChar: Eacute
Encoding: 131 201 107
Width: 400
GlyphClass: 2
Flags: W
LayerCount: 2
Fore
SplineSet
298 314 m 2,0,-1
 297 314 l 2,1,2
 295 316 295 316 293 315 c 2,3,-1
 292 315 l 1,4,-1
 291 315 l 2,5,6
 280 315 280 315 240 281 c 0,7,8
 193 240 193 240 170 216 c 1,9,10
 176 203 176 203 195.5 178.5 c 128,-1,11
 215 154 215 154 235 137 c 1,12,13
 242 143 242 143 260 161.5 c 128,-1,14
 278 180 278 180 292 190 c 128,-1,15
 306 200 306 200 317 200 c 0,16,17
 326 200 326 200 333.5 193 c 128,-1,18
 341 186 341 186 342 174 c 0,19,20
 342 154 342 154 314 124 c 128,-1,21
 286 94 286 94 257 74 c 128,-1,22
 228 54 228 54 219 54 c 0,23,24
 212 54 212 54 179 89 c 128,-1,25
 146 124 146 124 117 165.5 c 128,-1,26
 88 207 88 207 88 221 c 0,27,28
 88 243 88 243 174 306 c 128,-1,29
 260 369 260 369 303 386 c 1,30,31
 354 361 354 361 456.5 293.5 c 128,-1,32
 559 226 559 226 569 195 c 1,33,34
 568 170 568 170 506 98.5 c 128,-1,35
 444 27 444 27 368.5 -35.5 c 128,-1,36
 293 -98 293 -98 260 -98 c 2,37,-1
 258 -98 l 2,38,39
 219 -96 219 -96 163.5 -62 c 128,-1,40
 108 -28 108 -28 59 17.5 c 128,-1,41
 10 63 10 63 -28.5 114 c 128,-1,42
 -67 165 -67 165 -75 201 c 0,43,44
 -78 214 -78 214 -78 232 c 0,45,46
 -78 287 -78 287 -48 380.5 c 128,-1,47
 -18 474 -18 474 12 541 c 128,-1,48
 42 608 42 608 46 608 c 0,49,50
 52 608 52 608 63 590 c 128,-1,51
 74 572 74 572 91 535 c 128,-1,52
 108 498 108 498 114 489 c 1,53,54
 115 490 115 490 121 502 c 128,-1,55
 127 514 127 514 133.5 526.5 c 128,-1,56
 140 539 140 539 150.5 558 c 128,-1,57
 161 577 161 577 170 594.5 c 128,-1,58
 179 612 179 612 190.5 631 c 128,-1,59
 202 650 202 650 211 666 c 128,-1,60
 220 682 220 682 229 694.5 c 128,-1,61
 238 707 238 707 244.5 714 c 128,-1,62
 251 721 251 721 254 721 c 0,63,64
 267 721 267 721 321 630 c 128,-1,65
 375 539 375 539 389 503 c 1,66,67
 396 503 396 503 407.5 519 c 128,-1,68
 419 535 419 535 435.5 560 c 128,-1,69
 452 585 452 585 465 600 c 1,70,71
 502 552 502 552 527.5 483 c 128,-1,72
 553 414 553 414 553 370 c 0,73,74
 553 342 553 342 542 337 c 1,75,76
 523 342 523 342 505 379 c 128,-1,77
 487 416 487 416 475.5 451.5 c 128,-1,78
 464 487 464 487 461 487 c 128,-1,79
 458 487 458 487 446 466.5 c 128,-1,80
 434 446 434 446 419 425 c 128,-1,81
 404 404 404 404 395 401 c 1,82,83
 386 403 386 403 356 448 c 128,-1,84
 326 493 326 493 288 555.5 c 128,-1,85
 250 618 250 618 250 619 c 1,86,87
 239 606 239 606 185.5 498 c 128,-1,88
 132 390 132 390 112 344 c 1,89,-1
 110 344 l 2,90,91
 105 344 105 344 96 366 c 128,-1,92
 87 388 87 388 75 419 c 128,-1,93
 63 450 63 450 55 465 c 1,94,95
 33 420 33 420 8.5 349 c 128,-1,96
 -16 278 -16 278 -16 228 c 0,97,98
 -16 214 -16 214 -14 204 c 0,99,100
 -8 172 -8 172 47 118 c 128,-1,101
 102 64 102 64 164 25 c 128,-1,102
 226 -14 226 -14 254 -16 c 2,103,-1
 256 -16 l 2,104,105
 276 -16 276 -16 316 14 c 128,-1,106
 356 44 356 44 393.5 80 c 128,-1,107
 431 116 431 116 459.5 147 c 128,-1,108
 488 178 488 178 488 182 c 0,109,110
 488 191 488 191 402 252.5 c 128,-1,111
 316 314 316 314 298 314 c 2,0,-1
EndSplineSet
EndChar

StartChar: Ntilde
Encoding: 132 209 108
Width: 400
GlyphClass: 2
Flags: W
LayerCount: 2
Fore
SplineSet
458 412 m 0,0,1
 458 421 458 421 357 476 c 128,-1,2
 256 531 256 531 249 531 c 0,3,4
 239 531 239 531 153 476 c 0,5,6
 69 422 69 422 59 412 c 0,7,8
 53 406 53 406 52.5 378.5 c 128,-1,9
 52 351 52 351 57 203 c 0,10,11
 57 190 57 190 88 166 c 128,-1,12
 119 142 119 142 135 142 c 0,13,14
 150 142 150 142 233 196 c 0,15,16
 316 251 316 251 325 259 c 0,17,18
 334 268 334 268 334 297 c 256,19,20
 334 326 334 326 325 335 c 0,21,22
 310 347 310 347 291 362 c 0,23,24
 264 382 264 382 257 382 c 0,25,26
 237 381 237 381 187 332 c 1,27,-1
 187 261 l 2,28,29
 187 237 187 237 169 226 c 0,30,31
 161 221 161 221 152 221 c 128,-1,32
 143 221 143 221 135 226 c 0,33,34
 117 237 117 237 117 261 c 0,35,36
 117 272 117 272 115 343 c 0,37,38
 115 347 115 347 114 350 c 0,39,40
 114 368 114 368 118 374 c 0,41,42
 122 381 122 381 182 421 c 0,43,44
 245 462 245 462 258 462 c 0,45,46
 273 462 273 462 325 425 c 0,47,48
 384 385 384 385 397 372 c 0,49,50
 401 368 401 368 401 355.5 c 128,-1,51
 401 343 401 343 397 232 c 1,52,53
 388 217 388 217 270 139.5 c 128,-1,54
 152 62 152 62 137.5 62 c 128,-1,55
 123 62 123 62 90 84 c 128,-1,56
 57 106 57 106 37 122 c 1,57,-1
 36 122 l 2,58,59
 33 122 33 122 10 97 c 0,60,61
 -10 75 -10 75 -15 70 c 0,62,63
 -17 68 -17 68 -37 64 c 0,64,65
 -55 59 -55 59 -62 59 c 128,-1,66
 -69 59 -69 59 -74 62 c 0,67,68
 -80 68 -80 68 -79 79 c 0,69,70
 -79 98 -79 98 -75 108 c 0,71,72
 -71 116 -71 116 -13 182 c 1,73,74
 -10 194 -10 194 -10 212.5 c 128,-1,75
 -10 231 -10 231 -13 401 c 0,76,77
 -13 403 -13 403 -49 429 c 0,78,79
 -83 451 -83 451 -85.5 454 c 128,-1,80
 -88 457 -88 457 -88 476 c 0,81,82
 -88 494 -88 494 -83 502 c 0,83,84
 -80 508 -80 508 -64.5 511 c 128,-1,85
 -49 514 -49 514 -42.5 514 c 128,-1,86
 -36 514 -36 514 -34 512 c 128,-1,87
 -32 510 -32 510 -11 494 c 0,88,89
 9 477 9 477 17 472 c 1,90,91
 21 476 21 476 105 528 c 128,-1,92
 189 580 189 580 207 592 c 0,93,94
 206 594 206 594 206 601 c 0,95,96
 206 607 206 607 207 660 c 0,97,98
 207 670 207 670 222 685 c 0,99,100
 239 701 239 701 245 701 c 0,101,102
 249 701 249 701 263 685 c 0,103,104
 278 670 278 670 278 662 c 2,105,-1
 278 630 l 1,106,-1
 278 592 l 1,107,108
 301 580 301 580 387 536 c 256,109,110
 473 492 473 492 487 482 c 0,111,112
 489 484 489 484 512 501.5 c 128,-1,113
 535 519 535 519 538 522 c 0,114,115
 542 525 542 525 552 525 c 2,116,-1
 561 525 l 2,117,118
 584 525 584 525 588 522 c 0,119,120
 592 518 592 518 593 502.5 c 128,-1,121
 594 487 594 487 590 483 c 0,122,123
 583 476 583 476 573 468 c 0,124,125
 534 436 534 436 527 432 c 1,126,127
 529 429 529 429 529 414 c 2,128,-1
 529 298 l 2,129,130
 527 198 527 198 527 192 c 0,131,132
 527 190 527 190 556 168 c 0,133,134
 580 150 580 150 589 141 c 0,135,136
 594 137 594 137 602 117 c 0,137,138
 610 98 610 98 607 91.5 c 128,-1,139
 604 85 604 85 580 85 c 0,140,141
 554 85 554 85 547 93 c 0,142,143
 541 99 541 99 516.5 115.5 c 128,-1,144
 492 132 492 132 487 132 c 0,145,146
 484 132 484 132 393 72 c 0,147,148
 297 7 297 7 278 -8 c 0,149,150
 275 -10 275 -10 275 -18 c 0,151,152
 275 -29 275 -29 278 -78 c 0,153,154
 278 -79 278 -79 278 -79 c 2,155,156
 278 -90 278 -90 262 -104 c 128,-1,157
 246 -118 246 -118 237.5 -118 c 128,-1,158
 229 -118 229 -118 218 -101.5 c 128,-1,159
 207 -85 207 -85 207 -82 c 2,160,-1
 207 -71 l 1,161,-1
 207 -22 l 1,162,-1
 207 24 l 2,163,164
 207 27 207 27 267.5 66.5 c 128,-1,165
 328 106 328 106 391 147 c 0,166,167
 452 186 452 186 457 192 c 0,168,169
 461 196 461 196 461 222 c 0,170,171
 461 238 461 238 458 412 c 0,0,1
EndSplineSet
EndChar

StartChar: Odieresis
Encoding: 133 214 109
Width: 400
GlyphClass: 2
Flags: W
LayerCount: 2
Fore
SplineSet
325 723 m 1,0,1
 332 684 332 684 332 654 c 0,2,3
 332 630 332 630 329 602 c 0,4,5
 327 581 327 581 318 560 c 0,6,7
 307 534 307 534 303 526 c 0,8,9
 297 515 297 515 285 501 c 0,10,11
 271 485 271 485 261 478 c 0,12,13
 255 474 255 474 251 468 c 0,14,15
 151 372 151 372 143 357 c 0,16,17
 120 309 120 309 120 268 c 0,18,19
 120 226 120 226 136 197 c 0,20,21
 165 146 165 146 227 119 c 0,22,23
 251 109 251 109 260 108 c 2,24,-1
 281 108 l 2,25,26
 291 109 291 109 318 119 c 0,27,28
 383 144 383 144 415 192 c 0,29,30
 433 219 433 219 432 249 c 0,31,32
 432 280 432 280 424 300 c 0,33,34
 416 318 416 318 399 325 c 0,35,36
 377 336 377 336 356.5 336 c 128,-1,37
 336 336 336 336 322.5 334.5 c 128,-1,38
 309 333 309 333 297 323 c 0,39,40
 279 308 279 308 279 283 c 0,41,42
 279 274 279 274 281 269 c 0,43,44
 283 258 283 258 297 250 c 0,45,46
 312 241 312 241 337.5 241.5 c 128,-1,47
 363 242 363 242 363 228 c 2,48,-1
 363 227 l 2,49,50
 361 208 361 208 335 198 c 0,51,52
 306 187 306 187 277 187 c 2,53,-1
 273 187 l 2,54,55
 250 188 250 188 229 216 c 0,56,57
 207 242 207 242 207 275 c 2,58,-1
 207 279 l 2,59,60
 207 308 207 308 215 328 c 0,61,62
 227 352 227 352 238 363 c 0,63,64
 251 376 251 376 269 388 c 0,65,66
 313 417 313 417 350 417 c 2,67,-1
 355 417 l 2,68,69
 377 416 377 416 401 410 c 1,70,71
 409 420 409 420 418 428 c 0,72,73
 441 449 441 449 473.5 494 c 128,-1,74
 506 539 506 539 535 572 c 0,75,76
 557 599 557 599 574 612 c 0,77,78
 588 623 588 623 593 620 c 128,-1,79
 598 617 598 617 594 598 c 0,80,81
 585 560 585 560 536 474 c 0,82,83
 490 392 490 392 465 357 c 1,84,85
 489 328 489 328 501 295 c 1,86,87
 529 274 529 274 543 274 c 0,88,89
 632 271 632 271 644 246 c 0,90,91
 646 244 646 244 645 240 c 2,92,-1
 645 239 l 2,93,94
 645 229 645 229 620 220 c 0,95,96
 598 214 598 214 561 209 c 0,97,98
 530 206 530 206 501 198 c 1,99,100
 498 191 498 191 491.5 177.5 c 128,-1,101
 485 164 485 164 483 158 c 256,102,103
 481 152 481 152 475 142 c 0,104,105
 466 123 466 123 455 108 c 1,106,-1
 490 58 l 2,107,108
 576 -68 576 -68 576 -90 c 0,109,110
 576 -95 576 -95 571 -94 c 0,111,112
 541 -92 541 -92 424 25 c 0,113,114
 422 27 422 27 404.5 41 c 128,-1,115
 387 55 387 55 379 65 c 1,116,117
 374 63 374 63 348 56 c 0,118,119
 326 50 326 50 317 46 c 1,120,121
 317 38 317 38 311 21 c 0,122,123
 305 0 305 0 305 -8 c 0,124,125
 295 -90 295 -90 276 -90 c 0,126,127
 259 -90 259 -90 240 4 c 0,128,129
 240 6 240 6 234 24 c 0,130,131
 230 36 230 36 227 54 c 1,132,133
 217 55 217 55 192 62.5 c 128,-1,134
 167 70 167 70 153 76 c 0,135,136
 151 73 151 73 151 77 c 2,137,-1
 151 79 l 1,138,-1
 151 80 l 1,139,140
 147 80 147 80 121 46 c 0,141,142
 15 -96 15 -96 -13 -96 c 0,143,144
 -19 -96 -19 -96 -19 -84 c 0,145,146
 -19 -73 -19 -73 1 -29 c 0,147,148
 36 44 36 44 99 130 c 1,149,150
 93 136 93 136 77 159.5 c 128,-1,151
 61 183 61 183 55 194 c 0,152,153
 50 196 50 196 32 201 c 0,154,155
 13 207 13 207 -7 210.5 c 128,-1,156
 -27 214 -27 214 -45 221.5 c 128,-1,157
 -63 229 -63 229 -63 237 c 128,-1,158
 -63 245 -63 245 -55 252 c 0,159,160
 -37 269 -37 269 13 274 c 0,161,162
 30 276 30 276 42 283 c 0,163,164
 57 291 57 291 55 295 c 0,165,166
 55 334 55 334 78 381 c 0,167,168
 84 396 84 396 83.5 402 c 128,-1,169
 83 408 83 408 72 421 c 0,170,171
 37 465 37 465 29 476 c 0,172,173
 -5 521 -5 521 -20 540 c 0,174,175
 -63 594 -63 594 -63 615 c 0,176,177
 -63 623 -63 623 -57 623 c 0,178,179
 -37 623 -37 623 39 551 c 0,180,181
 119 476 119 476 127 476 c 0,182,183
 130 477 130 477 141 481 c 0,184,185
 147 483 147 483 156 489 c 128,-1,186
 165 495 165 495 170 500 c 0,187,188
 176 504 176 504 185 512 c 0,189,190
 190 516 190 516 197 523 c 0,191,192
 258 574 258 574 288 635 c 0,193,194
 305 670 305 670 313 696 c 0,195,196
 323 722 323 722 325 723 c 1,0,1
EndSplineSet
EndChar

StartChar: Udieresis
Encoding: 134 220 110
Width: 400
GlyphClass: 2
Flags: W
LayerCount: 2
Fore
SplineSet
437 259 m 0,0,1
 445 280 445 280 461 310.5 c 128,-1,2
 477 341 477 341 483 341 c 0,3,4
 486 341 486 341 489.5 336 c 128,-1,5
 493 331 493 331 495.5 319.5 c 128,-1,6
 498 308 498 308 498 293 c 0,7,8
 498 281 498 281 496 270 c 0,9,10
 492 248 492 248 479 197.5 c 128,-1,11
 466 147 466 147 457 123 c 1,12,13
 447 109 447 109 411 110 c 0,14,15
 393 110 393 110 360 114 c 1,16,17
 359 104 359 104 359 89 c 0,18,19
 359 70 359 70 360.5 19 c 128,-1,20
 362 -32 362 -32 362 -58 c 0,21,22
 362 -136 362 -136 349 -149 c 0,23,24
 348 -150 348 -150 347 -150 c 0,25,26
 333 -150 333 -150 246 -50 c 128,-1,27
 159 50 159 50 77 152.5 c 128,-1,28
 -5 255 -5 255 -12 270 c 1,29,30
 -4 288 -4 288 65 287 c 2,31,-1
 92 287 l 1,32,-1
 119 287 l 2,33,34
 147 287 147 287 164 289 c 1,35,36
 3 439 3 439 -23.5 464.5 c 128,-1,37
 -50 490 -50 490 -50 494 c 0,38,39
 -50 514 -50 514 97.5 585.5 c 128,-1,40
 245 657 245 657 291 669 c 1,41,42
 323 658 323 658 413 584.5 c 128,-1,43
 503 511 503 511 544 464 c 1,44,45
 533 453 533 453 493 427.5 c 128,-1,46
 453 402 453 402 394.5 368.5 c 128,-1,47
 336 335 336 335 311 319 c 1,48,49
 287 337 287 337 230.5 387.5 c 128,-1,50
 174 438 174 438 155 464 c 1,51,52
 161 468 161 468 178 476.5 c 128,-1,53
 195 485 195 485 203 494 c 1,54,55
 255 522 255 522 283 522 c 0,56,57
 294 522 294 522 300 516 c 0,58,59
 307 509 307 509 307 502 c 0,60,61
 307 492 307 492 294.5 482.5 c 128,-1,62
 282 473 282 473 252 454 c 1,63,64
 260 443 260 443 284.5 421 c 128,-1,65
 309 399 309 399 311 396.5 c 128,-1,66
 313 394 313 394 316 394 c 0,67,68
 326 394 326 394 347 406.5 c 128,-1,69
 368 419 368 419 406.5 445.5 c 128,-1,70
 445 472 445 472 447 474 c 1,71,72
 441 480 441 480 410.5 504 c 128,-1,73
 380 528 380 528 335.5 560.5 c 128,-1,74
 291 593 291 593 282 601 c 1,75,76
 274 595 274 595 225 572 c 0,77,78
 175 549 175 549 116 522 c 256,79,80
 57 495 57 495 37 484 c 1,81,82
 44 476 44 476 104 420.5 c 128,-1,83
 164 365 164 365 212.5 316.5 c 128,-1,84
 261 268 261 268 261 259 c 0,85,86
 261 245 261 245 201 238 c 128,-1,87
 141 231 141 231 95 231 c 1,88,89
 103 224 103 224 198.5 105 c 128,-1,90
 294 -14 294 -14 311 -34 c 1,91,92
 312 -32 312 -32 311 -27 c 0,93,94
 311 -18 311 -18 304 40 c 128,-1,95
 297 98 297 98 297 127 c 0,96,97
 297 150 297 150 300 162 c 0,98,99
 301 177 301 177 331 178 c 0,100,101
 342 178 342 178 367.5 174.5 c 128,-1,102
 393 171 393 171 402 171 c 2,103,-1
 408 171 l 1,104,105
 411 188 411 188 437 259 c 0,0,1
EndSplineSet
EndChar

StartChar: aacute
Encoding: 135 225 111
Width: 400
GlyphClass: 2
Flags: W
LayerCount: 2
Fore
SplineSet
203 625 m 0,0,1
 232 660 232 660 257.5 678.5 c 128,-1,2
 283 697 283 697 298 697 c 0,3,4
 312 697 312 697 312 684 c 0,5,6
 312 666 312 666 288 636 c 0,7,8
 255 592 255 592 229.5 557 c 128,-1,9
 204 522 204 522 169.5 465 c 128,-1,10
 135 408 135 408 112.5 359 c 128,-1,11
 90 310 90 310 73.5 250.5 c 128,-1,12
 57 191 57 191 57 138 c 0,13,14
 57 83 57 83 86.5 39.5 c 128,-1,15
 116 -4 116 -4 164 -26 c 128,-1,16
 212 -48 212 -48 267 -48 c 0,17,18
 351 -48 351 -48 408.5 5 c 128,-1,19
 466 58 466 58 466 141 c 0,20,21
 466 254 466 254 340 446 c 1,22,23
 308 404 308 404 283 359 c 128,-1,24
 258 314 258 314 246.5 279.5 c 128,-1,25
 235 245 235 245 230 224 c 128,-1,26
 225 203 225 203 225 193 c 0,27,28
 225 174 225 174 237.5 157.5 c 128,-1,29
 250 141 250 141 266.5 141 c 128,-1,30
 283 141 283 141 293.5 148 c 128,-1,31
 304 155 304 155 308 168.5 c 128,-1,32
 312 182 312 182 313.5 195 c 128,-1,33
 315 208 315 208 316 226.5 c 128,-1,34
 317 245 317 245 320 257 c 1,35,36
 321 255 321 255 324 253 c 0,37,38
 339 241 339 241 347 234 c 128,-1,39
 355 227 355 227 363 210 c 128,-1,40
 371 193 371 193 372 173 c 0,41,42
 372 142 372 142 360 118 c 128,-1,43
 348 94 348 94 330 81.5 c 128,-1,44
 312 69 312 69 296 62.5 c 128,-1,45
 280 56 280 56 267 56 c 0,46,47
 256 56 256 56 243.5 59 c 128,-1,48
 231 62 231 62 214 70.5 c 128,-1,49
 197 79 197 79 183.5 92 c 128,-1,50
 170 105 170 105 160.5 128.5 c 128,-1,51
 151 152 151 152 151 183 c 0,52,53
 151 221 151 221 176.5 282 c 128,-1,54
 202 343 202 343 234.5 396.5 c 128,-1,55
 267 450 267 450 298 490 c 128,-1,56
 329 530 329 530 340 531 c 2,57,-1
 342 531 l 2,58,59
 358 531 358 531 390.5 488 c 128,-1,60
 423 445 423 445 456.5 386 c 128,-1,61
 490 327 490 327 515 257.5 c 128,-1,62
 540 188 540 188 540 141 c 0,63,64
 540 66 540 66 503 5.5 c 128,-1,65
 466 -55 466 -55 404 -88.5 c 128,-1,66
 342 -122 342 -122 267 -122 c 0,67,68
 191 -122 191 -122 127 -91.5 c 128,-1,69
 63 -61 63 -61 23 -0.5 c 128,-1,70
 -17 60 -17 60 -17 140 c 0,71,72
 -17 202 -17 202 4.5 273.5 c 128,-1,73
 26 345 26 345 62 410.5 c 128,-1,74
 98 476 98 476 132.5 528 c 128,-1,75
 167 580 167 580 203 625 c 0,0,1
EndSplineSet
EndChar

StartChar: agrave
Encoding: 136 224 112
Width: 1000
GlyphClass: 2
Flags: W
LayerCount: 2
Fore
SplineSet
819 97 m 1,0,-1
 711 38 l 1,1,-1
 652 -70 l 1,2,-1
 618 -7 l 1,3,4
 540 -57 540 -57 455 -73 c 0,5,6
 387 -87 387 -87 321.5 -70.5 c 128,-1,7
 256 -54 256 -54 209.5 -5 c 128,-1,8
 163 44 163 44 155 115 c 0,9,10
 145 202 145 202 185.5 285.5 c 128,-1,11
 226 369 226 369 297 431 c 1,12,13
 261 391 261 391 235.5 341 c 128,-1,14
 210 291 210 291 197.5 237.5 c 128,-1,15
 185 184 185 184 197.5 130.5 c 128,-1,16
 210 77 210 77 250 39 c 1,17,18
 291 6 291 6 343.5 2.5 c 128,-1,19
 396 -1 396 -1 444 17 c 128,-1,20
 492 35 492 35 537 69 c 1,21,-1
 485 97 l 1,22,-1
 593 156 l 1,23,-1
 652 265 l 1,24,-1
 711 156 l 1,25,-1
 819 97 l 1,0,-1
877 527 m 0,26,27
 887 440 887 440 846.5 356.5 c 128,-1,28
 806 273 806 273 735 211 c 1,29,30
 771 251 771 251 796.5 301 c 128,-1,31
 822 351 822 351 834.5 404.5 c 128,-1,32
 847 458 847 458 834.5 511.5 c 128,-1,33
 822 565 822 565 782 603 c 1,34,35
 741 636 741 636 687.5 639.5 c 128,-1,36
 634 643 634 643 585.5 624.5 c 128,-1,37
 537 606 537 606 492 571 c 1,38,-1
 543 543 l 1,39,-1
 435 484 l 1,40,-1
 376 376 l 1,41,-1
 317 484 l 1,42,-1
 209 543 l 1,43,-1
 317 602 l 1,44,-1
 376 710 l 1,45,-1
 411 647 l 1,46,47
 491 699 491 699 577 715 c 0,48,49
 645 729 645 729 710.5 712 c 128,-1,50
 776 695 776 695 822.5 646.5 c 128,-1,51
 869 598 869 598 877 527 c 0,26,27
EndSplineSet
EndChar

StartChar: dagger
Encoding: -1 8224 113
Width: 683
GlyphClass: 1
Flags: W
LayerCount: 2
Fore
SplineSet
366 675 m 0,0,1
 380 675 380 675 489 560 c 128,-1,2
 598 445 598 445 598 433 c 0,3,4
 598 423 598 423 482 316 c 128,-1,5
 366 209 366 209 354 209 c 256,6,7
 342 209 342 209 302 272.5 c 128,-1,8
 262 336 262 336 268 344 c 256,9,10
 274 352 274 352 290 347.5 c 128,-1,11
 306 343 306 343 320 333.5 c 128,-1,12
 334 324 334 324 349 316.5 c 128,-1,13
 364 309 364 309 368 312 c 0,14,15
 486 420 486 420 486 432 c 0,16,17
 488 441 488 441 431 501 c 128,-1,18
 374 561 374 561 364 561 c 0,19,20
 352 561 352 561 227 437.5 c 128,-1,21
 102 314 102 314 102 301 c 128,-1,22
 102 288 102 288 221 172 c 128,-1,23
 340 56 340 56 350 57 c 0,24,25
 356 57 356 57 504 187.5 c 128,-1,26
 652 318 652 318 658 318 c 0,27,28
 670 319 670 319 694 306.5 c 128,-1,29
 718 294 718 294 718 285 c 256,30,31
 718 276 718 276 538 111 c 128,-1,32
 358 -54 358 -54 348 -53 c 0,33,34
 340 -53 340 -53 251 30.5 c 128,-1,35
 162 114 162 114 76 203 c 128,-1,36
 -10 292 -10 292 -10 305 c 256,37,38
 -10 318 -10 318 171 496 c 128,-1,39
 352 674 352 674 366 675 c 0,0,1
EndSplineSet
EndChar

StartChar: cent
Encoding: 162 162 115
Width: 432
GlyphClass: 1
Flags: W
LayerCount: 2
Fore
SplineSet
381 115 m 1,0,-1
 397 63 l 1,1,2
 373 45 373 45 348 29 c 0,3,4
 327 15 327 15 302.5 3 c 128,-1,5
 278 -9 278 -9 255 -11 c 1,6,-1
 240 -151 l 1,7,-1
 171 -159 l 1,8,-1
 165 -152 l 1,9,-1
 181 -4 l 1,10,11
 107 13 107 13 66 71 c 128,-1,12
 25 129 25 129 25 219 c 0,13,14
 25 270 25 270 40 313.5 c 128,-1,15
 55 357 55 357 82.5 390 c 128,-1,16
 110 423 110 423 148 444 c 128,-1,17
 186 465 186 465 232 471 c 1,18,-1
 252 649 l 1,19,-1
 322 658 l 1,20,-1
 328 649 l 1,21,-1
 308 472 l 1,22,23
 348 467 348 467 372 461 c 0,24,25
 385 457 385 457 396 453 c 1,26,-1
 400 444 l 1,27,28
 395 423 395 423 391 398 c 0,29,30
 387 377 387 377 383.5 349 c 128,-1,31
 380 321 380 321 378 289 c 1,32,-1
 313 285 l 1,33,-1
 313 318 l 2,34,35
 313 389 313 389 251 389 c 0,36,37
 205 389 205 389 181.5 355.5 c 128,-1,38
 158 322 158 322 158 257 c 0,39,40
 158 175 158 175 186 132 c 128,-1,41
 214 89 214 89 267 89 c 0,42,43
 287 89 287 89 306.5 93.5 c 128,-1,44
 326 98 326 98 341 103 c 0,45,46
 359 109 359 109 373 118 c 1,47,-1
 381 115 l 1,0,-1
EndSplineSet
EndChar

StartChar: sterling
Encoding: 163 163 116
Width: 518
GlyphClass: 1
Flags: W
LayerCount: 2
Fore
SplineSet
468 176 m 1,0,1
 477 160 477 160 483 137.5 c 128,-1,2
 489 115 489 115 489 93 c 0,3,4
 489 47 489 47 461.5 17.5 c 128,-1,5
 434 -12 434 -12 392 -12 c 0,6,7
 367 -12 367 -12 338.5 -4.5 c 128,-1,8
 310 3 310 3 281 12.5 c 128,-1,9
 252 22 252 22 223 29.5 c 128,-1,10
 194 37 194 37 167 37 c 0,11,12
 139 37 139 37 113 28.5 c 128,-1,13
 87 20 87 20 58 1 c 1,14,-1
 47 6 l 1,15,-1
 27 67 l 1,16,17
 119 123 119 123 119 203 c 2,18,-1
 119 244 l 2,19,20
 117 267 117 267 105 274.5 c 128,-1,21
 93 282 93 282 55 284 c 1,22,-1
 51 290 l 1,23,-1
 58 342 l 1,24,-1
 119 352 l 1,25,-1
 119 373 l 2,26,27
 119 419 119 419 137.5 460 c 128,-1,28
 156 501 156 501 187.5 532 c 128,-1,29
 219 563 219 563 260.5 580.5 c 128,-1,30
 302 598 302 598 348 598 c 0,31,32
 380 598 380 598 411.5 594 c 128,-1,33
 443 590 443 590 460 583 c 1,34,-1
 465 572 l 1,35,-1
 433 476 l 1,36,-1
 414 473 l 1,37,38
 378 493 378 493 352 502 c 128,-1,39
 326 511 326 511 305 511 c 0,40,41
 270 511 270 511 253 488.5 c 128,-1,42
 236 466 236 466 235 416 c 2,43,-1
 232 348 l 1,44,45
 261 348 261 348 288.5 348 c 128,-1,46
 316 348 316 348 337 349 c 0,47,48
 362 350 362 350 383 351 c 1,49,-1
 387 346 l 1,50,-1
 376 278 l 1,51,52
 356 278 356 278 332 279 c 0,53,54
 312 280 312 280 285.5 280.5 c 128,-1,55
 259 281 259 281 230 281 c 1,56,-1
 228 221 l 2,57,58
 227 189 227 189 214.5 158.5 c 128,-1,59
 202 128 202 128 181 110 c 1,60,-1
 238 122 l 2,61,62
 253 122 253 122 271.5 119 c 128,-1,63
 290 116 290 116 308.5 112.5 c 128,-1,64
 327 109 327 109 345 106 c 128,-1,65
 363 103 363 103 378 103 c 0,66,67
 407 103 407 103 424 122 c 128,-1,68
 441 141 441 141 443 178 c 1,69,-1
 468 176 l 1,0,1
EndSplineSet
EndChar

StartChar: section
Encoding: 164 167 117
Width: 444
GlyphClass: 1
Flags: W
LayerCount: 2
Fore
SplineSet
68 351 m 0,0,1
 68 392 68 392 88 426 c 1,2,3
 74 440 74 440 60.5 452.5 c 128,-1,4
 47 465 47 465 36 475 c 0,5,6
 24 486 24 486 13 497 c 1,7,-1
 16 514 l 1,8,-1
 86 564 l 1,9,10
 94 555 94 555 112.5 535 c 128,-1,11
 131 515 131 515 153 492 c 1,12,13
 169 500 169 500 187.5 505 c 128,-1,14
 206 510 206 510 226 510 c 256,15,16
 246 510 246 510 264.5 505 c 128,-1,17
 283 500 283 500 300 492 c 1,18,19
 313 506 313 506 325 520 c 128,-1,20
 337 534 337 534 347 545 c 0,21,22
 358 557 358 557 368 569 c 1,23,-1
 386 565 l 1,24,-1
 437 494 l 1,25,-1
 365 427 l 1,26,27
 375 410 375 410 380.5 391 c 128,-1,28
 386 372 386 372 386 351 c 0,29,30
 386 311 386 311 367 278 c 1,31,32
 381 265 381 265 394 253 c 128,-1,33
 407 241 407 241 418 232 c 0,34,35
 430 221 430 221 441 211 c 1,36,-1
 437 194 l 1,37,-1
 366 142 l 1,38,-1
 301 212 l 1,39,40
 267 192 267 192 226 192 c 0,41,42
 205 192 205 192 185.5 197.5 c 128,-1,43
 166 203 166 203 149 213 c 1,44,45
 136 199 136 199 124 185.5 c 128,-1,46
 112 172 112 172 102 162 c 0,47,48
 91 150 91 150 81 140 c 1,49,-1
 64 144 l 1,50,-1
 15 215 l 1,51,52
 25 223 25 223 44 240.5 c 128,-1,53
 63 258 63 258 86 278 c 1,54,55
 68 311 68 311 68 351 c 0,0,1
140 351 m 256,56,57
 140 315 140 315 165 289.5 c 128,-1,58
 190 264 190 264 226 264 c 256,59,60
 262 264 262 264 288 289.5 c 128,-1,61
 314 315 314 315 314 351 c 256,62,63
 314 387 314 387 288 412.5 c 128,-1,64
 262 438 262 438 226 438 c 256,65,66
 190 438 190 438 165 412.5 c 128,-1,67
 140 387 140 387 140 351 c 256,56,57
EndSplineSet
EndChar

StartChar: bullet
Encoding: 165 8226 118
Width: 568
GlyphClass: 1
Flags: W
LayerCount: 2
Fore
SplineSet
229 429 m 0,0,1
 229 418 229 418 245 383 c 2,2,-1
 254 360 l 1,3,-1
 301 279 l 1,4,-1
 366 408 l 2,5,6
 374 422 374 422 374 432 c 0,7,8
 374 438 374 438 370.5 440 c 128,-1,9
 367 442 367 442 361 442.5 c 128,-1,10
 355 443 355 443 347.5 444 c 128,-1,11
 340 445 340 445 331 450 c 1,12,13
 332 455 332 455 332 460 c 128,-1,14
 332 465 332 465 332 470 c 2,15,-1
 337 505 l 1,16,17
 355 505 355 505 389 503.5 c 128,-1,18
 423 502 423 502 453 502 c 0,19,20
 467 502 467 502 483 502 c 128,-1,21
 499 502 499 502 512 503 c 0,22,23
 527 504 527 504 541 505 c 1,24,-1
 545 499 l 1,25,-1
 539 444 l 1,26,27
 521 438 521 438 509 432 c 128,-1,28
 497 426 497 426 487.5 417.5 c 128,-1,29
 478 409 478 409 470 398 c 128,-1,30
 462 387 462 387 452 371 c 2,31,-1
 428 331 l 1,32,33
 458 332 458 332 483.5 332.5 c 128,-1,34
 509 333 509 333 523 333 c 1,35,-1
 530 324 l 1,36,-1
 526 267 l 1,37,-1
 390 267 l 1,38,-1
 364 222 l 2,39,40
 357 211 357 211 354 195 c 1,41,42
 406 196 406 196 452 197 c 128,-1,43
 498 198 498 198 522 199 c 1,44,-1
 529 189 l 1,45,-1
 524 132 l 1,46,-1
 343 132 l 1,47,48
 343 122 343 122 343 112.5 c 128,-1,49
 343 103 343 103 344 94 c 0,50,51
 346 76 346 76 351.5 68.5 c 128,-1,52
 357 61 357 61 371 60 c 0,53,54
 375 59 375 59 380 59 c 128,-1,55
 385 59 385 59 390 59 c 2,56,-1
 424 61 l 1,57,-1
 427 55 l 1,58,-1
 419 -3 l 1,59,60
 390 -3 390 -3 364 -2 c 0,61,62
 341 -1 341 -1 317 -0.5 c 128,-1,63
 293 0 293 0 277 0 c 0,64,65
 259 0 259 0 235.5 -1.5 c 128,-1,66
 212 -3 212 -3 191 -5 c 0,67,68
 166 -7 166 -7 140 -9 c 1,69,-1
 146 51 l 1,70,71
 170 54 170 54 184.5 58.5 c 128,-1,72
 199 63 199 63 206.5 72 c 128,-1,73
 214 81 214 81 217 95.5 c 128,-1,74
 220 110 220 110 221 132 c 1,75,76
 167 132 167 132 119.5 131.5 c 128,-1,77
 72 131 72 131 49 131 c 1,78,-1
 42 139 l 1,79,-1
 50 195 l 1,80,-1
 213 195 l 1,81,82
 209 204 209 204 205.5 212.5 c 128,-1,83
 202 221 202 221 196 232 c 2,84,-1
 177 267 l 1,85,86
 135 267 135 267 101 266.5 c 128,-1,87
 67 266 67 266 50 266 c 1,88,-1
 43 273 l 1,89,-1
 51 329 l 1,90,-1
 139 329 l 1,91,92
 115 371 115 371 86 402.5 c 128,-1,93
 57 434 57 434 21 444 c 1,94,95
 20 450 20 450 20.5 456 c 128,-1,96
 21 462 21 462 21 468 c 2,97,-1
 27 505 l 1,98,99
 46 504 46 504 64 503 c 0,100,101
 80 502 80 502 98 502 c 128,-1,102
 116 502 116 502 131 502 c 0,103,104
 138 502 138 502 161 503 c 128,-1,105
 184 504 184 504 209 505 c 128,-1,106
 234 506 234 506 254 507.5 c 128,-1,107
 274 509 274 509 276 509 c 2,108,-1
 281 499 l 1,109,-1
 276 448 l 1,110,111
 245 446 245 446 237 441.5 c 128,-1,112
 229 437 229 437 229 429 c 0,0,1
EndSplineSet
EndChar

StartChar: paragraph
Encoding: 166 182 119
Width: 334
GlyphClass: 1
Flags: W
LayerCount: 2
Fore
SplineSet
204 173 m 1,0,-1
 214 163 l 1,1,-1
 214 -119 l 2,2,3
 214 -190 214 -190 215 -258 c 1,4,-1
 128 -269 l 1,5,-1
 116 -258 l 1,6,7
 116 -230 116 -230 116 -184.5 c 128,-1,8
 116 -139 116 -139 116 -83 c 128,-1,9
 116 -27 116 -27 116.5 35 c 128,-1,10
 117 97 117 97 117 158 c 1,11,-1
 204 173 l 1,0,-1
126 363 m 1,12,-1
 117 370 l 1,13,14
 117 477 117 477 117.5 583 c 128,-1,15
 118 689 118 689 118 796 c 1,16,-1
 204 807 l 1,17,-1
 220 796 l 1,18,19
 218 724 218 724 217 651 c 0,20,21
 216 588 216 588 215 514.5 c 128,-1,22
 214 441 214 441 214 375 c 1,23,-1
 126 363 l 1,12,-1
EndSplineSet
EndChar

StartChar: germandbls
Encoding: 167 223 120
Width: 500
GlyphClass: 1
Flags: W
LayerCount: 2
Fore
SplineSet
388 54 m 0,0,1
 388 25 388 25 373.5 -2.5 c 128,-1,2
 359 -30 359 -30 333.5 -51.5 c 128,-1,3
 308 -73 308 -73 272.5 -86.5 c 128,-1,4
 237 -100 237 -100 196 -100 c 0,5,6
 169 -100 169 -100 144 -93.5 c 128,-1,7
 119 -87 119 -87 100.5 -76.5 c 128,-1,8
 82 -66 82 -66 71 -52 c 128,-1,9
 60 -38 60 -38 60 -22 c 0,10,11
 60 7 60 7 67.5 36.5 c 128,-1,12
 75 66 75 66 87 83 c 1,13,-1
 108 82 l 1,14,15
 112 60 112 60 121.5 41.5 c 128,-1,16
 131 23 131 23 145 9.5 c 128,-1,17
 159 -4 159 -4 176.5 -11.5 c 128,-1,18
 194 -19 194 -19 213 -19 c 0,19,20
 237 -19 237 -19 253 -5.5 c 128,-1,21
 269 8 269 8 269 30 c 0,22,23
 269 54 269 54 251 73 c 128,-1,24
 233 92 233 92 206.5 110 c 128,-1,25
 180 128 180 128 148.5 146.5 c 128,-1,26
 117 165 117 165 90.5 188 c 128,-1,27
 64 211 64 211 46 240 c 128,-1,28
 28 269 28 269 28 308 c 0,29,30
 28 352 28 352 56.5 388.5 c 128,-1,31
 85 425 85 425 127 451 c 1,32,33
 115 475 115 475 115 503 c 0,34,35
 115 534 115 534 128.5 562 c 128,-1,36
 142 590 142 590 165.5 610 c 128,-1,37
 189 630 189 630 220.5 642 c 128,-1,38
 252 654 252 654 289 654 c 0,39,40
 313 654 313 654 335 650 c 128,-1,41
 357 646 357 646 374 639 c 128,-1,42
 391 632 391 632 401 623 c 128,-1,43
 411 614 411 614 411 604 c 0,44,45
 411 592 411 592 408 576.5 c 128,-1,46
 405 561 405 561 400.5 545.5 c 128,-1,47
 396 530 396 530 391 517.5 c 128,-1,48
 386 505 386 505 381 501 c 1,49,-1
 362 501 l 1,50,51
 350 531 350 531 326.5 550 c 128,-1,52
 303 569 303 569 278 569 c 0,53,54
 259 569 259 569 246.5 556.5 c 128,-1,55
 234 544 234 544 234 525 c 0,56,57
 234 502 234 502 251.5 482.5 c 128,-1,58
 269 463 269 463 296 444.5 c 128,-1,59
 323 426 323 426 353.5 406.5 c 128,-1,60
 384 387 384 387 411 364 c 128,-1,61
 438 341 438 341 455.5 312.5 c 128,-1,62
 473 284 473 284 473 248 c 0,63,64
 473 205 473 205 446.5 166.5 c 128,-1,65
 420 128 420 128 377 102 c 1,66,67
 388 78 388 78 388 54 c 0,0,1
132 350 m 0,68,69
 132 319 132 319 154.5 294 c 128,-1,70
 177 269 177 269 209.5 246.5 c 128,-1,71
 242 224 242 224 278.5 201 c 128,-1,72
 315 178 315 178 342 151 c 1,73,74
 365 176 365 176 365 208 c 0,75,76
 365 238 365 238 343 263 c 128,-1,77
 321 288 321 288 288.5 311 c 128,-1,78
 256 334 256 334 220.5 357 c 128,-1,79
 185 380 185 380 158 408 c 1,80,81
 132 384 132 384 132 350 c 0,68,69
EndSplineSet
EndChar

StartChar: registered
Encoding: 168 174 121
Width: 398
GlyphClass: 1
Flags: W
LayerCount: 2
Fore
SplineSet
284 563 m 0,0,1
 255 563 255 563 239.5 580 c 128,-1,2
 224 597 224 597 224 623 c 0,3,4
 224 653 224 653 242.5 672 c 128,-1,5
 261 691 261 691 292 691 c 0,6,7
 321 691 321 691 336 674 c 128,-1,8
 351 657 351 657 351 630 c 0,9,10
 351 601 351 601 332.5 582 c 128,-1,11
 314 563 314 563 284 563 c 0,0,1
105 563 m 0,12,13
 76 563 76 563 61 580 c 128,-1,14
 46 597 46 597 46 623 c 0,15,16
 46 653 46 653 64.5 672 c 128,-1,17
 83 691 83 691 113 691 c 0,18,19
 142 691 142 691 157.5 674 c 128,-1,20
 173 657 173 657 173 630 c 0,21,22
 173 601 173 601 154.5 582 c 128,-1,23
 136 563 136 563 105 563 c 0,12,13
EndSplineSet
EndChar

StartChar: copyright
Encoding: 169 169 122
Width: 696
GlyphClass: 1
Flags: W
LayerCount: 2
Fore
SplineSet
337 129 m 0,0,1
 261 129 261 129 222 173.5 c 128,-1,2
 183 218 183 218 183 289 c 0,3,4
 183 370 183 370 230 417 c 128,-1,5
 277 464 277 464 364 464 c 0,6,7
 381 464 381 464 399.5 461.5 c 128,-1,8
 418 459 418 459 434 457 c 0,9,10
 452 454 452 454 470 451 c 1,11,-1
 473 444 l 1,12,13
 470 431 470 431 467 415 c 0,14,15
 465 401 465 401 462.5 383 c 128,-1,16
 460 365 460 365 459 343 c 1,17,-1
 398 340 l 1,18,-1
 398 348 l 2,19,20
 398 352 398 352 398.5 356.5 c 128,-1,21
 399 361 399 361 399 366 c 0,22,23
 399 386 399 386 388.5 396.5 c 128,-1,24
 378 407 378 407 350 407 c 0,25,26
 315 407 315 407 298 383.5 c 128,-1,27
 281 360 281 360 281 306 c 0,28,29
 281 248 281 248 298 217 c 128,-1,30
 315 186 315 186 353 186 c 0,31,32
 379 186 379 186 392.5 201 c 128,-1,33
 406 216 406 216 411 251 c 1,34,-1
 470 256 l 1,35,36
 468 239 468 239 466 222 c 0,37,38
 464 207 464 207 463 190 c 128,-1,39
 462 173 462 173 462 156 c 1,40,-1
 456 148 l 1,41,42
 439 142 439 142 421 138 c 0,43,44
 404 134 404 134 383 131.5 c 128,-1,45
 362 129 362 129 337 129 c 0,0,1
43 293 m 256,46,47
 43 356 43 356 67 411.5 c 128,-1,48
 91 467 91 467 132 508.5 c 128,-1,49
 173 550 173 550 228.5 574 c 128,-1,50
 284 598 284 598 347 598 c 256,51,52
 410 598 410 598 466 574 c 128,-1,53
 522 550 522 550 563 508.5 c 128,-1,54
 604 467 604 467 628 411.5 c 128,-1,55
 652 356 652 356 652 293 c 256,56,57
 652 230 652 230 628 174.5 c 128,-1,58
 604 119 604 119 563 77.5 c 128,-1,59
 522 36 522 36 466 12 c 128,-1,60
 410 -12 410 -12 347 -12 c 256,61,62
 284 -12 284 -12 228.5 12 c 128,-1,63
 173 36 173 36 132 77.5 c 128,-1,64
 91 119 91 119 67 174.5 c 128,-1,65
 43 230 43 230 43 293 c 256,46,47
94 293 m 256,66,67
 94 240 94 240 114 193.5 c 128,-1,68
 134 147 134 147 168 112 c 128,-1,69
 202 77 202 77 248 57 c 128,-1,70
 294 37 294 37 347 37 c 256,71,72
 400 37 400 37 446.5 57 c 128,-1,73
 493 77 493 77 527.5 112 c 128,-1,74
 562 147 562 147 582 193.5 c 128,-1,75
 602 240 602 240 602 293 c 256,76,77
 602 346 602 346 582 392.5 c 128,-1,78
 562 439 562 439 527.5 474 c 128,-1,79
 493 509 493 509 446.5 529 c 128,-1,80
 400 549 400 549 347 549 c 256,81,82
 294 549 294 549 248 529 c 128,-1,83
 202 509 202 509 168 474 c 128,-1,84
 134 439 134 439 114 392.5 c 128,-1,85
 94 346 94 346 94 293 c 256,66,67
EndSplineSet
EndChar

StartChar: trademark
Encoding: 170 8482 123
Width: 341
GlyphClass: 1
Flags: W
LayerCount: 2
Fore
SplineSet
192 526 m 2,0,1
 192 552 192 552 177.5 566 c 128,-1,2
 163 580 163 580 137 580 c 0,3,4
 123 580 123 580 109 575 c 128,-1,5
 95 570 95 570 84 565 c 0,6,7
 71 559 71 559 59 551 c 1,8,-1
 53 554 l 1,9,-1
 39 598 l 1,10,11
 66 613 66 613 91 624 c 0,12,13
 112 634 112 634 133.5 642 c 128,-1,14
 155 650 155 650 167 650 c 0,15,16
 233 650 233 650 260 623 c 128,-1,17
 287 596 287 596 287 559 c 0,18,19
 287 551 287 551 285 533.5 c 128,-1,20
 283 516 283 516 280.5 497 c 128,-1,21
 278 478 278 478 276 460.5 c 128,-1,22
 274 443 274 443 274 434 c 0,23,24
 274 409 274 409 295 409 c 0,25,26
 300 409 300 409 305 410 c 128,-1,27
 310 411 310 411 315 413 c 0,28,29
 319 415 319 415 324 418 c 1,30,-1
 334 402 l 1,31,32
 323 385 323 385 312 370 c 0,33,34
 302 357 302 357 290 345.5 c 128,-1,35
 278 334 278 334 267 331 c 0,36,37
 202 331 202 331 197 381 c 1,38,-1
 190 383 l 1,39,40
 172 365 172 365 151 349.5 c 128,-1,41
 130 334 130 334 116 334 c 0,42,43
 96 334 96 334 79.5 342 c 128,-1,44
 63 350 63 350 50 363.5 c 128,-1,45
 37 377 37 377 30 396 c 128,-1,46
 23 415 23 415 23 436 c 0,47,48
 23 456 23 456 34 471 c 128,-1,49
 45 486 45 486 63 491 c 2,50,-1
 192 517 l 1,51,-1
 192 526 l 2,0,1
191 477 m 1,52,-1
 130 462 l 2,53,54
 116 458 116 458 116 443 c 0,55,56
 116 427 116 427 125 416.5 c 128,-1,57
 134 406 134 406 148 406 c 0,58,59
 157 406 157 406 168.5 409.5 c 128,-1,60
 180 413 180 413 189 418 c 1,61,-1
 191 477 l 1,52,-1
EndSplineSet
EndChar

StartChar: acute
Encoding: 171 180 124
Width: 451
GlyphClass: 1
Flags: W
LayerCount: 2
Fore
SplineSet
406 386 m 1,0,-1
 410 370 l 1,1,2
 386 334 386 334 363.5 296.5 c 128,-1,3
 341 259 341 259 321 229 c 1,4,5
 341 197 341 197 363.5 160 c 128,-1,6
 386 123 386 123 410 85 c 1,7,-1
 406 69 l 1,8,-1
 365 44 l 1,9,10
 337 74 337 74 308 104.5 c 128,-1,11
 279 135 279 135 255 160 c 0,12,13
 227 189 227 189 200 215 c 1,14,-1
 200 236 l 1,15,16
 227 263 227 263 255 292 c 0,17,18
 279 317 279 317 308 348 c 128,-1,19
 337 379 337 379 365 411 c 1,20,-1
 406 386 l 1,0,-1
221 386 m 1,21,-1
 225 370 l 1,22,23
 201 334 201 334 178.5 296.5 c 128,-1,24
 156 259 156 259 136 229 c 1,25,26
 156 197 156 197 178.5 160 c 128,-1,27
 201 123 201 123 225 85 c 1,28,-1
 221 69 l 1,29,-1
 180 44 l 1,30,31
 152 74 152 74 123 104.5 c 128,-1,32
 94 135 94 135 70 160 c 0,33,34
 42 189 42 189 15 215 c 1,35,-1
 15 236 l 1,36,37
 42 263 42 263 70 292 c 0,38,39
 94 317 94 317 123 348 c 128,-1,40
 152 379 152 379 180 411 c 1,41,-1
 221 386 l 1,21,-1
EndSplineSet
EndChar

StartChar: dieresis
Encoding: 172 168 125
Width: 506
GlyphClass: 1
Flags: W
LayerCount: 2
Fore
SplineSet
459 314 m 1,0,1
 456 294 456 294 454 270 c 0,2,3
 452 250 452 250 450.5 224 c 128,-1,4
 449 198 449 198 449 171 c 2,5,-1
 449 77 l 2,6,7
 449 55 449 55 450 35 c 1,8,-1
 359 21 l 1,9,-1
 348 28 l 1,10,-1
 348 90 l 2,11,12
 348 118 348 118 348.5 152.5 c 128,-1,13
 349 187 349 187 349 222 c 1,14,-1
 252 222 l 2,15,16
 218 222 218 222 178.5 221.5 c 128,-1,17
 139 221 139 221 104 221 c 2,18,-1
 24 221 l 1,19,-1
 17 231 l 1,20,-1
 31 322 l 1,21,22
 74 321 74 321 115 321 c 2,23,-1
 265 321 l 2,24,25
 293 321 293 321 325 321.5 c 128,-1,26
 357 322 357 322 386 324 c 0,27,28
 419 325 419 325 452 327 c 1,29,-1
 459 314 l 1,0,1
EndSplineSet
EndChar

StartChar: AE
Encoding: 174 198 126
Width: 468
GlyphClass: 1
Flags: W
LayerCount: 2
Fore
SplineSet
30 507 m 256,0,1
 30 549 30 549 46 586.5 c 128,-1,2
 62 624 62 624 89.5 651.5 c 128,-1,3
 117 679 117 679 154.5 695 c 128,-1,4
 192 711 192 711 234 711 c 256,5,6
 276 711 276 711 313.5 695 c 128,-1,7
 351 679 351 679 378.5 651.5 c 128,-1,8
 406 624 406 624 422 586.5 c 128,-1,9
 438 549 438 549 438 507 c 256,10,11
 438 465 438 465 422 427.5 c 128,-1,12
 406 390 406 390 378.5 362.5 c 128,-1,13
 351 335 351 335 313.5 319 c 128,-1,14
 276 303 276 303 234 303 c 256,15,16
 192 303 192 303 154.5 319 c 128,-1,17
 117 335 117 335 89.5 362.5 c 128,-1,18
 62 390 62 390 46 427.5 c 128,-1,19
 30 465 30 465 30 507 c 256,0,1
68 507 m 256,20,21
 68 473 68 473 81 442.5 c 128,-1,22
 94 412 94 412 116.5 389.5 c 128,-1,23
 139 367 139 367 169.5 354 c 128,-1,24
 200 341 200 341 234 341 c 256,25,26
 268 341 268 341 298.5 354 c 128,-1,27
 329 367 329 367 351.5 389.5 c 128,-1,28
 374 412 374 412 387 442.5 c 128,-1,29
 400 473 400 473 400 507 c 256,30,31
 400 541 400 541 387 571.5 c 128,-1,32
 374 602 374 602 351.5 624.5 c 128,-1,33
 329 647 329 647 298.5 660 c 128,-1,34
 268 673 268 673 234 673 c 256,35,36
 200 673 200 673 169.5 660 c 128,-1,37
 139 647 139 647 116.5 624.5 c 128,-1,38
 94 602 94 602 81 571.5 c 128,-1,39
 68 541 68 541 68 507 c 256,20,21
140 436 m 1,40,41
 154 438 154 438 158 445 c 128,-1,42
 162 452 162 452 162 469 c 2,43,-1
 162 576 l 2,44,45
 162 587 162 587 160 590.5 c 128,-1,46
 158 594 158 594 152 594 c 2,47,-1
 141 594 l 1,48,-1
 139 597 l 1,49,-1
 142 618 l 1,50,51
 147 618 147 618 160.5 617.5 c 128,-1,52
 174 617 174 617 185 617 c 2,53,-1
 196 617 l 2,54,55
 204 618 204 618 216 618.5 c 128,-1,56
 228 619 228 619 231 619 c 0,57,58
 273 619 273 619 295 605.5 c 128,-1,59
 317 592 317 592 317 563 c 0,60,61
 317 540 317 540 305 526 c 128,-1,62
 293 512 293 512 275 502 c 1,63,-1
 299 464 l 2,64,65
 307 451 307 451 316.5 443 c 128,-1,66
 326 435 326 435 335 434 c 1,67,-1
 337 431 l 2,68,69
 337 424 337 424 336 420 c 128,-1,70
 335 416 335 416 331.5 414 c 128,-1,71
 328 412 328 412 320 411 c 128,-1,72
 312 410 312 410 298 409 c 0,73,74
 283 409 283 409 274 415 c 128,-1,75
 265 421 265 421 257 439 c 2,76,-1
 232 490 l 1,77,-1
 211 490 l 1,78,-1
 211 463 l 2,79,80
 211 446 211 446 214 442 c 128,-1,81
 217 438 217 438 234 438 c 1,82,-1
 236 435 l 1,83,-1
 233 413 l 1,84,85
 226 413 226 413 219 414 c 0,86,87
 213 414 213 414 206 414.5 c 128,-1,88
 199 415 199 415 194 415 c 2,89,-1
 182 415 l 2,90,91
 175 414 175 414 167.5 414 c 128,-1,92
 160 414 160 414 153 413 c 0,93,94
 145 412 145 412 137 412 c 1,95,-1
 140 436 l 1,40,41
215 580 m 0,96,97
 214 565 214 565 213 550.5 c 128,-1,98
 212 536 212 536 212 522 c 1,99,100
 217 522 217 522 224.5 521 c 128,-1,101
 232 520 232 520 239 520 c 0,102,103
 247 523 247 523 255.5 531 c 128,-1,104
 264 539 264 539 264 556 c 0,105,106
 264 588 264 588 220 588 c 0,107,108
 215 588 215 588 215 580 c 0,96,97
EndSplineSet
EndChar

